version 1
nodes
0 "blender_implicit" -1
1 "frame" -1
2 "wheel_rear" 1
3 "fork" 1
4 "wheel_front" 3
5 "att_grip_L" 3
6 "att_grip_R" 3
7 "att_seat" 1
8 "crank" 1
9 "pedal_L" 8
10 "pedal_R" 8
11 "att_baby_seat" 1
end
skeleton
time 0
0  0 0 0  0 0 0
1  0.000000 0.000000 0.000000  1.570796 -0.000000 0.000000
2  -0.490720 -0.037737 0.000000  -1.570800 -0.000001 -0.000000
3  0.380235 0.368318 -0.000506  0.000000 -0.002477 0.363903
4  0.008458 -0.437730 0.000486  -1.571678 0.002319 -0.363904
5  0.064813 0.260876 -0.281075  -0.000886 0.002315 -0.363904
6  0.066207 0.260876 0.281764  -0.000882 0.002315 -0.363904
7  -0.270022 0.459919 -0.000526  0.000000 -0.000000 0.000000
8  -0.048602 -0.101888 0.000000  -1.570796 -0.000000 0.000000
9  -0.000024 0.058445 0.128863  0.000000 -0.000000 0.000000
10  0.000081 -0.057455 -0.117564  0.000000 -0.000000 0.000000
11  -0.505932 0.340000 0.001256  0.000000 -0.000000 0.000000
end
triangles
no_material
0  -0.490720 -0.030096 -0.385839  0.000002 -0.685692 -0.727892  1.000000 0.500000 1 1 1.000000
0  -0.422809 0.030096 -0.379150  0.142003 0.685692 -0.713906  0.968750 1.000000 1 1 1.000000
0  -0.422809 -0.030096 -0.379150  0.142007 -0.685689 -0.713908  0.968750 0.500000 1 1 1.000000
no_material
0  -0.422809 -0.030096 -0.379150  0.142007 -0.685689 -0.713908  0.968750 0.500000 1 1 1.000000
0  -0.357507 0.030096 -0.359341  0.278571 0.685635 -0.672535  0.937500 1.000000 1 1 1.000000
0  -0.357507 -0.030096 -0.359341  0.278556 -0.685686 -0.672489  0.937500 0.500000 1 1 1.000000
no_material
0  -0.357507 -0.030096 -0.359341  0.278556 -0.685686 -0.672489  0.937500 0.500000 1 1 1.000000
0  -0.297325 0.030096 -0.327173  0.404394 0.685692 -0.605221  0.906250 1.000000 1 1 1.000000
0  -0.297325 -0.030096 -0.327173  0.404408 -0.685671 -0.605236  0.906250 0.500000 1 1 1.000000
no_material
0  -0.297325 -0.030096 -0.327173  0.404408 -0.685671 -0.605236  0.906250 0.500000 1 1 1.000000
0  -0.244575 0.030096 -0.283882  0.514701 0.685685 -0.514703  0.875000 1.000000 1 1 1.000000
0  -0.244575 -0.030096 -0.283882  0.514703 -0.685686 -0.514700  0.875000 0.500000 1 1 1.000000
no_material
0  -0.244575 -0.030096 -0.283882  0.514703 -0.685686 -0.514700  0.875000 0.500000 1 1 1.000000
0  -0.201284 0.030096 -0.231132  0.605219 0.685692 -0.404396  0.843750 1.000000 1 1 1.000000
0  -0.201284 -0.030096 -0.231132  0.605223 -0.685689 -0.404395  0.843750 0.500000 1 1 1.000000
no_material
0  -0.201284 -0.030096 -0.231132  0.605223 -0.685689 -0.404395  0.843750 0.500000 1 1 1.000000
0  -0.169116 0.030096 -0.170950  0.672500 0.685673 -0.278560  0.812500 1.000000 1 1 1.000000
0  -0.169116 -0.030096 -0.170950  0.672485 -0.685692 -0.278550  0.812500 0.500000 1 1 1.000000
no_material
0  -0.169116 -0.030096 -0.170950  0.672485 -0.685692 -0.278550  0.812500 0.500000 1 1 1.000000
0  -0.149307 0.030096 -0.105648  0.713905 0.685692 -0.142007  0.781250 1.000000 1 1 1.000000
0  -0.149307 -0.030096 -0.105648  0.713923 -0.685673 -0.142006  0.781250 0.500000 1 1 1.000000
no_material
0  -0.149307 -0.030096 -0.105648  0.713923 -0.685673 -0.142006  0.781250 0.500000 1 1 1.000000
0  -0.142618 0.030096 -0.037737  0.727911 0.685671 -0.000002  0.750000 1.000000 1 1 1.000000
0  -0.142618 -0.030096 -0.037737  0.727892 -0.685692 0.000002  0.750000 0.500000 1 1 1.000000
no_material
0  -0.142618 -0.030096 -0.037737  0.727892 -0.685692 0.000002  0.750000 0.500000 1 1 1.000000
0  -0.149307 0.030096 0.030174  0.713906 0.685692 0.142003  0.718750 1.000000 1 1 1.000000
0  -0.149307 -0.030096 0.030174  0.713924 -0.685672 0.142010  0.718750 0.500000 1 1 1.000000
no_material
0  -0.149307 -0.030096 0.030174  0.713924 -0.685672 0.142010  0.718750 0.500000 1 1 1.000000
0  -0.169116 0.030096 0.095476  0.672492 0.685683 0.278554  0.687500 1.000000 1 1 1.000000
0  -0.169116 -0.030096 0.095476  0.672484 -0.685692 0.278554  0.687500 0.500000 1 1 1.000000
no_material
0  -0.169116 -0.030096 0.095476  0.672484 -0.685692 0.278554  0.687500 0.500000 1 1 1.000000
0  -0.201284 0.030096 0.155658  0.605221 0.685692 0.404394  0.656250 1.000000 1 1 1.000000
0  -0.201284 -0.030096 0.155658  0.605231 -0.685676 0.404405  0.656250 0.500000 1 1 1.000000
no_material
0  -0.201284 -0.030096 0.155658  0.605231 -0.685676 0.404405  0.656250 0.500000 1 1 1.000000
0  -0.244575 0.030096 0.208408  0.514703 0.685685 0.514701  0.625000 1.000000 1 1 1.000000
0  -0.244575 -0.030096 0.208408  0.514700 -0.685686 0.514703  0.625000 0.500000 1 1 1.000000
no_material
0  -0.244575 -0.030096 0.208408  0.514700 -0.685686 0.514703  0.625000 0.500000 1 1 1.000000
0  -0.297325 0.030096 0.251699  0.404396 0.685692 0.605219  0.593750 1.000000 1 1 1.000000
0  -0.297325 -0.030096 0.251699  0.404395 -0.685689 0.605223  0.593750 0.500000 1 1 1.000000
no_material
0  -0.297325 -0.030096 0.251699  0.404395 -0.685689 0.605223  0.593750 0.500000 1 1 1.000000
0  -0.357507 0.030096 0.283867  0.278559 0.685676 0.672497  0.562500 1.000000 1 1 1.000000
0  -0.357507 -0.030096 0.283867  0.278550 -0.685692 0.672485  0.562500 0.500000 1 1 1.000000
no_material
0  -0.357507 -0.030096 0.283867  0.278550 -0.685692 0.672485  0.562500 0.500000 1 1 1.000000
0  -0.422809 0.030096 0.303676  0.142007 0.685692 0.713905  0.531250 1.000000 1 1 1.000000
0  -0.422809 -0.030096 0.303676  0.142009 -0.685659 0.713936  0.531250 0.500000 1 1 1.000000
no_material
0  -0.422809 -0.030096 0.303676  0.142009 -0.685659 0.713936  0.531250 0.500000 1 1 1.000000
0  -0.490720 0.030096 0.310365  0.000002 0.685685 0.727899  0.500000 1.000000 1 1 1.000000
0  -0.490720 -0.030096 0.310365  -0.000002 -0.685692 0.727892  0.500000 0.500000 1 1 1.000000
no_material
0  -0.490720 -0.030096 0.310365  -0.000002 -0.685692 0.727892  0.500000 0.500000 1 1 1.000000
0  -0.558631 0.030096 0.303676  -0.142003 0.685692 0.713906  0.468750 1.000000 1 1 1.000000
0  -0.558631 -0.030096 0.303676  -0.142008 -0.685685 0.713912  0.468750 0.500000 1 1 1.000000
no_material
0  -0.558631 -0.030096 0.303676  -0.142008 -0.685685 0.713912  0.468750 0.500000 1 1 1.000000
0  -0.623933 0.030096 0.283867  -0.278562 0.685660 0.672513  0.437500 1.000000 1 1 1.000000
0  -0.623933 -0.030096 0.283867  -0.278554 -0.685692 0.672483  0.437500 0.500000 1 1 1.000000
no_material
0  -0.623933 -0.030096 0.283867  -0.278554 -0.685692 0.672483  0.437500 0.500000 1 1 1.000000
0  -0.684115 0.030096 0.251699  -0.404393 0.685692 0.605221  0.406250 1.000000 1 1 1.000000
0  -0.684115 -0.030096 0.251699  -0.404404 -0.685679 0.605229  0.406250 0.500000 1 1 1.000000
no_material
0  -0.684115 -0.030096 0.251699  -0.404404 -0.685679 0.605229  0.406250 0.500000 1 1 1.000000
0  -0.736865 0.030096 0.208408  -0.514700 0.685685 0.514703  0.375000 1.000000 1 1 1.000000
0  -0.736865 -0.030096 0.208408  -0.514702 -0.685686 0.514700  0.375000 0.500000 1 1 1.000000
no_material
0  -0.736865 -0.030096 0.208408  -0.514702 -0.685686 0.514700  0.375000 0.500000 1 1 1.000000
0  -0.780156 0.030096 0.155658  -0.605219 0.685692 0.404397  0.343750 1.000000 1 1 1.000000
0  -0.780156 -0.030096 0.155658  -0.605223 -0.685689 0.404395  0.343750 0.500000 1 1 1.000000
no_material
0  -0.780156 -0.030096 0.155658  -0.605223 -0.685689 0.404395  0.343750 0.500000 1 1 1.000000
0  -0.812324 0.030096 0.095476  -0.672497 0.685676 0.278560  0.312500 1.000000 1 1 1.000000
0  -0.812324 -0.030096 0.095476  -0.672485 -0.685692 0.278550  0.312500 0.500000 1 1 1.000000
no_material
0  -0.812324 -0.030096 0.095476  -0.672485 -0.685692 0.278550  0.312500 0.500000 1 1 1.000000
0  -0.832133 0.030096 0.030174  -0.713905 0.685692 0.142006  0.281250 1.000000 1 1 1.000000
0  -0.832133 -0.030096 0.030174  -0.713923 -0.685674 0.142006  0.281250 0.500000 1 1 1.000000
no_material
0  -0.832133 -0.030096 0.030174  -0.713923 -0.685674 0.142006  0.281250 0.500000 1 1 1.000000
0  -0.838822 0.030096 -0.037737  -0.727898 0.685685 0.000002  0.250000 1.000000 1 1 1.000000
0  -0.838822 -0.030096 -0.037737  -0.727898 -0.685685 -0.000002  0.250000 0.500000 1 1 1.000000
no_material
0  -0.838822 -0.030096 -0.037737  -0.727898 -0.685685 -0.000002  0.250000 0.500000 1 1 1.000000
0  -0.832133 0.030096 -0.105648  -0.713906 0.685692 -0.142003  0.218750 1.000000 1 1 1.000000
0  -0.832133 -0.030096 -0.105648  -0.713908 -0.685689 -0.142007  0.218750 0.500000 1 1 1.000000
no_material
0  -0.832133 -0.030096 -0.105648  -0.713908 -0.685689 -0.142007  0.218750 0.500000 1 1 1.000000
0  -0.812324 0.030096 -0.170950  -0.672492 0.685684 -0.278554  0.187500 1.000000 1 1 1.000000
0  -0.812324 -0.030096 -0.170950  -0.672483 -0.685692 -0.278554  0.187500 0.500000 1 1 1.000000
no_material
0  -0.812324 -0.030096 -0.170950  -0.672483 -0.685692 -0.278554  0.187500 0.500000 1 1 1.000000
0  -0.780156 0.030096 -0.231132  -0.605221 0.685692 -0.404393  0.156250 1.000000 1 1 1.000000
0  -0.780156 -0.030096 -0.231132  -0.605238 -0.685667 -0.404410  0.156250 0.500000 1 1 1.000000
no_material
0  -0.780156 -0.030096 -0.231132  -0.605238 -0.685667 -0.404410  0.156250 0.500000 1 1 1.000000
0  -0.736865 0.030096 -0.283882  -0.514712 0.685672 -0.514710  0.125000 1.000000 1 1 1.000000
0  -0.736865 -0.030096 -0.283882  -0.514700 -0.685686 -0.514702  0.125000 0.500000 1 1 1.000000
no_material
0  -0.736865 -0.030096 -0.283882  -0.514700 -0.685686 -0.514702  0.125000 0.500000 1 1 1.000000
0  -0.684115 0.030096 -0.327173  -0.404397 0.685692 -0.605218  0.093750 1.000000 1 1 1.000000
0  -0.684115 -0.030096 -0.327173  -0.404395 -0.685690 -0.605223  0.093750 0.500000 1 1 1.000000
no_material
0  -0.684115 -0.030096 -0.327173  -0.404395 -0.685690 -0.605223  0.093750 0.500000 1 1 1.000000
0  -0.623933 0.030096 -0.359341  -0.278560 0.685674 -0.672500  0.062500 1.000000 1 1 1.000000
0  -0.623933 -0.030096 -0.359341  -0.278550 -0.685692 -0.672485  0.062500 0.500000 1 1 1.000000
no_material
0  -0.357507 0.030096 0.283867  0.278559 0.685676 0.672497  0.341844 0.028269 1 1 1.000000
0  -0.169116 0.030096 0.095476  0.672492 0.685683 0.278554  0.471731 0.158156 1 1 1.000000
0  -0.357507 0.030096 -0.359341  0.278571 0.685635 -0.672535  0.341844 0.471731 1 1 1.000000
no_material
0  -0.623933 -0.030096 -0.359341  -0.278550 -0.685692 -0.672485  0.062500 0.500000 1 1 1.000000
0  -0.558631 0.030096 -0.379150  -0.142007 0.685692 -0.713905  0.031250 1.000000 1 1 1.000000
0  -0.558631 -0.030096 -0.379150  -0.142009 -0.685659 -0.713937  0.031250 0.500000 1 1 1.000000
no_material
0  -0.558631 -0.030096 -0.379150  -0.142009 -0.685659 -0.713937  0.031250 0.500000 1 1 1.000000
0  -0.490720 0.030096 -0.385839  -0.000002 0.685685 -0.727899  0.000000 1.000000 1 1 1.000000
0  -0.490720 -0.030096 -0.385839  0.000002 -0.685692 -0.727892  0.000000 0.500000 1 1 1.000000
no_material
0  -0.558631 -0.030096 -0.379150  -0.142009 -0.685659 -0.713937  0.703178 0.485388 1 1 1.000000
0  -0.149307 -0.030096 -0.105648  0.713923 -0.685673 -0.142006  0.985388 0.296822 1 1 1.000000
0  -0.422809 -0.030096 0.303676  0.142009 -0.685659 0.713936  0.796822 0.014612 1 1 1.000000
no_material
0  -0.598847 -0.051092 -0.181182  -0.674565 -0.561703 -0.479011  0.375000 0.000000 1 1 1.000000
0  -0.373947 0.051092 0.463085  -0.464431 0.597107 0.654039  0.625000 0.250000 1 1 1.000000
0  -0.598847 0.051092 -0.181182  -0.674548 0.561728 -0.479006  0.375000 0.250000 1 1 1.000000
no_material
0  -0.598847 0.051092 -0.181182  -0.674548 0.561728 -0.479006  0.375000 0.250000 1 1 1.000000
0  0.390396 0.051092 0.463085  0.454707 0.598891 0.659220  0.625000 0.500000 1 1 1.000000
0  0.635219 0.051092 -0.181182  0.681652 0.560606 -0.470182  0.375000 0.500000 1 1 1.000000
no_material
0  0.635219 0.051092 -0.181182  0.681652 0.560606 -0.470182  0.375000 0.500000 1 1 1.000000
0  0.390396 -0.051092 0.463085  0.454703 -0.598898 0.659216  0.625000 0.750000 1 1 1.000000
0  0.635219 -0.051092 -0.181182  0.681634 -0.560631 -0.470178  0.375000 0.750000 1 1 1.000000
no_material
0  0.635219 -0.051092 -0.181182  0.681634 -0.560631 -0.470178  0.375000 0.750000 1 1 1.000000
0  -0.373947 -0.051092 0.463085  -0.464435 -0.597098 0.654044  0.625000 1.000000 1 1 1.000000
0  -0.598847 -0.051092 -0.181182  -0.674565 -0.561703 -0.479011  0.375000 1.000000 1 1 1.000000
no_material
0  -0.598847 0.051092 -0.181182  -0.674548 0.561728 -0.479006  0.125000 0.500000 1 1 1.000000
0  0.635219 -0.051092 -0.181182  0.681634 -0.560631 -0.470178  0.375000 0.750000 1 1 1.000000
0  -0.598847 -0.051092 -0.181182  -0.674565 -0.561703 -0.479011  0.125000 0.750000 1 1 1.000000
no_material
0  0.390396 0.051092 0.463085  0.454707 0.598891 0.659220  0.625000 0.500000 1 1 1.000000
0  -0.373947 -0.051092 0.463085  -0.464435 -0.597098 0.654044  0.875000 0.750000 1 1 1.000000
0  0.390396 -0.051092 0.463085  0.454703 -0.598898 0.659216  0.625000 0.750000 1 1 1.000000
no_material
0  0.333411 0.328461 0.599851  0.577357 -0.577347 0.577347  0.375000 0.000000 1 1 1.000000
0  0.333411 -0.328461 0.640884  0.577357 0.577347 -0.577347  0.625000 0.250000 1 1 1.000000
0  0.333411 -0.328461 0.599851  0.577345 0.577353 0.577353  0.375000 0.250000 1 1 1.000000
no_material
0  0.333411 -0.328461 0.599851  0.577345 0.577353 0.577353  0.375000 0.250000 1 1 1.000000
0  0.394960 -0.328461 0.640884  -0.577345 0.577353 -0.577353  0.625000 0.500000 1 1 1.000000
0  0.394960 -0.328461 0.599851  -0.577357 0.577347 0.577347  0.375000 0.500000 1 1 1.000000
no_material
0  0.394960 -0.328461 0.599851  -0.577357 0.577347 0.577347  0.375000 0.500000 1 1 1.000000
0  0.394960 0.328461 0.640884  -0.577357 -0.577347 -0.577347  0.625000 0.750000 1 1 1.000000
0  0.394960 0.328461 0.599851  -0.577345 -0.577353 0.577353  0.375000 0.750000 1 1 1.000000
no_material
0  0.394960 0.328461 0.599851  -0.577345 -0.577353 0.577353  0.375000 0.750000 1 1 1.000000
0  0.333411 0.328461 0.640884  0.577345 -0.577353 -0.577353  0.625000 1.000000 1 1 1.000000
0  0.333411 0.328461 0.599851  0.577357 -0.577347 0.577347  0.375000 1.000000 1 1 1.000000
no_material
0  0.333411 -0.328461 0.599851  0.577345 0.577353 0.577353  0.125000 0.500000 1 1 1.000000
0  0.394960 0.328461 0.599851  -0.577345 -0.577353 0.577353  0.375000 0.750000 1 1 1.000000
0  0.333411 0.328461 0.599851  0.577357 -0.577347 0.577347  0.125000 0.750000 1 1 1.000000
no_material
0  0.394960 -0.328461 0.640884  -0.577345 0.577353 -0.577353  0.625000 0.500000 1 1 1.000000
0  0.333411 0.328461 0.640884  0.577345 -0.577353 -0.577353  0.875000 0.750000 1 1 1.000000
0  0.394960 0.328461 0.640884  -0.577357 -0.577347 -0.577347  0.625000 0.750000 1 1 1.000000
no_material
0  0.543937 -0.030096 -0.385839  0.000002 -0.685692 -0.727892  1.000000 0.500000 1 1 1.000000
0  0.611848 0.030096 -0.379150  0.142003 0.685692 -0.713906  0.968750 1.000000 1 1 1.000000
0  0.611848 -0.030096 -0.379150  0.142010 -0.685672 -0.713924  0.968750 0.500000 1 1 1.000000
no_material
0  0.611848 -0.030096 -0.379150  0.142010 -0.685672 -0.713924  0.968750 0.500000 1 1 1.000000
0  0.677150 0.030096 -0.359341  0.278555 0.685678 -0.672497  0.937500 1.000000 1 1 1.000000
0  0.677150 -0.030096 -0.359341  0.278554 -0.685692 -0.672484  0.937500 0.500000 1 1 1.000000
no_material
0  0.677150 -0.030096 -0.359341  0.278554 -0.685692 -0.672484  0.937500 0.500000 1 1 1.000000
0  0.737332 0.030096 -0.327173  0.404394 0.685692 -0.605220  0.906250 1.000000 1 1 1.000000
0  0.737332 -0.030096 -0.327173  0.404405 -0.685676 -0.605231  0.906250 0.500000 1 1 1.000000
no_material
0  0.737332 -0.030096 -0.327173  0.404405 -0.685676 -0.605231  0.906250 0.500000 1 1 1.000000
0  0.790082 0.030096 -0.283882  0.514701 0.685685 -0.514703  0.875000 1.000000 1 1 1.000000
0  0.790082 -0.030096 -0.283882  0.514703 -0.685686 -0.514700  0.875000 0.500000 1 1 1.000000
no_material
0  0.790082 -0.030096 -0.283882  0.514703 -0.685686 -0.514700  0.875000 0.500000 1 1 1.000000
0  0.833373 0.030096 -0.231132  0.605219 0.685692 -0.404396  0.843750 1.000000 1 1 1.000000
0  0.833373 -0.030096 -0.231132  0.605223 -0.685689 -0.404395  0.843750 0.500000 1 1 1.000000
no_material
0  0.833373 -0.030096 -0.231132  0.605223 -0.685689 -0.404395  0.843750 0.500000 1 1 1.000000
0  0.865541 0.030096 -0.170950  0.672498 0.685676 -0.278560  0.812500 1.000000 1 1 1.000000
0  0.865541 -0.030096 -0.170950  0.672485 -0.685692 -0.278550  0.812500 0.500000 1 1 1.000000
no_material
0  0.865541 -0.030096 -0.170950  0.672485 -0.685692 -0.278550  0.812500 0.500000 1 1 1.000000
0  0.885350 0.030096 -0.105648  0.713905 0.685692 -0.142007  0.781250 1.000000 1 1 1.000000
0  0.885350 -0.030096 -0.105648  0.713919 -0.685678 -0.142006  0.781250 0.500000 1 1 1.000000
no_material
0  0.885350 -0.030096 -0.105648  0.713919 -0.685678 -0.142006  0.781250 0.500000 1 1 1.000000
0  0.892039 0.030096 -0.037737  0.727894 0.685690 -0.000002  0.750000 1.000000 1 1 1.000000
0  0.892039 -0.030096 -0.037737  0.727892 -0.685692 0.000002  0.750000 0.500000 1 1 1.000000
no_material
0  0.892039 -0.030096 -0.037737  0.727892 -0.685692 0.000002  0.750000 0.500000 1 1 1.000000
0  0.885350 0.030096 0.030174  0.713911 0.685686 0.142004  0.718750 1.000000 1 1 1.000000
0  0.885350 -0.030096 0.030174  0.713924 -0.685672 0.142010  0.718750 0.500000 1 1 1.000000
no_material
0  0.885350 -0.030096 0.030174  0.713924 -0.685672 0.142010  0.718750 0.500000 1 1 1.000000
0  0.865541 0.030096 0.095476  0.672500 0.685675 0.278556  0.687500 1.000000 1 1 1.000000
0  0.865541 -0.030096 0.095476  0.672484 -0.685692 0.278554  0.687500 0.500000 1 1 1.000000
no_material
0  0.865541 -0.030096 0.095476  0.672484 -0.685692 0.278554  0.687500 0.500000 1 1 1.000000
0  0.833373 0.030096 0.155658  0.605221 0.685692 0.404394  0.656250 1.000000 1 1 1.000000
0  0.833373 -0.030096 0.155658  0.605231 -0.685676 0.404405  0.656250 0.500000 1 1 1.000000
no_material
0  0.833373 -0.030096 0.155658  0.605231 -0.685676 0.404405  0.656250 0.500000 1 1 1.000000
0  0.790082 0.030096 0.208408  0.514703 0.685685 0.514700  0.625000 1.000000 1 1 1.000000
0  0.790082 -0.030096 0.208408  0.514700 -0.685686 0.514702  0.625000 0.500000 1 1 1.000000
no_material
0  0.790082 -0.030096 0.208408  0.514700 -0.685686 0.514702  0.625000 0.500000 1 1 1.000000
0  0.737332 0.030096 0.251699  0.404397 0.685692 0.605219  0.593750 1.000000 1 1 1.000000
0  0.737332 -0.030096 0.251699  0.404395 -0.685690 0.605223  0.593750 0.500000 1 1 1.000000
no_material
0  0.737332 -0.030096 0.251699  0.404395 -0.685690 0.605223  0.593750 0.500000 1 1 1.000000
0  0.677150 0.030096 0.283867  0.278564 0.685664 0.672508  0.562500 1.000000 1 1 1.000000
0  0.677150 -0.030096 0.283867  0.278551 -0.685692 0.672485  0.562500 0.500000 1 1 1.000000
no_material
0  0.677150 -0.030096 0.283867  0.278551 -0.685692 0.672485  0.562500 0.500000 1 1 1.000000
0  0.611848 0.030096 0.303676  0.142007 0.685692 0.713905  0.531250 1.000000 1 1 1.000000
0  0.611848 -0.030096 0.303676  0.142011 -0.685650 0.713945  0.531250 0.500000 1 1 1.000000
no_material
0  0.611848 -0.030096 0.303676  0.142011 -0.685650 0.713945  0.531250 0.500000 1 1 1.000000
0  0.543937 0.030096 0.310365  0.000002 0.685689 0.727894  0.500000 1.000000 1 1 1.000000
0  0.543937 -0.030096 0.310365  -0.000002 -0.685692 0.727892  0.500000 0.500000 1 1 1.000000
no_material
0  0.543937 -0.030096 0.310365  -0.000002 -0.685692 0.727892  0.500000 0.500000 1 1 1.000000
0  0.476026 0.030096 0.303676  -0.142004 0.685686 0.713912  0.468750 1.000000 1 1 1.000000
0  0.476026 -0.030096 0.303676  -0.142008 -0.685685 0.713912  0.468750 0.500000 1 1 1.000000
no_material
0  0.476026 -0.030096 0.303676  -0.142008 -0.685685 0.713912  0.468750 0.500000 1 1 1.000000
0  0.410724 0.030096 0.283867  -0.278561 0.685662 0.672511  0.437500 1.000000 1 1 1.000000
0  0.410724 -0.030096 0.283867  -0.278554 -0.685692 0.672483  0.437500 0.500000 1 1 1.000000
no_material
0  0.410724 -0.030096 0.283867  -0.278554 -0.685692 0.672483  0.437500 0.500000 1 1 1.000000
0  0.350542 0.030096 0.251699  -0.404393 0.685692 0.605221  0.406250 1.000000 1 1 1.000000
0  0.350542 -0.030096 0.251699  -0.404406 -0.685673 0.605233  0.406250 0.500000 1 1 1.000000
no_material
0  0.350542 -0.030096 0.251699  -0.404406 -0.685673 0.605233  0.406250 0.500000 1 1 1.000000
0  0.297792 0.030096 0.208408  -0.514698 0.685690 0.514700  0.375000 1.000000 1 1 1.000000
0  0.297792 -0.030096 0.208408  -0.514699 -0.685692 0.514696  0.375000 0.500000 1 1 1.000000
no_material
0  0.297792 -0.030096 0.208408  -0.514699 -0.685692 0.514696  0.375000 0.500000 1 1 1.000000
0  0.254501 0.030096 0.155658  -0.605224 0.685686 0.404400  0.343750 1.000000 1 1 1.000000
0  0.254501 -0.030096 0.155658  -0.605237 -0.685672 0.404404  0.343750 0.500000 1 1 1.000000
no_material
0  0.254501 -0.030096 0.155658  -0.605237 -0.685672 0.404404  0.343750 0.500000 1 1 1.000000
0  0.222333 0.030096 0.095476  -0.672502 0.685671 0.278562  0.312500 1.000000 1 1 1.000000
0  0.222333 -0.030096 0.095476  -0.672485 -0.685692 0.278550  0.312500 0.500000 1 1 1.000000
no_material
0  0.222333 -0.030096 0.095476  -0.672485 -0.685692 0.278550  0.312500 0.500000 1 1 1.000000
0  0.202524 0.030096 0.030174  -0.713911 0.685686 0.142008  0.281250 1.000000 1 1 1.000000
0  0.202524 -0.030096 0.030174  -0.713912 -0.685685 0.142004  0.281250 0.500000 1 1 1.000000
no_material
0  0.202524 -0.030096 0.030174  -0.713912 -0.685685 0.142004  0.281250 0.500000 1 1 1.000000
0  0.195835 0.030096 -0.037737  -0.727894 0.685689 0.000002  0.250000 1.000000 1 1 1.000000
0  0.195835 -0.030096 -0.037737  -0.727892 -0.685692 -0.000002  0.250000 0.500000 1 1 1.000000
no_material
0  0.195835 -0.030096 -0.037737  -0.727892 -0.685692 -0.000002  0.250000 0.500000 1 1 1.000000
0  0.202524 0.030096 -0.105648  -0.713906 0.685692 -0.142003  0.218750 1.000000 1 1 1.000000
0  0.202524 -0.030096 -0.105648  -0.713912 -0.685685 -0.142008  0.218750 0.500000 1 1 1.000000
no_material
0  0.202524 -0.030096 -0.105648  -0.713912 -0.685685 -0.142008  0.218750 0.500000 1 1 1.000000
0  0.222333 0.030096 -0.170950  -0.672514 0.685659 -0.278563  0.187500 1.000000 1 1 1.000000
0  0.222333 -0.030096 -0.170950  -0.672483 -0.685692 -0.278554  0.187500 0.500000 1 1 1.000000
no_material
0  0.222333 -0.030096 -0.170950  -0.672483 -0.685692 -0.278554  0.187500 0.500000 1 1 1.000000
0  0.254501 0.030096 -0.231132  -0.605226 0.685686 -0.404396  0.156250 1.000000 1 1 1.000000
0  0.254501 -0.030096 -0.231132  -0.605240 -0.685665 -0.404410  0.156250 0.500000 1 1 1.000000
no_material
0  0.254501 -0.030096 -0.231132  -0.605240 -0.685665 -0.404410  0.156250 0.500000 1 1 1.000000
0  0.297792 0.030096 -0.283882  -0.514700 0.685690 -0.514697  0.125000 1.000000 1 1 1.000000
0  0.297792 -0.030096 -0.283882  -0.514696 -0.685692 -0.514698  0.125000 0.500000 1 1 1.000000
no_material
0  0.297792 -0.030096 -0.283882  -0.514696 -0.685692 -0.514698  0.125000 0.500000 1 1 1.000000
0  0.350542 0.030096 -0.327173  -0.404397 0.685692 -0.605218  0.093750 1.000000 1 1 1.000000
0  0.350542 -0.030096 -0.327173  -0.404397 -0.685685 -0.605226  0.093750 0.500000 1 1 1.000000
no_material
0  0.350542 -0.030096 -0.327173  -0.404397 -0.685685 -0.605226  0.093750 0.500000 1 1 1.000000
0  0.410724 0.030096 -0.359341  -0.278561 0.685672 -0.672501  0.062500 1.000000 1 1 1.000000
0  0.410724 -0.030096 -0.359341  -0.278550 -0.685692 -0.672485  0.062500 0.500000 1 1 1.000000
no_material
0  0.677150 0.030096 -0.359341  0.278555 0.685678 -0.672497  0.341844 0.471731 1 1 1.000000
0  0.222333 0.030096 -0.170950  -0.672514 0.685659 -0.278563  0.028269 0.341844 1 1 1.000000
0  0.410724 0.030096 0.283867  -0.278561 0.685662 0.672511  0.158156 0.028269 1 1 1.000000
no_material
0  0.410724 -0.030096 -0.359341  -0.278550 -0.685692 -0.672485  0.062500 0.500000 1 1 1.000000
0  0.476026 0.030096 -0.379150  -0.142007 0.685692 -0.713905  0.031250 1.000000 1 1 1.000000
0  0.476026 -0.030096 -0.379150  -0.142006 -0.685674 -0.713923  0.031250 0.500000 1 1 1.000000
no_material
0  0.476026 -0.030096 -0.379150  -0.142006 -0.685674 -0.713923  0.031250 0.500000 1 1 1.000000
0  0.543937 0.030096 -0.385839  -0.000002 0.685671 -0.727911  0.000000 1.000000 1 1 1.000000
0  0.543937 -0.030096 -0.385839  0.000002 -0.685692 -0.727892  0.000000 0.500000 1 1 1.000000
no_material
0  0.885350 -0.030096 -0.105648  0.713919 -0.685678 -0.142006  0.985388 0.296822 1 1 1.000000
0  0.611848 -0.030096 0.303676  0.142011 -0.685650 0.713945  0.796822 0.014612 1 1 1.000000
0  0.202524 -0.030096 0.030174  -0.713912 -0.685685 0.142004  0.514612 0.203178 1 1 1.000000
no_material
0  -0.490720 -0.030096 -0.385839  0.000002 -0.685692 -0.727892  1.000000 0.500000 1 1 1.000000
0  -0.490720 0.030096 -0.385839  -0.000002 0.685685 -0.727899  1.000000 1.000000 1 1 1.000000
0  -0.422809 0.030096 -0.379150  0.142003 0.685692 -0.713906  0.968750 1.000000 1 1 1.000000
no_material
0  -0.422809 -0.030096 -0.379150  0.142007 -0.685689 -0.713908  0.968750 0.500000 1 1 1.000000
0  -0.422809 0.030096 -0.379150  0.142003 0.685692 -0.713906  0.968750 1.000000 1 1 1.000000
0  -0.357507 0.030096 -0.359341  0.278571 0.685635 -0.672535  0.937500 1.000000 1 1 1.000000
no_material
0  -0.357507 -0.030096 -0.359341  0.278556 -0.685686 -0.672489  0.937500 0.500000 1 1 1.000000
0  -0.357507 0.030096 -0.359341  0.278571 0.685635 -0.672535  0.937500 1.000000 1 1 1.000000
0  -0.297325 0.030096 -0.327173  0.404394 0.685692 -0.605221  0.906250 1.000000 1 1 1.000000
no_material
0  -0.297325 -0.030096 -0.327173  0.404408 -0.685671 -0.605236  0.906250 0.500000 1 1 1.000000
0  -0.297325 0.030096 -0.327173  0.404394 0.685692 -0.605221  0.906250 1.000000 1 1 1.000000
0  -0.244575 0.030096 -0.283882  0.514701 0.685685 -0.514703  0.875000 1.000000 1 1 1.000000
no_material
0  -0.244575 -0.030096 -0.283882  0.514703 -0.685686 -0.514700  0.875000 0.500000 1 1 1.000000
0  -0.244575 0.030096 -0.283882  0.514701 0.685685 -0.514703  0.875000 1.000000 1 1 1.000000
0  -0.201284 0.030096 -0.231132  0.605219 0.685692 -0.404396  0.843750 1.000000 1 1 1.000000
no_material
0  -0.201284 -0.030096 -0.231132  0.605223 -0.685689 -0.404395  0.843750 0.500000 1 1 1.000000
0  -0.201284 0.030096 -0.231132  0.605219 0.685692 -0.404396  0.843750 1.000000 1 1 1.000000
0  -0.169116 0.030096 -0.170950  0.672500 0.685673 -0.278560  0.812500 1.000000 1 1 1.000000
no_material
0  -0.169116 -0.030096 -0.170950  0.672485 -0.685692 -0.278550  0.812500 0.500000 1 1 1.000000
0  -0.169116 0.030096 -0.170950  0.672500 0.685673 -0.278560  0.812500 1.000000 1 1 1.000000
0  -0.149307 0.030096 -0.105648  0.713905 0.685692 -0.142007  0.781250 1.000000 1 1 1.000000
no_material
0  -0.149307 -0.030096 -0.105648  0.713923 -0.685673 -0.142006  0.781250 0.500000 1 1 1.000000
0  -0.149307 0.030096 -0.105648  0.713905 0.685692 -0.142007  0.781250 1.000000 1 1 1.000000
0  -0.142618 0.030096 -0.037737  0.727911 0.685671 -0.000002  0.750000 1.000000 1 1 1.000000
no_material
0  -0.142618 -0.030096 -0.037737  0.727892 -0.685692 0.000002  0.750000 0.500000 1 1 1.000000
0  -0.142618 0.030096 -0.037737  0.727911 0.685671 -0.000002  0.750000 1.000000 1 1 1.000000
0  -0.149307 0.030096 0.030174  0.713906 0.685692 0.142003  0.718750 1.000000 1 1 1.000000
no_material
0  -0.149307 -0.030096 0.030174  0.713924 -0.685672 0.142010  0.718750 0.500000 1 1 1.000000
0  -0.149307 0.030096 0.030174  0.713906 0.685692 0.142003  0.718750 1.000000 1 1 1.000000
0  -0.169116 0.030096 0.095476  0.672492 0.685683 0.278554  0.687500 1.000000 1 1 1.000000
no_material
0  -0.169116 -0.030096 0.095476  0.672484 -0.685692 0.278554  0.687500 0.500000 1 1 1.000000
0  -0.169116 0.030096 0.095476  0.672492 0.685683 0.278554  0.687500 1.000000 1 1 1.000000
0  -0.201284 0.030096 0.155658  0.605221 0.685692 0.404394  0.656250 1.000000 1 1 1.000000
no_material
0  -0.201284 -0.030096 0.155658  0.605231 -0.685676 0.404405  0.656250 0.500000 1 1 1.000000
0  -0.201284 0.030096 0.155658  0.605221 0.685692 0.404394  0.656250 1.000000 1 1 1.000000
0  -0.244575 0.030096 0.208408  0.514703 0.685685 0.514701  0.625000 1.000000 1 1 1.000000
no_material
0  -0.244575 -0.030096 0.208408  0.514700 -0.685686 0.514703  0.625000 0.500000 1 1 1.000000
0  -0.244575 0.030096 0.208408  0.514703 0.685685 0.514701  0.625000 1.000000 1 1 1.000000
0  -0.297325 0.030096 0.251699  0.404396 0.685692 0.605219  0.593750 1.000000 1 1 1.000000
no_material
0  -0.297325 -0.030096 0.251699  0.404395 -0.685689 0.605223  0.593750 0.500000 1 1 1.000000
0  -0.297325 0.030096 0.251699  0.404396 0.685692 0.605219  0.593750 1.000000 1 1 1.000000
0  -0.357507 0.030096 0.283867  0.278559 0.685676 0.672497  0.562500 1.000000 1 1 1.000000
no_material
0  -0.357507 -0.030096 0.283867  0.278550 -0.685692 0.672485  0.562500 0.500000 1 1 1.000000
0  -0.357507 0.030096 0.283867  0.278559 0.685676 0.672497  0.562500 1.000000 1 1 1.000000
0  -0.422809 0.030096 0.303676  0.142007 0.685692 0.713905  0.531250 1.000000 1 1 1.000000
no_material
0  -0.422809 -0.030096 0.303676  0.142009 -0.685659 0.713936  0.531250 0.500000 1 1 1.000000
0  -0.422809 0.030096 0.303676  0.142007 0.685692 0.713905  0.531250 1.000000 1 1 1.000000
0  -0.490720 0.030096 0.310365  0.000002 0.685685 0.727899  0.500000 1.000000 1 1 1.000000
no_material
0  -0.490720 -0.030096 0.310365  -0.000002 -0.685692 0.727892  0.500000 0.500000 1 1 1.000000
0  -0.490720 0.030096 0.310365  0.000002 0.685685 0.727899  0.500000 1.000000 1 1 1.000000
0  -0.558631 0.030096 0.303676  -0.142003 0.685692 0.713906  0.468750 1.000000 1 1 1.000000
no_material
0  -0.558631 -0.030096 0.303676  -0.142008 -0.685685 0.713912  0.468750 0.500000 1 1 1.000000
0  -0.558631 0.030096 0.303676  -0.142003 0.685692 0.713906  0.468750 1.000000 1 1 1.000000
0  -0.623933 0.030096 0.283867  -0.278562 0.685660 0.672513  0.437500 1.000000 1 1 1.000000
no_material
0  -0.623933 -0.030096 0.283867  -0.278554 -0.685692 0.672483  0.437500 0.500000 1 1 1.000000
0  -0.623933 0.030096 0.283867  -0.278562 0.685660 0.672513  0.437500 1.000000 1 1 1.000000
0  -0.684115 0.030096 0.251699  -0.404393 0.685692 0.605221  0.406250 1.000000 1 1 1.000000
no_material
0  -0.684115 -0.030096 0.251699  -0.404404 -0.685679 0.605229  0.406250 0.500000 1 1 1.000000
0  -0.684115 0.030096 0.251699  -0.404393 0.685692 0.605221  0.406250 1.000000 1 1 1.000000
0  -0.736865 0.030096 0.208408  -0.514700 0.685685 0.514703  0.375000 1.000000 1 1 1.000000
no_material
0  -0.736865 -0.030096 0.208408  -0.514702 -0.685686 0.514700  0.375000 0.500000 1 1 1.000000
0  -0.736865 0.030096 0.208408  -0.514700 0.685685 0.514703  0.375000 1.000000 1 1 1.000000
0  -0.780156 0.030096 0.155658  -0.605219 0.685692 0.404397  0.343750 1.000000 1 1 1.000000
no_material
0  -0.780156 -0.030096 0.155658  -0.605223 -0.685689 0.404395  0.343750 0.500000 1 1 1.000000
0  -0.780156 0.030096 0.155658  -0.605219 0.685692 0.404397  0.343750 1.000000 1 1 1.000000
0  -0.812324 0.030096 0.095476  -0.672497 0.685676 0.278560  0.312500 1.000000 1 1 1.000000
no_material
0  -0.812324 -0.030096 0.095476  -0.672485 -0.685692 0.278550  0.312500 0.500000 1 1 1.000000
0  -0.812324 0.030096 0.095476  -0.672497 0.685676 0.278560  0.312500 1.000000 1 1 1.000000
0  -0.832133 0.030096 0.030174  -0.713905 0.685692 0.142006  0.281250 1.000000 1 1 1.000000
no_material
0  -0.832133 -0.030096 0.030174  -0.713923 -0.685674 0.142006  0.281250 0.500000 1 1 1.000000
0  -0.832133 0.030096 0.030174  -0.713905 0.685692 0.142006  0.281250 1.000000 1 1 1.000000
0  -0.838822 0.030096 -0.037737  -0.727898 0.685685 0.000002  0.250000 1.000000 1 1 1.000000
no_material
0  -0.838822 -0.030096 -0.037737  -0.727898 -0.685685 -0.000002  0.250000 0.500000 1 1 1.000000
0  -0.838822 0.030096 -0.037737  -0.727898 0.685685 0.000002  0.250000 1.000000 1 1 1.000000
0  -0.832133 0.030096 -0.105648  -0.713906 0.685692 -0.142003  0.218750 1.000000 1 1 1.000000
no_material
0  -0.832133 -0.030096 -0.105648  -0.713908 -0.685689 -0.142007  0.218750 0.500000 1 1 1.000000
0  -0.832133 0.030096 -0.105648  -0.713906 0.685692 -0.142003  0.218750 1.000000 1 1 1.000000
0  -0.812324 0.030096 -0.170950  -0.672492 0.685684 -0.278554  0.187500 1.000000 1 1 1.000000
no_material
0  -0.812324 -0.030096 -0.170950  -0.672483 -0.685692 -0.278554  0.187500 0.500000 1 1 1.000000
0  -0.812324 0.030096 -0.170950  -0.672492 0.685684 -0.278554  0.187500 1.000000 1 1 1.000000
0  -0.780156 0.030096 -0.231132  -0.605221 0.685692 -0.404393  0.156250 1.000000 1 1 1.000000
no_material
0  -0.780156 -0.030096 -0.231132  -0.605238 -0.685667 -0.404410  0.156250 0.500000 1 1 1.000000
0  -0.780156 0.030096 -0.231132  -0.605221 0.685692 -0.404393  0.156250 1.000000 1 1 1.000000
0  -0.736865 0.030096 -0.283882  -0.514712 0.685672 -0.514710  0.125000 1.000000 1 1 1.000000
no_material
0  -0.736865 -0.030096 -0.283882  -0.514700 -0.685686 -0.514702  0.125000 0.500000 1 1 1.000000
0  -0.736865 0.030096 -0.283882  -0.514712 0.685672 -0.514710  0.125000 1.000000 1 1 1.000000
0  -0.684115 0.030096 -0.327173  -0.404397 0.685692 -0.605218  0.093750 1.000000 1 1 1.000000
no_material
0  -0.684115 -0.030096 -0.327173  -0.404395 -0.685690 -0.605223  0.093750 0.500000 1 1 1.000000
0  -0.684115 0.030096 -0.327173  -0.404397 0.685692 -0.605218  0.093750 1.000000 1 1 1.000000
0  -0.623933 0.030096 -0.359341  -0.278560 0.685674 -0.672500  0.062500 1.000000 1 1 1.000000
no_material
0  -0.357507 0.030096 -0.359341  0.278571 0.685635 -0.672535  0.341844 0.471731 1 1 1.000000
0  -0.422809 0.030096 -0.379150  0.142003 0.685692 -0.713906  0.296822 0.485388 1 1 1.000000
0  -0.490720 0.030096 -0.385839  -0.000002 0.685685 -0.727899  0.250000 0.490000 1 1 1.000000
no_material
0  -0.490720 0.030096 -0.385839  -0.000002 0.685685 -0.727899  0.250000 0.490000 1 1 1.000000
0  -0.558631 0.030096 -0.379150  -0.142007 0.685692 -0.713905  0.203178 0.485388 1 1 1.000000
0  -0.623933 0.030096 -0.359341  -0.278560 0.685674 -0.672500  0.158156 0.471731 1 1 1.000000
no_material
0  -0.623933 0.030096 -0.359341  -0.278560 0.685674 -0.672500  0.158156 0.471731 1 1 1.000000
0  -0.684115 0.030096 -0.327173  -0.404397 0.685692 -0.605218  0.116663 0.449553 1 1 1.000000
0  -0.736865 0.030096 -0.283882  -0.514712 0.685672 -0.514710  0.080294 0.419706 1 1 1.000000
no_material
0  -0.736865 0.030096 -0.283882  -0.514712 0.685672 -0.514710  0.080294 0.419706 1 1 1.000000
0  -0.780156 0.030096 -0.231132  -0.605221 0.685692 -0.404393  0.050447 0.383337 1 1 1.000000
0  -0.812324 0.030096 -0.170950  -0.672492 0.685684 -0.278554  0.028269 0.341844 1 1 1.000000
no_material
0  -0.812324 0.030096 -0.170950  -0.672492 0.685684 -0.278554  0.028269 0.341844 1 1 1.000000
0  -0.832133 0.030096 -0.105648  -0.713906 0.685692 -0.142003  0.014612 0.296822 1 1 1.000000
0  -0.838822 0.030096 -0.037737  -0.727898 0.685685 0.000002  0.010000 0.250000 1 1 1.000000
no_material
0  -0.838822 0.030096 -0.037737  -0.727898 0.685685 0.000002  0.010000 0.250000 1 1 1.000000
0  -0.832133 0.030096 0.030174  -0.713905 0.685692 0.142006  0.014612 0.203178 1 1 1.000000
0  -0.812324 0.030096 0.095476  -0.672497 0.685676 0.278560  0.028269 0.158156 1 1 1.000000
no_material
0  -0.812324 0.030096 0.095476  -0.672497 0.685676 0.278560  0.028269 0.158156 1 1 1.000000
0  -0.780156 0.030096 0.155658  -0.605219 0.685692 0.404397  0.050447 0.116663 1 1 1.000000
0  -0.736865 0.030096 0.208408  -0.514700 0.685685 0.514703  0.080294 0.080294 1 1 1.000000
no_material
0  -0.736865 0.030096 0.208408  -0.514700 0.685685 0.514703  0.080294 0.080294 1 1 1.000000
0  -0.684115 0.030096 0.251699  -0.404393 0.685692 0.605221  0.116663 0.050447 1 1 1.000000
0  -0.623933 0.030096 0.283867  -0.278562 0.685660 0.672513  0.158156 0.028269 1 1 1.000000
no_material
0  -0.623933 0.030096 0.283867  -0.278562 0.685660 0.672513  0.158156 0.028269 1 1 1.000000
0  -0.558631 0.030096 0.303676  -0.142003 0.685692 0.713906  0.203178 0.014612 1 1 1.000000
0  -0.490720 0.030096 0.310365  0.000002 0.685685 0.727899  0.250000 0.010000 1 1 1.000000
no_material
0  -0.490720 0.030096 0.310365  0.000002 0.685685 0.727899  0.250000 0.010000 1 1 1.000000
0  -0.422809 0.030096 0.303676  0.142007 0.685692 0.713905  0.296822 0.014612 1 1 1.000000
0  -0.357507 0.030096 0.283867  0.278559 0.685676 0.672497  0.341844 0.028269 1 1 1.000000
no_material
0  -0.357507 0.030096 0.283867  0.278559 0.685676 0.672497  0.341844 0.028269 1 1 1.000000
0  -0.297325 0.030096 0.251699  0.404396 0.685692 0.605219  0.383337 0.050447 1 1 1.000000
0  -0.244575 0.030096 0.208408  0.514703 0.685685 0.514701  0.419706 0.080294 1 1 1.000000
no_material
0  -0.244575 0.030096 0.208408  0.514703 0.685685 0.514701  0.419706 0.080294 1 1 1.000000
0  -0.201284 0.030096 0.155658  0.605221 0.685692 0.404394  0.449553 0.116663 1 1 1.000000
0  -0.169116 0.030096 0.095476  0.672492 0.685683 0.278554  0.471731 0.158156 1 1 1.000000
no_material
0  -0.169116 0.030096 0.095476  0.672492 0.685683 0.278554  0.471731 0.158156 1 1 1.000000
0  -0.149307 0.030096 0.030174  0.713906 0.685692 0.142003  0.485388 0.203178 1 1 1.000000
0  -0.142618 0.030096 -0.037737  0.727911 0.685671 -0.000002  0.490000 0.250000 1 1 1.000000
no_material
0  -0.142618 0.030096 -0.037737  0.727911 0.685671 -0.000002  0.490000 0.250000 1 1 1.000000
0  -0.149307 0.030096 -0.105648  0.713905 0.685692 -0.142007  0.485388 0.296822 1 1 1.000000
0  -0.169116 0.030096 -0.170950  0.672500 0.685673 -0.278560  0.471731 0.341844 1 1 1.000000
no_material
0  -0.169116 0.030096 -0.170950  0.672500 0.685673 -0.278560  0.471731 0.341844 1 1 1.000000
0  -0.201284 0.030096 -0.231132  0.605219 0.685692 -0.404396  0.449553 0.383337 1 1 1.000000
0  -0.244575 0.030096 -0.283882  0.514701 0.685685 -0.514703  0.419706 0.419706 1 1 1.000000
no_material
0  -0.244575 0.030096 -0.283882  0.514701 0.685685 -0.514703  0.419706 0.419706 1 1 1.000000
0  -0.297325 0.030096 -0.327173  0.404394 0.685692 -0.605221  0.383337 0.449553 1 1 1.000000
0  -0.357507 0.030096 -0.359341  0.278571 0.685635 -0.672535  0.341844 0.471731 1 1 1.000000
no_material
0  -0.357507 0.030096 -0.359341  0.278571 0.685635 -0.672535  0.341844 0.471731 1 1 1.000000
0  -0.490720 0.030096 -0.385839  -0.000002 0.685685 -0.727899  0.250000 0.490000 1 1 1.000000
0  -0.623933 0.030096 -0.359341  -0.278560 0.685674 -0.672500  0.158156 0.471731 1 1 1.000000
no_material
0  -0.623933 0.030096 -0.359341  -0.278560 0.685674 -0.672500  0.158156 0.471731 1 1 1.000000
0  -0.736865 0.030096 -0.283882  -0.514712 0.685672 -0.514710  0.080294 0.419706 1 1 1.000000
0  -0.357507 0.030096 -0.359341  0.278571 0.685635 -0.672535  0.341844 0.471731 1 1 1.000000
no_material
0  -0.736865 0.030096 -0.283882  -0.514712 0.685672 -0.514710  0.080294 0.419706 1 1 1.000000
0  -0.812324 0.030096 -0.170950  -0.672492 0.685684 -0.278554  0.028269 0.341844 1 1 1.000000
0  -0.357507 0.030096 -0.359341  0.278571 0.685635 -0.672535  0.341844 0.471731 1 1 1.000000
no_material
0  -0.812324 0.030096 -0.170950  -0.672492 0.685684 -0.278554  0.028269 0.341844 1 1 1.000000
0  -0.838822 0.030096 -0.037737  -0.727898 0.685685 0.000002  0.010000 0.250000 1 1 1.000000
0  -0.812324 0.030096 0.095476  -0.672497 0.685676 0.278560  0.028269 0.158156 1 1 1.000000
no_material
0  -0.812324 0.030096 0.095476  -0.672497 0.685676 0.278560  0.028269 0.158156 1 1 1.000000
0  -0.736865 0.030096 0.208408  -0.514700 0.685685 0.514703  0.080294 0.080294 1 1 1.000000
0  -0.623933 0.030096 0.283867  -0.278562 0.685660 0.672513  0.158156 0.028269 1 1 1.000000
no_material
0  -0.623933 0.030096 0.283867  -0.278562 0.685660 0.672513  0.158156 0.028269 1 1 1.000000
0  -0.490720 0.030096 0.310365  0.000002 0.685685 0.727899  0.250000 0.010000 1 1 1.000000
0  -0.357507 0.030096 0.283867  0.278559 0.685676 0.672497  0.341844 0.028269 1 1 1.000000
no_material
0  -0.357507 0.030096 0.283867  0.278559 0.685676 0.672497  0.341844 0.028269 1 1 1.000000
0  -0.244575 0.030096 0.208408  0.514703 0.685685 0.514701  0.419706 0.080294 1 1 1.000000
0  -0.169116 0.030096 0.095476  0.672492 0.685683 0.278554  0.471731 0.158156 1 1 1.000000
no_material
0  -0.169116 0.030096 0.095476  0.672492 0.685683 0.278554  0.471731 0.158156 1 1 1.000000
0  -0.142618 0.030096 -0.037737  0.727911 0.685671 -0.000002  0.490000 0.250000 1 1 1.000000
0  -0.357507 0.030096 -0.359341  0.278571 0.685635 -0.672535  0.341844 0.471731 1 1 1.000000
no_material
0  -0.142618 0.030096 -0.037737  0.727911 0.685671 -0.000002  0.490000 0.250000 1 1 1.000000
0  -0.169116 0.030096 -0.170950  0.672500 0.685673 -0.278560  0.471731 0.341844 1 1 1.000000
0  -0.357507 0.030096 -0.359341  0.278571 0.685635 -0.672535  0.341844 0.471731 1 1 1.000000
no_material
0  -0.169116 0.030096 -0.170950  0.672500 0.685673 -0.278560  0.471731 0.341844 1 1 1.000000
0  -0.244575 0.030096 -0.283882  0.514701 0.685685 -0.514703  0.419706 0.419706 1 1 1.000000
0  -0.357507 0.030096 -0.359341  0.278571 0.685635 -0.672535  0.341844 0.471731 1 1 1.000000
no_material
0  -0.812324 0.030096 -0.170950  -0.672492 0.685684 -0.278554  0.028269 0.341844 1 1 1.000000
0  -0.812324 0.030096 0.095476  -0.672497 0.685676 0.278560  0.028269 0.158156 1 1 1.000000
0  -0.357507 0.030096 -0.359341  0.278571 0.685635 -0.672535  0.341844 0.471731 1 1 1.000000
no_material
0  -0.812324 0.030096 0.095476  -0.672497 0.685676 0.278560  0.028269 0.158156 1 1 1.000000
0  -0.623933 0.030096 0.283867  -0.278562 0.685660 0.672513  0.158156 0.028269 1 1 1.000000
0  -0.357507 0.030096 -0.359341  0.278571 0.685635 -0.672535  0.341844 0.471731 1 1 1.000000
no_material
0  -0.623933 0.030096 0.283867  -0.278562 0.685660 0.672513  0.158156 0.028269 1 1 1.000000
0  -0.357507 0.030096 0.283867  0.278559 0.685676 0.672497  0.341844 0.028269 1 1 1.000000
0  -0.357507 0.030096 -0.359341  0.278571 0.685635 -0.672535  0.341844 0.471731 1 1 1.000000
no_material
0  -0.623933 -0.030096 -0.359341  -0.278550 -0.685692 -0.672485  0.062500 0.500000 1 1 1.000000
0  -0.623933 0.030096 -0.359341  -0.278560 0.685674 -0.672500  0.062500 1.000000 1 1 1.000000
0  -0.558631 0.030096 -0.379150  -0.142007 0.685692 -0.713905  0.031250 1.000000 1 1 1.000000
no_material
0  -0.558631 -0.030096 -0.379150  -0.142009 -0.685659 -0.713937  0.031250 0.500000 1 1 1.000000
0  -0.558631 0.030096 -0.379150  -0.142007 0.685692 -0.713905  0.031250 1.000000 1 1 1.000000
0  -0.490720 0.030096 -0.385839  -0.000002 0.685685 -0.727899  0.000000 1.000000 1 1 1.000000
no_material
0  -0.558631 -0.030096 -0.379150  -0.142009 -0.685659 -0.713937  0.703178 0.485388 1 1 1.000000
0  -0.490720 -0.030096 -0.385839  0.000002 -0.685692 -0.727892  0.750000 0.490000 1 1 1.000000
0  -0.422809 -0.030096 -0.379150  0.142007 -0.685689 -0.713908  0.796822 0.485388 1 1 1.000000
no_material
0  -0.422809 -0.030096 -0.379150  0.142007 -0.685689 -0.713908  0.796822 0.485388 1 1 1.000000
0  -0.357507 -0.030096 -0.359341  0.278556 -0.685686 -0.672489  0.841844 0.471731 1 1 1.000000
0  -0.558631 -0.030096 -0.379150  -0.142009 -0.685659 -0.713937  0.703178 0.485388 1 1 1.000000
no_material
0  -0.357507 -0.030096 -0.359341  0.278556 -0.685686 -0.672489  0.841844 0.471731 1 1 1.000000
0  -0.297325 -0.030096 -0.327173  0.404408 -0.685671 -0.605236  0.883337 0.449553 1 1 1.000000
0  -0.558631 -0.030096 -0.379150  -0.142009 -0.685659 -0.713937  0.703178 0.485388 1 1 1.000000
no_material
0  -0.297325 -0.030096 -0.327173  0.404408 -0.685671 -0.605236  0.883337 0.449553 1 1 1.000000
0  -0.244575 -0.030096 -0.283882  0.514703 -0.685686 -0.514700  0.919706 0.419706 1 1 1.000000
0  -0.149307 -0.030096 -0.105648  0.713923 -0.685673 -0.142006  0.985388 0.296822 1 1 1.000000
no_material
0  -0.244575 -0.030096 -0.283882  0.514703 -0.685686 -0.514700  0.919706 0.419706 1 1 1.000000
0  -0.201284 -0.030096 -0.231132  0.605223 -0.685689 -0.404395  0.949553 0.383337 1 1 1.000000
0  -0.149307 -0.030096 -0.105648  0.713923 -0.685673 -0.142006  0.985388 0.296822 1 1 1.000000
no_material
0  -0.201284 -0.030096 -0.231132  0.605223 -0.685689 -0.404395  0.949553 0.383337 1 1 1.000000
0  -0.169116 -0.030096 -0.170950  0.672485 -0.685692 -0.278550  0.971731 0.341844 1 1 1.000000
0  -0.149307 -0.030096 -0.105648  0.713923 -0.685673 -0.142006  0.985388 0.296822 1 1 1.000000
no_material
0  -0.149307 -0.030096 -0.105648  0.713923 -0.685673 -0.142006  0.985388 0.296822 1 1 1.000000
0  -0.142618 -0.030096 -0.037737  0.727892 -0.685692 0.000002  0.990000 0.250000 1 1 1.000000
0  -0.149307 -0.030096 0.030174  0.713924 -0.685672 0.142010  0.985388 0.203178 1 1 1.000000
no_material
0  -0.149307 -0.030096 0.030174  0.713924 -0.685672 0.142010  0.985388 0.203178 1 1 1.000000
0  -0.169116 -0.030096 0.095476  0.672484 -0.685692 0.278554  0.971731 0.158156 1 1 1.000000
0  -0.201284 -0.030096 0.155658  0.605231 -0.685676 0.404405  0.949553 0.116663 1 1 1.000000
no_material
0  -0.201284 -0.030096 0.155658  0.605231 -0.685676 0.404405  0.949553 0.116663 1 1 1.000000
0  -0.244575 -0.030096 0.208408  0.514700 -0.685686 0.514703  0.919706 0.080294 1 1 1.000000
0  -0.422809 -0.030096 0.303676  0.142009 -0.685659 0.713936  0.796822 0.014612 1 1 1.000000
no_material
0  -0.244575 -0.030096 0.208408  0.514700 -0.685686 0.514703  0.919706 0.080294 1 1 1.000000
0  -0.297325 -0.030096 0.251699  0.404395 -0.685689 0.605223  0.883337 0.050447 1 1 1.000000
0  -0.422809 -0.030096 0.303676  0.142009 -0.685659 0.713936  0.796822 0.014612 1 1 1.000000
no_material
0  -0.297325 -0.030096 0.251699  0.404395 -0.685689 0.605223  0.883337 0.050447 1 1 1.000000
0  -0.357507 -0.030096 0.283867  0.278550 -0.685692 0.672485  0.841844 0.028269 1 1 1.000000
0  -0.422809 -0.030096 0.303676  0.142009 -0.685659 0.713936  0.796822 0.014612 1 1 1.000000
no_material
0  -0.422809 -0.030096 0.303676  0.142009 -0.685659 0.713936  0.796822 0.014612 1 1 1.000000
0  -0.490720 -0.030096 0.310365  -0.000002 -0.685692 0.727892  0.750000 0.010000 1 1 1.000000
0  -0.558631 -0.030096 0.303676  -0.142008 -0.685685 0.713912  0.703178 0.014612 1 1 1.000000
no_material
0  -0.558631 -0.030096 0.303676  -0.142008 -0.685685 0.713912  0.703178 0.014612 1 1 1.000000
0  -0.623933 -0.030096 0.283867  -0.278554 -0.685692 0.672483  0.658156 0.028269 1 1 1.000000
0  -0.684115 -0.030096 0.251699  -0.404404 -0.685679 0.605229  0.616663 0.050447 1 1 1.000000
no_material
0  -0.684115 -0.030096 0.251699  -0.404404 -0.685679 0.605229  0.616663 0.050447 1 1 1.000000
0  -0.736865 -0.030096 0.208408  -0.514702 -0.685686 0.514700  0.580294 0.080294 1 1 1.000000
0  -0.832133 -0.030096 0.030174  -0.713923 -0.685674 0.142006  0.514612 0.203178 1 1 1.000000
no_material
0  -0.736865 -0.030096 0.208408  -0.514702 -0.685686 0.514700  0.580294 0.080294 1 1 1.000000
0  -0.780156 -0.030096 0.155658  -0.605223 -0.685689 0.404395  0.550447 0.116663 1 1 1.000000
0  -0.832133 -0.030096 0.030174  -0.713923 -0.685674 0.142006  0.514612 0.203178 1 1 1.000000
no_material
0  -0.780156 -0.030096 0.155658  -0.605223 -0.685689 0.404395  0.550447 0.116663 1 1 1.000000
0  -0.812324 -0.030096 0.095476  -0.672485 -0.685692 0.278550  0.528269 0.158156 1 1 1.000000
0  -0.832133 -0.030096 0.030174  -0.713923 -0.685674 0.142006  0.514612 0.203178 1 1 1.000000
no_material
0  -0.832133 -0.030096 0.030174  -0.713923 -0.685674 0.142006  0.514612 0.203178 1 1 1.000000
0  -0.838822 -0.030096 -0.037737  -0.727898 -0.685685 -0.000002  0.510000 0.250000 1 1 1.000000
0  -0.780156 -0.030096 -0.231132  -0.605238 -0.685667 -0.404410  0.550447 0.383337 1 1 1.000000
no_material
0  -0.838822 -0.030096 -0.037737  -0.727898 -0.685685 -0.000002  0.510000 0.250000 1 1 1.000000
0  -0.832133 -0.030096 -0.105648  -0.713908 -0.685689 -0.142007  0.514612 0.296822 1 1 1.000000
0  -0.780156 -0.030096 -0.231132  -0.605238 -0.685667 -0.404410  0.550447 0.383337 1 1 1.000000
no_material
0  -0.832133 -0.030096 -0.105648  -0.713908 -0.685689 -0.142007  0.514612 0.296822 1 1 1.000000
0  -0.812324 -0.030096 -0.170950  -0.672483 -0.685692 -0.278554  0.528269 0.341844 1 1 1.000000
0  -0.780156 -0.030096 -0.231132  -0.605238 -0.685667 -0.404410  0.550447 0.383337 1 1 1.000000
no_material
0  -0.780156 -0.030096 -0.231132  -0.605238 -0.685667 -0.404410  0.550447 0.383337 1 1 1.000000
0  -0.736865 -0.030096 -0.283882  -0.514700 -0.685686 -0.514702  0.580294 0.419706 1 1 1.000000
0  -0.558631 -0.030096 -0.379150  -0.142009 -0.685659 -0.713937  0.703178 0.485388 1 1 1.000000
no_material
0  -0.736865 -0.030096 -0.283882  -0.514700 -0.685686 -0.514702  0.580294 0.419706 1 1 1.000000
0  -0.684115 -0.030096 -0.327173  -0.404395 -0.685690 -0.605223  0.616663 0.449553 1 1 1.000000
0  -0.558631 -0.030096 -0.379150  -0.142009 -0.685659 -0.713937  0.703178 0.485388 1 1 1.000000
no_material
0  -0.684115 -0.030096 -0.327173  -0.404395 -0.685690 -0.605223  0.616663 0.449553 1 1 1.000000
0  -0.623933 -0.030096 -0.359341  -0.278550 -0.685692 -0.672485  0.658156 0.471731 1 1 1.000000
0  -0.558631 -0.030096 -0.379150  -0.142009 -0.685659 -0.713937  0.703178 0.485388 1 1 1.000000
no_material
0  -0.149307 -0.030096 -0.105648  0.713923 -0.685673 -0.142006  0.985388 0.296822 1 1 1.000000
0  -0.149307 -0.030096 0.030174  0.713924 -0.685672 0.142010  0.985388 0.203178 1 1 1.000000
0  -0.422809 -0.030096 0.303676  0.142009 -0.685659 0.713936  0.796822 0.014612 1 1 1.000000
no_material
0  -0.149307 -0.030096 0.030174  0.713924 -0.685672 0.142010  0.985388 0.203178 1 1 1.000000
0  -0.201284 -0.030096 0.155658  0.605231 -0.685676 0.404405  0.949553 0.116663 1 1 1.000000
0  -0.422809 -0.030096 0.303676  0.142009 -0.685659 0.713936  0.796822 0.014612 1 1 1.000000
no_material
0  -0.422809 -0.030096 0.303676  0.142009 -0.685659 0.713936  0.796822 0.014612 1 1 1.000000
0  -0.558631 -0.030096 0.303676  -0.142008 -0.685685 0.713912  0.703178 0.014612 1 1 1.000000
0  -0.684115 -0.030096 0.251699  -0.404404 -0.685679 0.605229  0.616663 0.050447 1 1 1.000000
no_material
0  -0.558631 -0.030096 -0.379150  -0.142009 -0.685659 -0.713937  0.703178 0.485388 1 1 1.000000
0  -0.297325 -0.030096 -0.327173  0.404408 -0.685671 -0.605236  0.883337 0.449553 1 1 1.000000
0  -0.149307 -0.030096 -0.105648  0.713923 -0.685673 -0.142006  0.985388 0.296822 1 1 1.000000
no_material
0  -0.422809 -0.030096 0.303676  0.142009 -0.685659 0.713936  0.796822 0.014612 1 1 1.000000
0  -0.684115 -0.030096 0.251699  -0.404404 -0.685679 0.605229  0.616663 0.050447 1 1 1.000000
0  -0.558631 -0.030096 -0.379150  -0.142009 -0.685659 -0.713937  0.703178 0.485388 1 1 1.000000
no_material
0  -0.684115 -0.030096 0.251699  -0.404404 -0.685679 0.605229  0.616663 0.050447 1 1 1.000000
0  -0.832133 -0.030096 0.030174  -0.713923 -0.685674 0.142006  0.514612 0.203178 1 1 1.000000
0  -0.558631 -0.030096 -0.379150  -0.142009 -0.685659 -0.713937  0.703178 0.485388 1 1 1.000000
no_material
0  -0.832133 -0.030096 0.030174  -0.713923 -0.685674 0.142006  0.514612 0.203178 1 1 1.000000
0  -0.780156 -0.030096 -0.231132  -0.605238 -0.685667 -0.404410  0.550447 0.383337 1 1 1.000000
0  -0.558631 -0.030096 -0.379150  -0.142009 -0.685659 -0.713937  0.703178 0.485388 1 1 1.000000
no_material
0  -0.598847 -0.051092 -0.181182  -0.674565 -0.561703 -0.479011  0.375000 0.000000 1 1 1.000000
0  -0.373947 -0.051092 0.463085  -0.464435 -0.597098 0.654044  0.625000 0.000000 1 1 1.000000
0  -0.373947 0.051092 0.463085  -0.464431 0.597107 0.654039  0.625000 0.250000 1 1 1.000000
no_material
0  -0.598847 0.051092 -0.181182  -0.674548 0.561728 -0.479006  0.375000 0.250000 1 1 1.000000
0  -0.373947 0.051092 0.463085  -0.464431 0.597107 0.654039  0.625000 0.250000 1 1 1.000000
0  0.390396 0.051092 0.463085  0.454707 0.598891 0.659220  0.625000 0.500000 1 1 1.000000
no_material
0  0.635219 0.051092 -0.181182  0.681652 0.560606 -0.470182  0.375000 0.500000 1 1 1.000000
0  0.390396 0.051092 0.463085  0.454707 0.598891 0.659220  0.625000 0.500000 1 1 1.000000
0  0.390396 -0.051092 0.463085  0.454703 -0.598898 0.659216  0.625000 0.750000 1 1 1.000000
no_material
0  0.635219 -0.051092 -0.181182  0.681634 -0.560631 -0.470178  0.375000 0.750000 1 1 1.000000
0  0.390396 -0.051092 0.463085  0.454703 -0.598898 0.659216  0.625000 0.750000 1 1 1.000000
0  -0.373947 -0.051092 0.463085  -0.464435 -0.597098 0.654044  0.625000 1.000000 1 1 1.000000
no_material
0  -0.598847 0.051092 -0.181182  -0.674548 0.561728 -0.479006  0.125000 0.500000 1 1 1.000000
0  0.635219 0.051092 -0.181182  0.681652 0.560606 -0.470182  0.375000 0.500000 1 1 1.000000
0  0.635219 -0.051092 -0.181182  0.681634 -0.560631 -0.470178  0.375000 0.750000 1 1 1.000000
no_material
0  0.390396 0.051092 0.463085  0.454707 0.598891 0.659220  0.625000 0.500000 1 1 1.000000
0  -0.373947 0.051092 0.463085  -0.464431 0.597107 0.654039  0.875000 0.500000 1 1 1.000000
0  -0.373947 -0.051092 0.463085  -0.464435 -0.597098 0.654044  0.875000 0.750000 1 1 1.000000
no_material
0  0.333411 0.328461 0.599851  0.577357 -0.577347 0.577347  0.375000 0.000000 1 1 1.000000
0  0.333411 0.328461 0.640884  0.577345 -0.577353 -0.577353  0.625000 0.000000 1 1 1.000000
0  0.333411 -0.328461 0.640884  0.577357 0.577347 -0.577347  0.625000 0.250000 1 1 1.000000
no_material
0  0.333411 -0.328461 0.599851  0.577345 0.577353 0.577353  0.375000 0.250000 1 1 1.000000
0  0.333411 -0.328461 0.640884  0.577357 0.577347 -0.577347  0.625000 0.250000 1 1 1.000000
0  0.394960 -0.328461 0.640884  -0.577345 0.577353 -0.577353  0.625000 0.500000 1 1 1.000000
no_material
0  0.394960 -0.328461 0.599851  -0.577357 0.577347 0.577347  0.375000 0.500000 1 1 1.000000
0  0.394960 -0.328461 0.640884  -0.577345 0.577353 -0.577353  0.625000 0.500000 1 1 1.000000
0  0.394960 0.328461 0.640884  -0.577357 -0.577347 -0.577347  0.625000 0.750000 1 1 1.000000
no_material
0  0.394960 0.328461 0.599851  -0.577345 -0.577353 0.577353  0.375000 0.750000 1 1 1.000000
0  0.394960 0.328461 0.640884  -0.577357 -0.577347 -0.577347  0.625000 0.750000 1 1 1.000000
0  0.333411 0.328461 0.640884  0.577345 -0.577353 -0.577353  0.625000 1.000000 1 1 1.000000
no_material
0  0.333411 -0.328461 0.599851  0.577345 0.577353 0.577353  0.125000 0.500000 1 1 1.000000
0  0.394960 -0.328461 0.599851  -0.577357 0.577347 0.577347  0.375000 0.500000 1 1 1.000000
0  0.394960 0.328461 0.599851  -0.577345 -0.577353 0.577353  0.375000 0.750000 1 1 1.000000
no_material
0  0.394960 -0.328461 0.640884  -0.577345 0.577353 -0.577353  0.625000 0.500000 1 1 1.000000
0  0.333411 -0.328461 0.640884  0.577357 0.577347 -0.577347  0.875000 0.500000 1 1 1.000000
0  0.333411 0.328461 0.640884  0.577345 -0.577353 -0.577353  0.875000 0.750000 1 1 1.000000
no_material
0  0.543937 -0.030096 -0.385839  0.000002 -0.685692 -0.727892  1.000000 0.500000 1 1 1.000000
0  0.543937 0.030096 -0.385839  -0.000002 0.685671 -0.727911  1.000000 1.000000 1 1 1.000000
0  0.611848 0.030096 -0.379150  0.142003 0.685692 -0.713906  0.968750 1.000000 1 1 1.000000
no_material
0  0.611848 -0.030096 -0.379150  0.142010 -0.685672 -0.713924  0.968750 0.500000 1 1 1.000000
0  0.611848 0.030096 -0.379150  0.142003 0.685692 -0.713906  0.968750 1.000000 1 1 1.000000
0  0.677150 0.030096 -0.359341  0.278555 0.685678 -0.672497  0.937500 1.000000 1 1 1.000000
no_material
0  0.677150 -0.030096 -0.359341  0.278554 -0.685692 -0.672484  0.937500 0.500000 1 1 1.000000
0  0.677150 0.030096 -0.359341  0.278555 0.685678 -0.672497  0.937500 1.000000 1 1 1.000000
0  0.737332 0.030096 -0.327173  0.404394 0.685692 -0.605220  0.906250 1.000000 1 1 1.000000
no_material
0  0.737332 -0.030096 -0.327173  0.404405 -0.685676 -0.605231  0.906250 0.500000 1 1 1.000000
0  0.737332 0.030096 -0.327173  0.404394 0.685692 -0.605220  0.906250 1.000000 1 1 1.000000
0  0.790082 0.030096 -0.283882  0.514701 0.685685 -0.514703  0.875000 1.000000 1 1 1.000000
no_material
0  0.790082 -0.030096 -0.283882  0.514703 -0.685686 -0.514700  0.875000 0.500000 1 1 1.000000
0  0.790082 0.030096 -0.283882  0.514701 0.685685 -0.514703  0.875000 1.000000 1 1 1.000000
0  0.833373 0.030096 -0.231132  0.605219 0.685692 -0.404396  0.843750 1.000000 1 1 1.000000
no_material
0  0.833373 -0.030096 -0.231132  0.605223 -0.685689 -0.404395  0.843750 0.500000 1 1 1.000000
0  0.833373 0.030096 -0.231132  0.605219 0.685692 -0.404396  0.843750 1.000000 1 1 1.000000
0  0.865541 0.030096 -0.170950  0.672498 0.685676 -0.278560  0.812500 1.000000 1 1 1.000000
no_material
0  0.865541 -0.030096 -0.170950  0.672485 -0.685692 -0.278550  0.812500 0.500000 1 1 1.000000
0  0.865541 0.030096 -0.170950  0.672498 0.685676 -0.278560  0.812500 1.000000 1 1 1.000000
0  0.885350 0.030096 -0.105648  0.713905 0.685692 -0.142007  0.781250 1.000000 1 1 1.000000
no_material
0  0.885350 -0.030096 -0.105648  0.713919 -0.685678 -0.142006  0.781250 0.500000 1 1 1.000000
0  0.885350 0.030096 -0.105648  0.713905 0.685692 -0.142007  0.781250 1.000000 1 1 1.000000
0  0.892039 0.030096 -0.037737  0.727894 0.685690 -0.000002  0.750000 1.000000 1 1 1.000000
no_material
0  0.892039 -0.030096 -0.037737  0.727892 -0.685692 0.000002  0.750000 0.500000 1 1 1.000000
0  0.892039 0.030096 -0.037737  0.727894 0.685690 -0.000002  0.750000 1.000000 1 1 1.000000
0  0.885350 0.030096 0.030174  0.713911 0.685686 0.142004  0.718750 1.000000 1 1 1.000000
no_material
0  0.885350 -0.030096 0.030174  0.713924 -0.685672 0.142010  0.718750 0.500000 1 1 1.000000
0  0.885350 0.030096 0.030174  0.713911 0.685686 0.142004  0.718750 1.000000 1 1 1.000000
0  0.865541 0.030096 0.095476  0.672500 0.685675 0.278556  0.687500 1.000000 1 1 1.000000
no_material
0  0.865541 -0.030096 0.095476  0.672484 -0.685692 0.278554  0.687500 0.500000 1 1 1.000000
0  0.865541 0.030096 0.095476  0.672500 0.685675 0.278556  0.687500 1.000000 1 1 1.000000
0  0.833373 0.030096 0.155658  0.605221 0.685692 0.404394  0.656250 1.000000 1 1 1.000000
no_material
0  0.833373 -0.030096 0.155658  0.605231 -0.685676 0.404405  0.656250 0.500000 1 1 1.000000
0  0.833373 0.030096 0.155658  0.605221 0.685692 0.404394  0.656250 1.000000 1 1 1.000000
0  0.790082 0.030096 0.208408  0.514703 0.685685 0.514700  0.625000 1.000000 1 1 1.000000
no_material
0  0.790082 -0.030096 0.208408  0.514700 -0.685686 0.514702  0.625000 0.500000 1 1 1.000000
0  0.790082 0.030096 0.208408  0.514703 0.685685 0.514700  0.625000 1.000000 1 1 1.000000
0  0.737332 0.030096 0.251699  0.404397 0.685692 0.605219  0.593750 1.000000 1 1 1.000000
no_material
0  0.737332 -0.030096 0.251699  0.404395 -0.685690 0.605223  0.593750 0.500000 1 1 1.000000
0  0.737332 0.030096 0.251699  0.404397 0.685692 0.605219  0.593750 1.000000 1 1 1.000000
0  0.677150 0.030096 0.283867  0.278564 0.685664 0.672508  0.562500 1.000000 1 1 1.000000
no_material
0  0.677150 -0.030096 0.283867  0.278551 -0.685692 0.672485  0.562500 0.500000 1 1 1.000000
0  0.677150 0.030096 0.283867  0.278564 0.685664 0.672508  0.562500 1.000000 1 1 1.000000
0  0.611848 0.030096 0.303676  0.142007 0.685692 0.713905  0.531250 1.000000 1 1 1.000000
no_material
0  0.611848 -0.030096 0.303676  0.142011 -0.685650 0.713945  0.531250 0.500000 1 1 1.000000
0  0.611848 0.030096 0.303676  0.142007 0.685692 0.713905  0.531250 1.000000 1 1 1.000000
0  0.543937 0.030096 0.310365  0.000002 0.685689 0.727894  0.500000 1.000000 1 1 1.000000
no_material
0  0.543937 -0.030096 0.310365  -0.000002 -0.685692 0.727892  0.500000 0.500000 1 1 1.000000
0  0.543937 0.030096 0.310365  0.000002 0.685689 0.727894  0.500000 1.000000 1 1 1.000000
0  0.476026 0.030096 0.303676  -0.142004 0.685686 0.713912  0.468750 1.000000 1 1 1.000000
no_material
0  0.476026 -0.030096 0.303676  -0.142008 -0.685685 0.713912  0.468750 0.500000 1 1 1.000000
0  0.476026 0.030096 0.303676  -0.142004 0.685686 0.713912  0.468750 1.000000 1 1 1.000000
0  0.410724 0.030096 0.283867  -0.278561 0.685662 0.672511  0.437500 1.000000 1 1 1.000000
no_material
0  0.410724 -0.030096 0.283867  -0.278554 -0.685692 0.672483  0.437500 0.500000 1 1 1.000000
0  0.410724 0.030096 0.283867  -0.278561 0.685662 0.672511  0.437500 1.000000 1 1 1.000000
0  0.350542 0.030096 0.251699  -0.404393 0.685692 0.605221  0.406250 1.000000 1 1 1.000000
no_material
0  0.350542 -0.030096 0.251699  -0.404406 -0.685673 0.605233  0.406250 0.500000 1 1 1.000000
0  0.350542 0.030096 0.251699  -0.404393 0.685692 0.605221  0.406250 1.000000 1 1 1.000000
0  0.297792 0.030096 0.208408  -0.514698 0.685690 0.514700  0.375000 1.000000 1 1 1.000000
no_material
0  0.297792 -0.030096 0.208408  -0.514699 -0.685692 0.514696  0.375000 0.500000 1 1 1.000000
0  0.297792 0.030096 0.208408  -0.514698 0.685690 0.514700  0.375000 1.000000 1 1 1.000000
0  0.254501 0.030096 0.155658  -0.605224 0.685686 0.404400  0.343750 1.000000 1 1 1.000000
no_material
0  0.254501 -0.030096 0.155658  -0.605237 -0.685672 0.404404  0.343750 0.500000 1 1 1.000000
0  0.254501 0.030096 0.155658  -0.605224 0.685686 0.404400  0.343750 1.000000 1 1 1.000000
0  0.222333 0.030096 0.095476  -0.672502 0.685671 0.278562  0.312500 1.000000 1 1 1.000000
no_material
0  0.222333 -0.030096 0.095476  -0.672485 -0.685692 0.278550  0.312500 0.500000 1 1 1.000000
0  0.222333 0.030096 0.095476  -0.672502 0.685671 0.278562  0.312500 1.000000 1 1 1.000000
0  0.202524 0.030096 0.030174  -0.713911 0.685686 0.142008  0.281250 1.000000 1 1 1.000000
no_material
0  0.202524 -0.030096 0.030174  -0.713912 -0.685685 0.142004  0.281250 0.500000 1 1 1.000000
0  0.202524 0.030096 0.030174  -0.713911 0.685686 0.142008  0.281250 1.000000 1 1 1.000000
0  0.195835 0.030096 -0.037737  -0.727894 0.685689 0.000002  0.250000 1.000000 1 1 1.000000
no_material
0  0.195835 -0.030096 -0.037737  -0.727892 -0.685692 -0.000002  0.250000 0.500000 1 1 1.000000
0  0.195835 0.030096 -0.037737  -0.727894 0.685689 0.000002  0.250000 1.000000 1 1 1.000000
0  0.202524 0.030096 -0.105648  -0.713906 0.685692 -0.142003  0.218750 1.000000 1 1 1.000000
no_material
0  0.202524 -0.030096 -0.105648  -0.713912 -0.685685 -0.142008  0.218750 0.500000 1 1 1.000000
0  0.202524 0.030096 -0.105648  -0.713906 0.685692 -0.142003  0.218750 1.000000 1 1 1.000000
0  0.222333 0.030096 -0.170950  -0.672514 0.685659 -0.278563  0.187500 1.000000 1 1 1.000000
no_material
0  0.222333 -0.030096 -0.170950  -0.672483 -0.685692 -0.278554  0.187500 0.500000 1 1 1.000000
0  0.222333 0.030096 -0.170950  -0.672514 0.685659 -0.278563  0.187500 1.000000 1 1 1.000000
0  0.254501 0.030096 -0.231132  -0.605226 0.685686 -0.404396  0.156250 1.000000 1 1 1.000000
no_material
0  0.254501 -0.030096 -0.231132  -0.605240 -0.685665 -0.404410  0.156250 0.500000 1 1 1.000000
0  0.254501 0.030096 -0.231132  -0.605226 0.685686 -0.404396  0.156250 1.000000 1 1 1.000000
0  0.297792 0.030096 -0.283882  -0.514700 0.685690 -0.514697  0.125000 1.000000 1 1 1.000000
no_material
0  0.297792 -0.030096 -0.283882  -0.514696 -0.685692 -0.514698  0.125000 0.500000 1 1 1.000000
0  0.297792 0.030096 -0.283882  -0.514700 0.685690 -0.514697  0.125000 1.000000 1 1 1.000000
0  0.350542 0.030096 -0.327173  -0.404397 0.685692 -0.605218  0.093750 1.000000 1 1 1.000000
no_material
0  0.350542 -0.030096 -0.327173  -0.404397 -0.685685 -0.605226  0.093750 0.500000 1 1 1.000000
0  0.350542 0.030096 -0.327173  -0.404397 0.685692 -0.605218  0.093750 1.000000 1 1 1.000000
0  0.410724 0.030096 -0.359341  -0.278561 0.685672 -0.672501  0.062500 1.000000 1 1 1.000000
no_material
0  0.677150 0.030096 -0.359341  0.278555 0.685678 -0.672497  0.341844 0.471731 1 1 1.000000
0  0.611848 0.030096 -0.379150  0.142003 0.685692 -0.713906  0.296822 0.485388 1 1 1.000000
0  0.543937 0.030096 -0.385839  -0.000002 0.685671 -0.727911  0.250000 0.490000 1 1 1.000000
no_material
0  0.543937 0.030096 -0.385839  -0.000002 0.685671 -0.727911  0.250000 0.490000 1 1 1.000000
0  0.476026 0.030096 -0.379150  -0.142007 0.685692 -0.713905  0.203178 0.485388 1 1 1.000000
0  0.410724 0.030096 -0.359341  -0.278561 0.685672 -0.672501  0.158156 0.471731 1 1 1.000000
no_material
0  0.410724 0.030096 -0.359341  -0.278561 0.685672 -0.672501  0.158156 0.471731 1 1 1.000000
0  0.350542 0.030096 -0.327173  -0.404397 0.685692 -0.605218  0.116663 0.449553 1 1 1.000000
0  0.297792 0.030096 -0.283882  -0.514700 0.685690 -0.514697  0.080294 0.419706 1 1 1.000000
no_material
0  0.297792 0.030096 -0.283882  -0.514700 0.685690 -0.514697  0.080294 0.419706 1 1 1.000000
0  0.254501 0.030096 -0.231132  -0.605226 0.685686 -0.404396  0.050447 0.383337 1 1 1.000000
0  0.410724 0.030096 -0.359341  -0.278561 0.685672 -0.672501  0.158156 0.471731 1 1 1.000000
no_material
0  0.254501 0.030096 -0.231132  -0.605226 0.685686 -0.404396  0.050447 0.383337 1 1 1.000000
0  0.222333 0.030096 -0.170950  -0.672514 0.685659 -0.278563  0.028269 0.341844 1 1 1.000000
0  0.410724 0.030096 -0.359341  -0.278561 0.685672 -0.672501  0.158156 0.471731 1 1 1.000000
no_material
0  0.222333 0.030096 -0.170950  -0.672514 0.685659 -0.278563  0.028269 0.341844 1 1 1.000000
0  0.202524 0.030096 -0.105648  -0.713906 0.685692 -0.142003  0.014612 0.296822 1 1 1.000000
0  0.195835 0.030096 -0.037737  -0.727894 0.685689 0.000002  0.010000 0.250000 1 1 1.000000
no_material
0  0.195835 0.030096 -0.037737  -0.727894 0.685689 0.000002  0.010000 0.250000 1 1 1.000000
0  0.202524 0.030096 0.030174  -0.713911 0.685686 0.142008  0.014612 0.203178 1 1 1.000000
0  0.222333 0.030096 -0.170950  -0.672514 0.685659 -0.278563  0.028269 0.341844 1 1 1.000000
no_material
0  0.202524 0.030096 0.030174  -0.713911 0.685686 0.142008  0.014612 0.203178 1 1 1.000000
0  0.222333 0.030096 0.095476  -0.672502 0.685671 0.278562  0.028269 0.158156 1 1 1.000000
0  0.222333 0.030096 -0.170950  -0.672514 0.685659 -0.278563  0.028269 0.341844 1 1 1.000000
no_material
0  0.222333 0.030096 0.095476  -0.672502 0.685671 0.278562  0.028269 0.158156 1 1 1.000000
0  0.254501 0.030096 0.155658  -0.605224 0.685686 0.404400  0.050447 0.116663 1 1 1.000000
0  0.410724 0.030096 0.283867  -0.278561 0.685662 0.672511  0.158156 0.028269 1 1 1.000000
no_material
0  0.254501 0.030096 0.155658  -0.605224 0.685686 0.404400  0.050447 0.116663 1 1 1.000000
0  0.297792 0.030096 0.208408  -0.514698 0.685690 0.514700  0.080294 0.080294 1 1 1.000000
0  0.410724 0.030096 0.283867  -0.278561 0.685662 0.672511  0.158156 0.028269 1 1 1.000000
no_material
0  0.297792 0.030096 0.208408  -0.514698 0.685690 0.514700  0.080294 0.080294 1 1 1.000000
0  0.350542 0.030096 0.251699  -0.404393 0.685692 0.605221  0.116663 0.050447 1 1 1.000000
0  0.410724 0.030096 0.283867  -0.278561 0.685662 0.672511  0.158156 0.028269 1 1 1.000000
no_material
0  0.410724 0.030096 0.283867  -0.278561 0.685662 0.672511  0.158156 0.028269 1 1 1.000000
0  0.476026 0.030096 0.303676  -0.142004 0.685686 0.713912  0.203178 0.014612 1 1 1.000000
0  0.677150 0.030096 0.283867  0.278564 0.685664 0.672508  0.341844 0.028269 1 1 1.000000
no_material
0  0.476026 0.030096 0.303676  -0.142004 0.685686 0.713912  0.203178 0.014612 1 1 1.000000
0  0.543937 0.030096 0.310365  0.000002 0.685689 0.727894  0.250000 0.010000 1 1 1.000000
0  0.677150 0.030096 0.283867  0.278564 0.685664 0.672508  0.341844 0.028269 1 1 1.000000
no_material
0  0.543937 0.030096 0.310365  0.000002 0.685689 0.727894  0.250000 0.010000 1 1 1.000000
0  0.611848 0.030096 0.303676  0.142007 0.685692 0.713905  0.296822 0.014612 1 1 1.000000
0  0.677150 0.030096 0.283867  0.278564 0.685664 0.672508  0.341844 0.028269 1 1 1.000000
no_material
0  0.677150 0.030096 0.283867  0.278564 0.685664 0.672508  0.341844 0.028269 1 1 1.000000
0  0.737332 0.030096 0.251699  0.404397 0.685692 0.605219  0.383337 0.050447 1 1 1.000000
0  0.790082 0.030096 0.208408  0.514703 0.685685 0.514700  0.419706 0.080294 1 1 1.000000
no_material
0  0.790082 0.030096 0.208408  0.514703 0.685685 0.514700  0.419706 0.080294 1 1 1.000000
0  0.833373 0.030096 0.155658  0.605221 0.685692 0.404394  0.449553 0.116663 1 1 1.000000
0  0.865541 0.030096 0.095476  0.672500 0.685675 0.278556  0.471731 0.158156 1 1 1.000000
no_material
0  0.865541 0.030096 0.095476  0.672500 0.685675 0.278556  0.471731 0.158156 1 1 1.000000
0  0.885350 0.030096 0.030174  0.713911 0.685686 0.142004  0.485388 0.203178 1 1 1.000000
0  0.865541 0.030096 -0.170950  0.672498 0.685676 -0.278560  0.471731 0.341844 1 1 1.000000
no_material
0  0.885350 0.030096 0.030174  0.713911 0.685686 0.142004  0.485388 0.203178 1 1 1.000000
0  0.892039 0.030096 -0.037737  0.727894 0.685690 -0.000002  0.490000 0.250000 1 1 1.000000
0  0.865541 0.030096 -0.170950  0.672498 0.685676 -0.278560  0.471731 0.341844 1 1 1.000000
no_material
0  0.892039 0.030096 -0.037737  0.727894 0.685690 -0.000002  0.490000 0.250000 1 1 1.000000
0  0.885350 0.030096 -0.105648  0.713905 0.685692 -0.142007  0.485388 0.296822 1 1 1.000000
0  0.865541 0.030096 -0.170950  0.672498 0.685676 -0.278560  0.471731 0.341844 1 1 1.000000
no_material
0  0.865541 0.030096 -0.170950  0.672498 0.685676 -0.278560  0.471731 0.341844 1 1 1.000000
0  0.833373 0.030096 -0.231132  0.605219 0.685692 -0.404396  0.449553 0.383337 1 1 1.000000
0  0.790082 0.030096 -0.283882  0.514701 0.685685 -0.514703  0.419706 0.419706 1 1 1.000000
no_material
0  0.790082 0.030096 -0.283882  0.514701 0.685685 -0.514703  0.419706 0.419706 1 1 1.000000
0  0.737332 0.030096 -0.327173  0.404394 0.685692 -0.605220  0.383337 0.449553 1 1 1.000000
0  0.677150 0.030096 -0.359341  0.278555 0.685678 -0.672497  0.341844 0.471731 1 1 1.000000
no_material
0  0.677150 0.030096 -0.359341  0.278555 0.685678 -0.672497  0.341844 0.471731 1 1 1.000000
0  0.543937 0.030096 -0.385839  -0.000002 0.685671 -0.727911  0.250000 0.490000 1 1 1.000000
0  0.222333 0.030096 -0.170950  -0.672514 0.685659 -0.278563  0.028269 0.341844 1 1 1.000000
no_material
0  0.543937 0.030096 -0.385839  -0.000002 0.685671 -0.727911  0.250000 0.490000 1 1 1.000000
0  0.410724 0.030096 -0.359341  -0.278561 0.685672 -0.672501  0.158156 0.471731 1 1 1.000000
0  0.222333 0.030096 -0.170950  -0.672514 0.685659 -0.278563  0.028269 0.341844 1 1 1.000000
no_material
0  0.677150 0.030096 0.283867  0.278564 0.685664 0.672508  0.341844 0.028269 1 1 1.000000
0  0.790082 0.030096 0.208408  0.514703 0.685685 0.514700  0.419706 0.080294 1 1 1.000000
0  0.865541 0.030096 0.095476  0.672500 0.685675 0.278556  0.471731 0.158156 1 1 1.000000
no_material
0  0.865541 0.030096 -0.170950  0.672498 0.685676 -0.278560  0.471731 0.341844 1 1 1.000000
0  0.790082 0.030096 -0.283882  0.514701 0.685685 -0.514703  0.419706 0.419706 1 1 1.000000
0  0.677150 0.030096 -0.359341  0.278555 0.685678 -0.672497  0.341844 0.471731 1 1 1.000000
no_material
0  0.222333 0.030096 -0.170950  -0.672514 0.685659 -0.278563  0.028269 0.341844 1 1 1.000000
0  0.222333 0.030096 0.095476  -0.672502 0.685671 0.278562  0.028269 0.158156 1 1 1.000000
0  0.410724 0.030096 0.283867  -0.278561 0.685662 0.672511  0.158156 0.028269 1 1 1.000000
no_material
0  0.410724 0.030096 0.283867  -0.278561 0.685662 0.672511  0.158156 0.028269 1 1 1.000000
0  0.677150 0.030096 0.283867  0.278564 0.685664 0.672508  0.341844 0.028269 1 1 1.000000
0  0.865541 0.030096 0.095476  0.672500 0.685675 0.278556  0.471731 0.158156 1 1 1.000000
no_material
0  0.865541 0.030096 0.095476  0.672500 0.685675 0.278556  0.471731 0.158156 1 1 1.000000
0  0.865541 0.030096 -0.170950  0.672498 0.685676 -0.278560  0.471731 0.341844 1 1 1.000000
0  0.410724 0.030096 0.283867  -0.278561 0.685662 0.672511  0.158156 0.028269 1 1 1.000000
no_material
0  0.865541 0.030096 -0.170950  0.672498 0.685676 -0.278560  0.471731 0.341844 1 1 1.000000
0  0.677150 0.030096 -0.359341  0.278555 0.685678 -0.672497  0.341844 0.471731 1 1 1.000000
0  0.410724 0.030096 0.283867  -0.278561 0.685662 0.672511  0.158156 0.028269 1 1 1.000000
no_material
0  0.410724 -0.030096 -0.359341  -0.278550 -0.685692 -0.672485  0.062500 0.500000 1 1 1.000000
0  0.410724 0.030096 -0.359341  -0.278561 0.685672 -0.672501  0.062500 1.000000 1 1 1.000000
0  0.476026 0.030096 -0.379150  -0.142007 0.685692 -0.713905  0.031250 1.000000 1 1 1.000000
no_material
0  0.476026 -0.030096 -0.379150  -0.142006 -0.685674 -0.713923  0.031250 0.500000 1 1 1.000000
0  0.476026 0.030096 -0.379150  -0.142007 0.685692 -0.713905  0.031250 1.000000 1 1 1.000000
0  0.543937 0.030096 -0.385839  -0.000002 0.685671 -0.727911  0.000000 1.000000 1 1 1.000000
no_material
0  0.476026 -0.030096 -0.379150  -0.142006 -0.685674 -0.713923  0.703178 0.485388 1 1 1.000000
0  0.543937 -0.030096 -0.385839  0.000002 -0.685692 -0.727892  0.750000 0.490000 1 1 1.000000
0  0.611848 -0.030096 -0.379150  0.142010 -0.685672 -0.713924  0.796822 0.485388 1 1 1.000000
no_material
0  0.611848 -0.030096 -0.379150  0.142010 -0.685672 -0.713924  0.796822 0.485388 1 1 1.000000
0  0.677150 -0.030096 -0.359341  0.278554 -0.685692 -0.672484  0.841844 0.471731 1 1 1.000000
0  0.737332 -0.030096 -0.327173  0.404405 -0.685676 -0.605231  0.883337 0.449553 1 1 1.000000
no_material
0  0.737332 -0.030096 -0.327173  0.404405 -0.685676 -0.605231  0.883337 0.449553 1 1 1.000000
0  0.790082 -0.030096 -0.283882  0.514703 -0.685686 -0.514700  0.919706 0.419706 1 1 1.000000
0  0.885350 -0.030096 -0.105648  0.713919 -0.685678 -0.142006  0.985388 0.296822 1 1 1.000000
no_material
0  0.790082 -0.030096 -0.283882  0.514703 -0.685686 -0.514700  0.919706 0.419706 1 1 1.000000
0  0.833373 -0.030096 -0.231132  0.605223 -0.685689 -0.404395  0.949553 0.383337 1 1 1.000000
0  0.885350 -0.030096 -0.105648  0.713919 -0.685678 -0.142006  0.985388 0.296822 1 1 1.000000
no_material
0  0.833373 -0.030096 -0.231132  0.605223 -0.685689 -0.404395  0.949553 0.383337 1 1 1.000000
0  0.865541 -0.030096 -0.170950  0.672485 -0.685692 -0.278550  0.971731 0.341844 1 1 1.000000
0  0.885350 -0.030096 -0.105648  0.713919 -0.685678 -0.142006  0.985388 0.296822 1 1 1.000000
no_material
0  0.885350 -0.030096 -0.105648  0.713919 -0.685678 -0.142006  0.985388 0.296822 1 1 1.000000
0  0.892039 -0.030096 -0.037737  0.727892 -0.685692 0.000002  0.990000 0.250000 1 1 1.000000
0  0.885350 -0.030096 0.030174  0.713924 -0.685672 0.142010  0.985388 0.203178 1 1 1.000000
no_material
0  0.885350 -0.030096 0.030174  0.713924 -0.685672 0.142010  0.985388 0.203178 1 1 1.000000
0  0.865541 -0.030096 0.095476  0.672484 -0.685692 0.278554  0.971731 0.158156 1 1 1.000000
0  0.833373 -0.030096 0.155658  0.605231 -0.685676 0.404405  0.949553 0.116663 1 1 1.000000
no_material
0  0.833373 -0.030096 0.155658  0.605231 -0.685676 0.404405  0.949553 0.116663 1 1 1.000000
0  0.790082 -0.030096 0.208408  0.514700 -0.685686 0.514702  0.919706 0.080294 1 1 1.000000
0  0.611848 -0.030096 0.303676  0.142011 -0.685650 0.713945  0.796822 0.014612 1 1 1.000000
no_material
0  0.790082 -0.030096 0.208408  0.514700 -0.685686 0.514702  0.919706 0.080294 1 1 1.000000
0  0.737332 -0.030096 0.251699  0.404395 -0.685690 0.605223  0.883337 0.050447 1 1 1.000000
0  0.611848 -0.030096 0.303676  0.142011 -0.685650 0.713945  0.796822 0.014612 1 1 1.000000
no_material
0  0.737332 -0.030096 0.251699  0.404395 -0.685690 0.605223  0.883337 0.050447 1 1 1.000000
0  0.677150 -0.030096 0.283867  0.278551 -0.685692 0.672485  0.841844 0.028269 1 1 1.000000
0  0.611848 -0.030096 0.303676  0.142011 -0.685650 0.713945  0.796822 0.014612 1 1 1.000000
no_material
0  0.611848 -0.030096 0.303676  0.142011 -0.685650 0.713945  0.796822 0.014612 1 1 1.000000
0  0.543937 -0.030096 0.310365  -0.000002 -0.685692 0.727892  0.750000 0.010000 1 1 1.000000
0  0.476026 -0.030096 0.303676  -0.142008 -0.685685 0.713912  0.703178 0.014612 1 1 1.000000
no_material
0  0.476026 -0.030096 0.303676  -0.142008 -0.685685 0.713912  0.703178 0.014612 1 1 1.000000
0  0.410724 -0.030096 0.283867  -0.278554 -0.685692 0.672483  0.658156 0.028269 1 1 1.000000
0  0.350542 -0.030096 0.251699  -0.404406 -0.685673 0.605233  0.616663 0.050447 1 1 1.000000
no_material
0  0.350542 -0.030096 0.251699  -0.404406 -0.685673 0.605233  0.616663 0.050447 1 1 1.000000
0  0.297792 -0.030096 0.208408  -0.514699 -0.685692 0.514696  0.580294 0.080294 1 1 1.000000
0  0.254501 -0.030096 0.155658  -0.605237 -0.685672 0.404404  0.550447 0.116663 1 1 1.000000
no_material
0  0.254501 -0.030096 0.155658  -0.605237 -0.685672 0.404404  0.550447 0.116663 1 1 1.000000
0  0.222333 -0.030096 0.095476  -0.672485 -0.685692 0.278550  0.528269 0.158156 1 1 1.000000
0  0.202524 -0.030096 0.030174  -0.713912 -0.685685 0.142004  0.514612 0.203178 1 1 1.000000
no_material
0  0.202524 -0.030096 0.030174  -0.713912 -0.685685 0.142004  0.514612 0.203178 1 1 1.000000
0  0.195835 -0.030096 -0.037737  -0.727892 -0.685692 -0.000002  0.510000 0.250000 1 1 1.000000
0  0.202524 -0.030096 -0.105648  -0.713912 -0.685685 -0.142008  0.514612 0.296822 1 1 1.000000
no_material
0  0.202524 -0.030096 -0.105648  -0.713912 -0.685685 -0.142008  0.514612 0.296822 1 1 1.000000
0  0.222333 -0.030096 -0.170950  -0.672483 -0.685692 -0.278554  0.528269 0.341844 1 1 1.000000
0  0.254501 -0.030096 -0.231132  -0.605240 -0.685665 -0.404410  0.550447 0.383337 1 1 1.000000
no_material
0  0.254501 -0.030096 -0.231132  -0.605240 -0.685665 -0.404410  0.550447 0.383337 1 1 1.000000
0  0.297792 -0.030096 -0.283882  -0.514696 -0.685692 -0.514698  0.580294 0.419706 1 1 1.000000
0  0.350542 -0.030096 -0.327173  -0.404397 -0.685685 -0.605226  0.616663 0.449553 1 1 1.000000
no_material
0  0.350542 -0.030096 -0.327173  -0.404397 -0.685685 -0.605226  0.616663 0.449553 1 1 1.000000
0  0.410724 -0.030096 -0.359341  -0.278550 -0.685692 -0.672485  0.658156 0.471731 1 1 1.000000
0  0.476026 -0.030096 -0.379150  -0.142006 -0.685674 -0.713923  0.703178 0.485388 1 1 1.000000
no_material
0  0.476026 -0.030096 -0.379150  -0.142006 -0.685674 -0.713923  0.703178 0.485388 1 1 1.000000
0  0.611848 -0.030096 -0.379150  0.142010 -0.685672 -0.713924  0.796822 0.485388 1 1 1.000000
0  0.885350 -0.030096 -0.105648  0.713919 -0.685678 -0.142006  0.985388 0.296822 1 1 1.000000
no_material
0  0.611848 -0.030096 -0.379150  0.142010 -0.685672 -0.713924  0.796822 0.485388 1 1 1.000000
0  0.737332 -0.030096 -0.327173  0.404405 -0.685676 -0.605231  0.883337 0.449553 1 1 1.000000
0  0.885350 -0.030096 -0.105648  0.713919 -0.685678 -0.142006  0.985388 0.296822 1 1 1.000000
no_material
0  0.885350 -0.030096 -0.105648  0.713919 -0.685678 -0.142006  0.985388 0.296822 1 1 1.000000
0  0.885350 -0.030096 0.030174  0.713924 -0.685672 0.142010  0.985388 0.203178 1 1 1.000000
0  0.611848 -0.030096 0.303676  0.142011 -0.685650 0.713945  0.796822 0.014612 1 1 1.000000
no_material
0  0.885350 -0.030096 0.030174  0.713924 -0.685672 0.142010  0.985388 0.203178 1 1 1.000000
0  0.833373 -0.030096 0.155658  0.605231 -0.685676 0.404405  0.949553 0.116663 1 1 1.000000
0  0.611848 -0.030096 0.303676  0.142011 -0.685650 0.713945  0.796822 0.014612 1 1 1.000000
no_material
0  0.611848 -0.030096 0.303676  0.142011 -0.685650 0.713945  0.796822 0.014612 1 1 1.000000
0  0.476026 -0.030096 0.303676  -0.142008 -0.685685 0.713912  0.703178 0.014612 1 1 1.000000
0  0.350542 -0.030096 0.251699  -0.404406 -0.685673 0.605233  0.616663 0.050447 1 1 1.000000
no_material
0  0.350542 -0.030096 0.251699  -0.404406 -0.685673 0.605233  0.616663 0.050447 1 1 1.000000
0  0.254501 -0.030096 0.155658  -0.605237 -0.685672 0.404404  0.550447 0.116663 1 1 1.000000
0  0.611848 -0.030096 0.303676  0.142011 -0.685650 0.713945  0.796822 0.014612 1 1 1.000000
no_material
0  0.254501 -0.030096 0.155658  -0.605237 -0.685672 0.404404  0.550447 0.116663 1 1 1.000000
0  0.202524 -0.030096 0.030174  -0.713912 -0.685685 0.142004  0.514612 0.203178 1 1 1.000000
0  0.611848 -0.030096 0.303676  0.142011 -0.685650 0.713945  0.796822 0.014612 1 1 1.000000
no_material
0  0.202524 -0.030096 0.030174  -0.713912 -0.685685 0.142004  0.514612 0.203178 1 1 1.000000
0  0.202524 -0.030096 -0.105648  -0.713912 -0.685685 -0.142008  0.514612 0.296822 1 1 1.000000
0  0.254501 -0.030096 -0.231132  -0.605240 -0.685665 -0.404410  0.550447 0.383337 1 1 1.000000
no_material
0  0.254501 -0.030096 -0.231132  -0.605240 -0.685665 -0.404410  0.550447 0.383337 1 1 1.000000
0  0.350542 -0.030096 -0.327173  -0.404397 -0.685685 -0.605226  0.616663 0.449553 1 1 1.000000
0  0.476026 -0.030096 -0.379150  -0.142006 -0.685674 -0.713923  0.703178 0.485388 1 1 1.000000
no_material
0  0.202524 -0.030096 0.030174  -0.713912 -0.685685 0.142004  0.514612 0.203178 1 1 1.000000
0  0.254501 -0.030096 -0.231132  -0.605240 -0.685665 -0.404410  0.550447 0.383337 1 1 1.000000
0  0.476026 -0.030096 -0.379150  -0.142006 -0.685674 -0.713923  0.703178 0.485388 1 1 1.000000
no_material
0  0.476026 -0.030096 -0.379150  -0.142006 -0.685674 -0.713923  0.703178 0.485388 1 1 1.000000
0  0.885350 -0.030096 -0.105648  0.713919 -0.685678 -0.142006  0.985388 0.296822 1 1 1.000000
0  0.202524 -0.030096 0.030174  -0.713912 -0.685685 0.142004  0.514612 0.203178 1 1 1.000000
end
