version 1
nodes
0 "blender_implicit" -1
1 "frame" -1
2 "fork" 1
3 "wheel_front" 2
4 "att_grip_L" 2
5 "att_grip_R" 2
6 "wheel_rear" 1
7 "crank" 1
8 "pedal_L" 7
9 "pedal_R" 7
10 "att_seat" 1
end
skeleton
time 0
0  0 0 0  0 0 0
1  0.000000 0.000000 0.000000  1.570796 -0.000000 0.000000
2  0.294780 0.141618 -0.000084  -0.000000 0.339149 0.339149
3  0.036240 -0.326427 0.012874  -1.453966 -0.319124 -0.357972
4  0.126555 0.469449 -0.237611  0.116830 -0.319124 -0.357972
5  -0.050609 0.469449 0.264582  0.116830 -0.319124 -0.357972
6  -0.498483 -0.153427 0.000000  -1.570796 -0.000000 0.000000
7  -0.103931 -0.125895 0.000000  -1.570796 -0.000000 0.000000
8  0.174229 0.078501 -0.000000  0.000000 -0.000000 0.000000
9  -0.175531 -0.079473 0.000000  0.000000 -0.000000 0.000000
10  -0.270862 0.300519 0.000000  0.000000 -0.000000 0.000000
end
triangles
no_material
0  -0.498483 -0.020959 -0.412644  0.000001 -0.685696 -0.727888  1.000000 0.500000 1 1 1.000000
0  -0.447912 0.016564 -0.407664  0.142003 0.685696 -0.713902  0.968750 1.000000 1 1 1.000000
0  -0.447912 -0.020959 -0.407664  0.142006 -0.685693 -0.713904  0.968750 0.500000 1 1 1.000000
no_material
0  -0.447912 -0.020959 -0.407664  0.142006 -0.685693 -0.713904  0.968750 0.500000 1 1 1.000000
0  -0.399285 0.016564 -0.392913  0.278563 0.685657 -0.672515  0.937500 1.000000 1 1 1.000000
0  -0.399285 -0.020959 -0.392913  0.278554 -0.685690 -0.672486  0.937500 0.500000 1 1 1.000000
no_material
0  -0.399285 -0.020959 -0.392913  0.278554 -0.685690 -0.672486  0.937500 0.500000 1 1 1.000000
0  -0.354470 0.016564 -0.368958  0.404392 0.685696 -0.605217  0.906250 1.000000 1 1 1.000000
0  -0.354470 -0.020959 -0.368958  0.404400 -0.685685 -0.605224  0.906250 0.500000 1 1 1.000000
no_material
0  -0.354470 -0.020959 -0.368958  0.404400 -0.685685 -0.605224  0.906250 0.500000 1 1 1.000000
0  -0.315189 0.016564 -0.336721  0.514699 0.685689 -0.514700  0.875000 1.000000 1 1 1.000000
0  -0.315189 -0.020959 -0.336721  0.514699 -0.685690 -0.514698  0.875000 0.500000 1 1 1.000000
no_material
0  -0.315189 -0.020959 -0.336721  0.514699 -0.685690 -0.514698  0.875000 0.500000 1 1 1.000000
0  -0.282952 0.016564 -0.297441  0.605216 0.685696 -0.404394  0.843750 1.000000 1 1 1.000000
0  -0.282952 -0.020959 -0.297441  0.605220 -0.685693 -0.404393  0.843750 0.500000 1 1 1.000000
no_material
0  -0.282952 -0.020959 -0.297441  0.605220 -0.685693 -0.404393  0.843750 0.500000 1 1 1.000000
0  -0.258998 0.016564 -0.252625  0.672494 0.685680 -0.278558  0.812500 1.000000 1 1 1.000000
0  -0.258998 -0.020959 -0.252625  0.672481 -0.685696 -0.278550  0.812500 0.500000 1 1 1.000000
no_material
0  -0.258998 -0.020959 -0.252625  0.672481 -0.685696 -0.278550  0.812500 0.500000 1 1 1.000000
0  -0.244247 0.016564 -0.203998  0.713902 0.685696 -0.142005  0.781250 1.000000 1 1 1.000000
0  -0.244247 -0.020959 -0.203998  0.713922 -0.685674 -0.142007  0.781250 0.500000 1 1 1.000000
no_material
0  -0.244247 -0.020959 -0.203998  0.713922 -0.685674 -0.142007  0.781250 0.500000 1 1 1.000000
0  -0.239266 0.016564 -0.153427  0.727895 0.685689 -0.000001  0.750000 1.000000 1 1 1.000000
0  -0.239266 -0.020959 -0.153427  0.727888 -0.685696 0.000001  0.750000 0.500000 1 1 1.000000
no_material
0  -0.239266 -0.020959 -0.153427  0.727888 -0.685696 0.000001  0.750000 0.500000 1 1 1.000000
0  -0.244247 0.016564 -0.102857  0.713902 0.685696 0.142003  0.718750 1.000000 1 1 1.000000
0  -0.244247 -0.020959 -0.102857  0.713904 -0.685693 0.142006  0.718750 0.500000 1 1 1.000000
no_material
0  -0.244247 -0.020959 -0.102857  0.713904 -0.685693 0.142006  0.718750 0.500000 1 1 1.000000
0  -0.258998 0.016564 -0.054229  0.672489 0.685688 0.278553  0.687500 1.000000 1 1 1.000000
0  -0.258998 -0.020959 -0.054229  0.672486 -0.685690 0.278554  0.687500 0.500000 1 1 1.000000
no_material
0  -0.258998 -0.020959 -0.054229  0.672486 -0.685690 0.278554  0.687500 0.500000 1 1 1.000000
0  -0.282952 0.016564 -0.009414  0.605217 0.685696 0.404392  0.656250 1.000000 1 1 1.000000
0  -0.282952 -0.020959 -0.009414  0.605233 -0.685674 0.404405  0.656250 0.500000 1 1 1.000000
no_material
0  -0.282952 -0.020959 -0.009414  0.605233 -0.685674 0.404405  0.656250 0.500000 1 1 1.000000
0  -0.315189 0.016564 0.029867  0.514709 0.685675 0.514708  0.625000 1.000000 1 1 1.000000
0  -0.315189 -0.020959 0.029867  0.514698 -0.685690 0.514699  0.625000 0.500000 1 1 1.000000
no_material
0  -0.315189 -0.020959 0.029867  0.514698 -0.685690 0.514699  0.625000 0.500000 1 1 1.000000
0  -0.354470 0.016564 0.062103  0.404394 0.685696 0.605216  0.593750 1.000000 1 1 1.000000
0  -0.354470 -0.020959 0.062103  0.404393 -0.685693 0.605219  0.593750 0.500000 1 1 1.000000
no_material
0  -0.354470 -0.020959 0.062103  0.404393 -0.685693 0.605219  0.593750 0.500000 1 1 1.000000
0  -0.399285 0.016564 0.086058  0.278558 0.685677 0.672497  0.562500 1.000000 1 1 1.000000
0  -0.399285 -0.020959 0.086058  0.278550 -0.685696 0.672481  0.562500 0.500000 1 1 1.000000
no_material
0  -0.399285 -0.020959 0.086058  0.278550 -0.685696 0.672481  0.562500 0.500000 1 1 1.000000
0  -0.447912 0.016564 0.100809  0.142005 0.685696 0.713901  0.531250 1.000000 1 1 1.000000
0  -0.447912 -0.020959 0.100809  0.142010 -0.685656 0.713939  0.531250 0.500000 1 1 1.000000
no_material
0  -0.447912 -0.020959 0.100809  0.142010 -0.685656 0.713939  0.531250 0.500000 1 1 1.000000
0  -0.498483 0.016564 0.105789  0.000001 0.685689 0.727895  0.500000 1.000000 1 1 1.000000
0  -0.498483 -0.020959 0.105789  -0.000001 -0.685696 0.727888  0.500000 0.500000 1 1 1.000000
no_material
0  -0.498483 -0.020959 0.105789  -0.000001 -0.685696 0.727888  0.500000 0.500000 1 1 1.000000
0  -0.549053 0.016564 0.100809  -0.142003 0.685696 0.713902  0.468750 1.000000 1 1 1.000000
0  -0.549053 -0.020959 0.100809  -0.142005 -0.685693 0.713904  0.468750 0.500000 1 1 1.000000
no_material
0  -0.549053 -0.020959 0.100809  -0.142005 -0.685693 0.713904  0.468750 0.500000 1 1 1.000000
0  -0.597681 0.016564 0.086058  -0.278566 0.685650 0.672521  0.437500 1.000000 1 1 1.000000
0  -0.597681 -0.020959 0.086058  -0.278554 -0.685690 0.672486  0.437500 0.500000 1 1 1.000000
no_material
0  -0.597681 -0.020959 0.086058  -0.278554 -0.685690 0.672486  0.437500 0.500000 1 1 1.000000
0  -0.642496 0.016564 0.062103  -0.404392 0.685696 0.605217  0.406250 1.000000 1 1 1.000000
0  -0.642496 -0.020959 0.062103  -0.404402 -0.685680 0.605229  0.406250 0.500000 1 1 1.000000
no_material
0  -0.642496 -0.020959 0.062103  -0.404402 -0.685680 0.605229  0.406250 0.500000 1 1 1.000000
0  -0.681777 0.016564 0.029867  -0.514696 0.685693 0.514697  0.375000 1.000000 1 1 1.000000
0  -0.681777 -0.020959 0.029867  -0.514696 -0.685696 0.514693  0.375000 0.500000 1 1 1.000000
no_material
0  -0.681777 -0.020959 0.029867  -0.514696 -0.685696 0.514693  0.375000 0.500000 1 1 1.000000
0  -0.714014 0.016564 -0.009414  -0.605221 0.685690 0.404397  0.343750 1.000000 1 1 1.000000
0  -0.714014 -0.020959 -0.009414  -0.605234 -0.685676 0.404403  0.343750 0.500000 1 1 1.000000
no_material
0  -0.714014 -0.020959 -0.009414  -0.605234 -0.685676 0.404403  0.343750 0.500000 1 1 1.000000
0  -0.737968 0.016564 -0.054229  -0.672492 0.685683 0.278557  0.312500 1.000000 1 1 1.000000
0  -0.737968 -0.020959 -0.054229  -0.672481 -0.685696 0.278550  0.312500 0.500000 1 1 1.000000
no_material
0  -0.737968 -0.020959 -0.054229  -0.672481 -0.685696 0.278550  0.312500 0.500000 1 1 1.000000
0  -0.752719 0.016564 -0.102857  -0.713902 0.685696 0.142005  0.281250 1.000000 1 1 1.000000
0  -0.752719 -0.020959 -0.102857  -0.713916 -0.685681 0.142006  0.281250 0.500000 1 1 1.000000
no_material
0  -0.752719 -0.020959 -0.102857  -0.713916 -0.685681 0.142006  0.281250 0.500000 1 1 1.000000
0  -0.757699 0.016564 -0.153427  -0.727895 0.685689 0.000001  0.250000 1.000000 1 1 1.000000
0  -0.757699 -0.020959 -0.153427  -0.727894 -0.685690 -0.000001  0.250000 0.500000 1 1 1.000000
no_material
0  -0.757699 -0.020959 -0.153427  -0.727894 -0.685690 -0.000001  0.250000 0.500000 1 1 1.000000
0  -0.752719 0.016564 -0.203998  -0.713902 0.685696 -0.142003  0.218750 1.000000 1 1 1.000000
0  -0.752719 -0.020959 -0.203998  -0.713904 -0.685693 -0.142005  0.218750 0.500000 1 1 1.000000
no_material
0  -0.752719 -0.020959 -0.203998  -0.713904 -0.685693 -0.142005  0.218750 0.500000 1 1 1.000000
0  -0.737968 0.016564 -0.252625  -0.672499 0.685676 -0.278557  0.187500 1.000000 1 1 1.000000
0  -0.737968 -0.020959 -0.252625  -0.672480 -0.685696 -0.278552  0.187500 0.500000 1 1 1.000000
no_material
0  -0.737968 -0.020959 -0.252625  -0.672480 -0.685696 -0.278552  0.187500 0.500000 1 1 1.000000
0  -0.714014 0.016564 -0.297441  -0.605217 0.685696 -0.404392  0.156250 1.000000 1 1 1.000000
0  -0.714014 -0.020959 -0.297441  -0.605239 -0.685667 -0.404409  0.156250 0.500000 1 1 1.000000
no_material
0  -0.714014 -0.020959 -0.297441  -0.605239 -0.685667 -0.404409  0.156250 0.500000 1 1 1.000000
0  -0.681777 0.016564 -0.336721  -0.514700 0.685689 -0.514699  0.125000 1.000000 1 1 1.000000
0  -0.681777 -0.020959 -0.336721  -0.514694 -0.685696 -0.514695  0.125000 0.500000 1 1 1.000000
no_material
0  -0.681777 -0.020959 -0.336721  -0.514694 -0.685696 -0.514695  0.125000 0.500000 1 1 1.000000
0  -0.642496 0.016564 -0.368958  -0.404394 0.685696 -0.605216  0.093750 1.000000 1 1 1.000000
0  -0.642496 -0.020959 -0.368958  -0.404394 -0.685693 -0.605220  0.093750 0.500000 1 1 1.000000
no_material
0  -0.642496 -0.020959 -0.368958  -0.404394 -0.685693 -0.605220  0.093750 0.500000 1 1 1.000000
0  -0.597681 0.016564 -0.392913  -0.278561 0.685669 -0.672504  0.062500 1.000000 1 1 1.000000
0  -0.597681 -0.020959 -0.392913  -0.278552 -0.685690 -0.672487  0.062500 0.500000 1 1 1.000000
no_material
0  -0.258998 0.016564 -0.252625  0.672494 0.685680 -0.278558  0.471731 0.341844 1 1 1.000000
0  -0.399285 0.016564 -0.392913  0.278563 0.685657 -0.672515  0.341844 0.471731 1 1 1.000000
0  -0.597681 0.016564 0.086058  -0.278566 0.685650 0.672521  0.158156 0.028269 1 1 1.000000
no_material
0  -0.597681 -0.020959 -0.392913  -0.278552 -0.685690 -0.672487  0.062500 0.500000 1 1 1.000000
0  -0.549053 0.016564 -0.407664  -0.142005 0.685696 -0.713902  0.031250 1.000000 1 1 1.000000
0  -0.549053 -0.020959 -0.407664  -0.142007 -0.685672 -0.713924  0.031250 0.500000 1 1 1.000000
no_material
0  -0.549053 -0.020959 -0.407664  -0.142007 -0.685672 -0.713924  0.031250 0.500000 1 1 1.000000
0  -0.498483 0.016564 -0.412644  -0.000002 0.685689 -0.727895  0.000000 1.000000 1 1 1.000000
0  -0.498483 -0.020959 -0.412644  0.000001 -0.685696 -0.727888  0.000000 0.500000 1 1 1.000000
no_material
0  -0.447912 -0.020959 0.100809  0.142010 -0.685656 0.713939  0.796822 0.014612 1 1 1.000000
0  -0.752719 -0.020959 -0.102857  -0.713916 -0.685681 0.142006  0.514612 0.203178 1 1 1.000000
0  -0.549053 -0.020959 -0.407664  -0.142007 -0.685672 -0.713924  0.703178 0.485388 1 1 1.000000
no_material
0  -0.571038 -0.034780 -0.206141  -0.658863 -0.564154 -0.497623  0.375000 0.000000 1 1 1.000000
0  -0.423733 0.034780 0.311867  -0.485139 0.593341 0.642329  0.625000 0.250000 1 1 1.000000
0  -0.571038 0.034780 -0.206141  -0.658845 0.564176 -0.497623  0.375000 0.250000 1 1 1.000000
no_material
0  -0.571038 0.034780 -0.206141  -0.658845 0.564176 -0.497623  0.375000 0.250000 1 1 1.000000
0  0.274132 0.034780 0.311867  0.446720 0.600373 0.663320  0.625000 0.500000 1 1 1.000000
0  0.484284 0.034780 -0.206141  0.687336 0.559730 -0.462895  0.375000 0.500000 1 1 1.000000
no_material
0  0.484284 0.034780 -0.206141  0.687336 0.559730 -0.462895  0.375000 0.500000 1 1 1.000000
0  0.274132 -0.034780 0.311867  0.446722 -0.600378 0.663314  0.625000 0.750000 1 1 1.000000
0  0.484284 -0.034780 -0.206141  0.687315 -0.559754 -0.462897  0.375000 0.750000 1 1 1.000000
no_material
0  0.484284 -0.034780 -0.206141  0.687315 -0.559754 -0.462897  0.375000 0.750000 1 1 1.000000
0  -0.423733 -0.034780 0.311867  -0.485140 -0.593330 0.642338  0.625000 1.000000 1 1 1.000000
0  -0.571038 -0.034780 -0.206141  -0.658863 -0.564154 -0.497623  0.375000 1.000000 1 1 1.000000
no_material
0  -0.571038 0.034780 -0.206141  -0.658845 0.564176 -0.497623  0.125000 0.500000 1 1 1.000000
0  0.484284 -0.034780 -0.206141  0.687315 -0.559754 -0.462897  0.375000 0.750000 1 1 1.000000
0  -0.571038 -0.034780 -0.206141  -0.658863 -0.564154 -0.497623  0.125000 0.750000 1 1 1.000000
no_material
0  0.274132 0.034780 0.311867  0.446720 0.600373 0.663320  0.625000 0.500000 1 1 1.000000
0  -0.423733 -0.034780 0.311867  -0.485140 -0.593330 0.642338  0.875000 0.750000 1 1 1.000000
0  0.274132 -0.034780 0.311867  0.446722 -0.600378 0.663314  0.625000 0.750000 1 1 1.000000
no_material
0  0.439646 -0.016454 -0.412636  0.000000 -0.685693 -0.727891  1.000000 0.500000 1 1 1.000000
0  0.490216 0.016958 -0.407655  0.142002 0.685699 -0.713899  0.968750 1.000000 1 1 1.000000
0  0.490216 -0.016454 -0.407655  0.142004 -0.685697 -0.713901  0.968750 0.500000 1 1 1.000000
no_material
0  0.490216 -0.016454 -0.407655  0.142004 -0.685697 -0.713901  0.968750 0.500000 1 1 1.000000
0  0.538844 0.016958 -0.392905  0.278560 0.685671 -0.672503  0.937500 1.000000 1 1 1.000000
0  0.538844 -0.016454 -0.392905  0.278550 -0.685700 -0.672477  0.937500 0.500000 1 1 1.000000
no_material
0  0.538844 -0.016454 -0.392905  0.278550 -0.685700 -0.672477  0.937500 0.500000 1 1 1.000000
0  0.583659 0.016958 -0.368950  0.404391 0.685700 -0.605214  0.906250 1.000000 1 1 1.000000
0  0.583659 -0.016454 -0.368950  0.404402 -0.685679 -0.605229  0.906250 0.500000 1 1 1.000000
no_material
0  0.583659 -0.016454 -0.368950  0.404402 -0.685679 -0.605229  0.906250 0.500000 1 1 1.000000
0  0.622940 0.016958 -0.336713  0.514706 0.685679 -0.514706  0.875000 1.000000 1 1 1.000000
0  0.622940 -0.016454 -0.336713  0.514693 -0.685700 -0.514691  0.875000 0.500000 1 1 1.000000
no_material
0  0.622940 -0.016454 -0.336713  0.514693 -0.685700 -0.514691  0.875000 0.500000 1 1 1.000000
0  0.655177 0.016958 -0.297433  0.605214 0.685700 -0.404392  0.843750 1.000000 1 1 1.000000
0  0.655177 -0.016454 -0.297433  0.605230 -0.685679 -0.404402  0.843750 0.500000 1 1 1.000000
no_material
0  0.655177 -0.016454 -0.297433  0.605230 -0.685679 -0.404402  0.843750 0.500000 1 1 1.000000
0  0.679131 0.016958 -0.252617  0.672495 0.685680 -0.278557  0.812500 1.000000 1 1 1.000000
0  0.679131 -0.016454 -0.252617  0.672478 -0.685699 -0.278550  0.812500 0.500000 1 1 1.000000
no_material
0  0.679131 -0.016454 -0.252617  0.672478 -0.685699 -0.278550  0.812500 0.500000 1 1 1.000000
0  0.693882 0.016958 -0.203990  0.713899 0.685699 -0.142004  0.781250 1.000000 1 1 1.000000
0  0.693882 -0.016454 -0.203990  0.713906 -0.685691 -0.142005  0.781250 0.500000 1 1 1.000000
no_material
0  0.693882 -0.016454 -0.203990  0.713906 -0.685691 -0.142005  0.781250 0.500000 1 1 1.000000
0  0.698863 0.016958 -0.153419  0.727887 0.685697 -0.000000  0.750000 1.000000 1 1 1.000000
0  0.698863 -0.016454 -0.153419  0.727885 -0.685699 0.000000  0.750000 0.500000 1 1 1.000000
no_material
0  0.698863 -0.016454 -0.153419  0.727885 -0.685699 0.000000  0.750000 0.500000 1 1 1.000000
0  0.693882 0.016958 -0.102849  0.713905 0.685693 0.142004  0.718750 1.000000 1 1 1.000000
0  0.693882 -0.016454 -0.102849  0.713905 -0.685692 0.142005  0.718750 0.500000 1 1 1.000000
no_material
0  0.693882 -0.016454 -0.102849  0.713905 -0.685692 0.142005  0.718750 0.500000 1 1 1.000000
0  0.679131 0.016958 -0.054221  0.672496 0.685679 0.278557  0.687500 1.000000 1 1 1.000000
0  0.679131 -0.016454 -0.054221  0.672478 -0.685699 0.278550  0.687500 0.500000 1 1 1.000000
no_material
0  0.679131 -0.016454 -0.054221  0.672478 -0.685699 0.278550  0.687500 0.500000 1 1 1.000000
0  0.655177 0.016958 -0.009406  0.605219 0.685693 0.404394  0.656250 1.000000 1 1 1.000000
0  0.655177 -0.016454 -0.009406  0.605224 -0.685686 0.404399  0.656250 0.500000 1 1 1.000000
no_material
0  0.655177 -0.016454 -0.009406  0.605224 -0.685686 0.404399  0.656250 0.500000 1 1 1.000000
0  0.622940 0.016958 0.029875  0.514695 0.685697 0.514693  0.625000 1.000000 1 1 1.000000
0  0.622940 -0.016454 0.029875  0.514696 -0.685693 0.514696  0.625000 0.500000 1 1 1.000000
no_material
0  0.622940 -0.016454 0.029875  0.514696 -0.685693 0.514696  0.625000 0.500000 1 1 1.000000
0  0.583659 0.016958 0.062112  0.404391 0.685699 0.605214  0.593750 1.000000 1 1 1.000000
0  0.583659 -0.016454 0.062112  0.404392 -0.685697 0.605216  0.593750 0.500000 1 1 1.000000
no_material
0  0.583659 -0.016454 0.062112  0.404392 -0.685697 0.605216  0.593750 0.500000 1 1 1.000000
0  0.538844 0.016958 0.086066  0.278556 0.685682 0.672493  0.562500 1.000000 1 1 1.000000
0  0.538844 -0.016454 0.086066  0.278549 -0.685700 0.672478  0.562500 0.500000 1 1 1.000000
no_material
0  0.538844 -0.016454 0.086066  0.278549 -0.685700 0.672478  0.562500 0.500000 1 1 1.000000
0  0.490216 0.016958 0.100817  0.142004 0.685700 0.713898  0.531250 1.000000 1 1 1.000000
0  0.490216 -0.016454 0.100817  0.142009 -0.685667 0.713929  0.531250 0.500000 1 1 1.000000
no_material
0  0.490216 -0.016454 0.100817  0.142009 -0.685667 0.713929  0.531250 0.500000 1 1 1.000000
0  0.439646 0.016958 0.105797  0.000000 0.685697 0.727887  0.500000 1.000000 1 1 1.000000
0  0.439646 -0.016454 0.105797  -0.000000 -0.685699 0.727885  0.500000 0.500000 1 1 1.000000
no_material
0  0.439646 -0.016454 0.105797  -0.000000 -0.685699 0.727885  0.500000 0.500000 1 1 1.000000
0  0.389075 0.016958 0.100817  -0.142004 0.685693 0.713904  0.468750 1.000000 1 1 1.000000
0  0.389075 -0.016454 0.100817  -0.142005 -0.685692 0.713905  0.468750 0.500000 1 1 1.000000
no_material
0  0.389075 -0.016454 0.100817  -0.142005 -0.685692 0.713905  0.468750 0.500000 1 1 1.000000
0  0.340448 0.016958 0.086066  -0.278563 0.685663 0.672510  0.437500 1.000000 1 1 1.000000
0  0.340448 -0.016454 0.086066  -0.278550 -0.685700 0.672478  0.437500 0.500000 1 1 1.000000
no_material
0  0.340448 -0.016454 0.086066  -0.278550 -0.685700 0.672478  0.437500 0.500000 1 1 1.000000
0  0.295633 0.016958 0.062112  -0.404391 0.685699 0.605215  0.406250 1.000000 1 1 1.000000
0  0.295633 -0.016454 0.062112  -0.404401 -0.685681 0.605228  0.406250 0.500000 1 1 1.000000
no_material
0  0.295633 -0.016454 0.062112  -0.404401 -0.685681 0.605228  0.406250 0.500000 1 1 1.000000
0  0.256352 0.016958 0.029875  -0.514694 0.685697 0.514694  0.375000 1.000000 1 1 1.000000
0  0.256352 -0.016454 0.029875  -0.514693 -0.685699 0.514692  0.375000 0.500000 1 1 1.000000
no_material
0  0.256352 -0.016454 0.029875  -0.514693 -0.685699 0.514692  0.375000 0.500000 1 1 1.000000
0  0.224115 0.016958 -0.009406  -0.605218 0.685693 0.404395  0.343750 1.000000 1 1 1.000000
0  0.224115 -0.016454 -0.009406  -0.605230 -0.685679 0.404401  0.343750 0.500000 1 1 1.000000
no_material
0  0.224115 -0.016454 -0.009406  -0.605230 -0.685679 0.404401  0.343750 0.500000 1 1 1.000000
0  0.200161 0.016958 -0.054221  -0.672496 0.685678 0.278558  0.312500 1.000000 1 1 1.000000
0  0.200161 -0.016454 -0.054221  -0.672478 -0.685699 0.278549  0.312500 0.500000 1 1 1.000000
no_material
0  0.200161 -0.016454 -0.054221  -0.672478 -0.685699 0.278549  0.312500 0.500000 1 1 1.000000
0  0.185410 0.016958 -0.102849  -0.713904 0.685693 0.142005  0.281250 1.000000 1 1 1.000000
0  0.185410 -0.016454 -0.102849  -0.713915 -0.685682 0.142006  0.281250 0.500000 1 1 1.000000
no_material
0  0.185410 -0.016454 -0.102849  -0.713915 -0.685682 0.142006  0.281250 0.500000 1 1 1.000000
0  0.180429 0.016958 -0.153419  -0.727887 0.685697 0.000000  0.250000 1.000000 1 1 1.000000
0  0.180429 -0.016454 -0.153419  -0.727885 -0.685699 -0.000000  0.250000 0.500000 1 1 1.000000
no_material
0  0.180429 -0.016454 -0.153419  -0.727885 -0.685699 -0.000000  0.250000 0.500000 1 1 1.000000
0  0.185410 0.016958 -0.203990  -0.713899 0.685700 -0.142003  0.218750 1.000000 1 1 1.000000
0  0.185410 -0.016454 -0.203990  -0.713905 -0.685692 -0.142005  0.218750 0.500000 1 1 1.000000
no_material
0  0.185410 -0.016454 -0.203990  -0.713905 -0.685692 -0.142005  0.218750 0.500000 1 1 1.000000
0  0.200161 0.016958 -0.252617  -0.672494 0.685681 -0.278556  0.187500 1.000000 1 1 1.000000
0  0.200161 -0.016454 -0.252617  -0.672478 -0.685699 -0.278550  0.187500 0.500000 1 1 1.000000
no_material
0  0.200161 -0.016454 -0.252617  -0.672478 -0.685699 -0.278550  0.187500 0.500000 1 1 1.000000
0  0.224115 0.016958 -0.297433  -0.605219 0.685694 -0.404394  0.156250 1.000000 1 1 1.000000
0  0.224115 -0.016454 -0.297433  -0.605235 -0.685673 -0.404405  0.156250 0.500000 1 1 1.000000
no_material
0  0.224115 -0.016454 -0.297433  -0.605235 -0.685673 -0.404405  0.156250 0.500000 1 1 1.000000
0  0.256352 0.016958 -0.336713  -0.514694 0.685696 -0.514694  0.125000 1.000000 1 1 1.000000
0  0.256352 -0.016454 -0.336713  -0.514692 -0.685699 -0.514693  0.125000 0.500000 1 1 1.000000
no_material
0  0.256352 -0.016454 -0.336713  -0.514692 -0.685699 -0.514693  0.125000 0.500000 1 1 1.000000
0  0.295633 0.016958 -0.368950  -0.404391 0.685700 -0.605214  0.093750 1.000000 1 1 1.000000
0  0.295633 -0.016454 -0.368950  -0.404395 -0.685692 -0.605220  0.093750 0.500000 1 1 1.000000
no_material
0  0.295633 -0.016454 -0.368950  -0.404395 -0.685692 -0.605220  0.093750 0.500000 1 1 1.000000
0  0.340448 0.016958 -0.392905  -0.278556 0.685685 -0.672490  0.062500 1.000000 1 1 1.000000
0  0.340448 -0.016454 -0.392905  -0.278550 -0.685699 -0.672478  0.062500 0.500000 1 1 1.000000
no_material
0  0.538844 0.016958 0.086066  0.278556 0.685682 0.672493  0.341844 0.028269 1 1 1.000000
0  0.679131 0.016958 -0.054221  0.672496 0.685679 0.278557  0.471731 0.158156 1 1 1.000000
0  0.538844 0.016958 -0.392905  0.278560 0.685671 -0.672503  0.341844 0.471731 1 1 1.000000
no_material
0  0.340448 -0.016454 -0.392905  -0.278550 -0.685699 -0.672478  0.062500 0.500000 1 1 1.000000
0  0.389075 0.016958 -0.407655  -0.142004 0.685693 -0.713904  0.031250 1.000000 1 1 1.000000
0  0.389075 -0.016454 -0.407655  -0.142009 -0.685664 -0.713932  0.031250 0.500000 1 1 1.000000
no_material
0  0.389075 -0.016454 -0.407655  -0.142009 -0.685664 -0.713932  0.031250 0.500000 1 1 1.000000
0  0.439646 0.016958 -0.412636  -0.000001 0.685697 -0.727887  0.000000 1.000000 1 1 1.000000
0  0.439646 -0.016454 -0.412636  0.000000 -0.685693 -0.727891  0.000000 0.500000 1 1 1.000000
no_material
0  0.490216 -0.016454 0.100817  0.142009 -0.685667 0.713929  0.796822 0.014612 1 1 1.000000
0  0.185410 -0.016454 -0.102849  -0.713915 -0.685682 0.142006  0.514612 0.203178 1 1 1.000000
0  0.389075 -0.016454 -0.407655  -0.142009 -0.685664 -0.713932  0.703178 0.485388 1 1 1.000000
no_material
0  0.218533 -0.262870 0.333180  -0.507810 -0.589295 -0.628379  0.375000 0.000000 1 1 1.000000
0  0.160579 0.262870 0.603199  -0.640631 0.567044 0.517738  0.625000 0.250000 1 1 1.000000
0  0.218533 0.262870 0.333180  -0.507819 0.589291 -0.628376  0.375000 0.250000 1 1 1.000000
no_material
0  0.218533 0.262870 0.333180  -0.507819 0.589291 -0.628376  0.375000 0.250000 1 1 1.000000
0  0.237445 0.262870 0.603199  0.507819 0.589291 0.628375  0.625000 0.500000 1 1 1.000000
0  0.295399 0.262870 0.333180  0.640631 0.567044 -0.517738  0.375000 0.500000 1 1 1.000000
no_material
0  0.295399 0.262870 0.333180  0.640631 0.567044 -0.517738  0.375000 0.500000 1 1 1.000000
0  0.237445 -0.262870 0.603199  0.507810 -0.589296 0.628379  0.625000 0.750000 1 1 1.000000
0  0.295399 -0.262870 0.333180  0.640654 -0.567018 -0.517738  0.375000 0.750000 1 1 1.000000
no_material
0  0.295399 -0.262870 0.333180  0.640654 -0.567018 -0.517738  0.375000 0.750000 1 1 1.000000
0  0.160579 -0.262870 0.603199  -0.640654 -0.567018 0.517738  0.625000 1.000000 1 1 1.000000
0  0.218533 -0.262870 0.333180  -0.507810 -0.589295 -0.628379  0.375000 1.000000 1 1 1.000000
no_material
0  0.218533 0.262870 0.333180  -0.507819 0.589291 -0.628376  0.125000 0.500000 1 1 1.000000
0  0.295399 -0.262870 0.333180  0.640654 -0.567018 -0.517738  0.375000 0.750000 1 1 1.000000
0  0.218533 -0.262870 0.333180  -0.507810 -0.589295 -0.628379  0.125000 0.750000 1 1 1.000000
no_material
0  0.237445 0.262870 0.603199  0.507819 0.589291 0.628375  0.625000 0.500000 1 1 1.000000
0  0.160579 -0.262870 0.603199  -0.640654 -0.567018 0.517738  0.875000 0.750000 1 1 1.000000
0  0.237445 -0.262870 0.603199  0.507810 -0.589296 0.628379  0.625000 0.750000 1 1 1.000000
no_material
0  -0.498483 -0.020959 -0.412644  0.000001 -0.685696 -0.727888  1.000000 0.500000 1 1 1.000000
0  -0.498483 0.016564 -0.412644  -0.000002 0.685689 -0.727895  1.000000 1.000000 1 1 1.000000
0  -0.447912 0.016564 -0.407664  0.142003 0.685696 -0.713902  0.968750 1.000000 1 1 1.000000
no_material
0  -0.447912 -0.020959 -0.407664  0.142006 -0.685693 -0.713904  0.968750 0.500000 1 1 1.000000
0  -0.447912 0.016564 -0.407664  0.142003 0.685696 -0.713902  0.968750 1.000000 1 1 1.000000
0  -0.399285 0.016564 -0.392913  0.278563 0.685657 -0.672515  0.937500 1.000000 1 1 1.000000
no_material
0  -0.399285 -0.020959 -0.392913  0.278554 -0.685690 -0.672486  0.937500 0.500000 1 1 1.000000
0  -0.399285 0.016564 -0.392913  0.278563 0.685657 -0.672515  0.937500 1.000000 1 1 1.000000
0  -0.354470 0.016564 -0.368958  0.404392 0.685696 -0.605217  0.906250 1.000000 1 1 1.000000
no_material
0  -0.354470 -0.020959 -0.368958  0.404400 -0.685685 -0.605224  0.906250 0.500000 1 1 1.000000
0  -0.354470 0.016564 -0.368958  0.404392 0.685696 -0.605217  0.906250 1.000000 1 1 1.000000
0  -0.315189 0.016564 -0.336721  0.514699 0.685689 -0.514700  0.875000 1.000000 1 1 1.000000
no_material
0  -0.315189 -0.020959 -0.336721  0.514699 -0.685690 -0.514698  0.875000 0.500000 1 1 1.000000
0  -0.315189 0.016564 -0.336721  0.514699 0.685689 -0.514700  0.875000 1.000000 1 1 1.000000
0  -0.282952 0.016564 -0.297441  0.605216 0.685696 -0.404394  0.843750 1.000000 1 1 1.000000
no_material
0  -0.282952 -0.020959 -0.297441  0.605220 -0.685693 -0.404393  0.843750 0.500000 1 1 1.000000
0  -0.282952 0.016564 -0.297441  0.605216 0.685696 -0.404394  0.843750 1.000000 1 1 1.000000
0  -0.258998 0.016564 -0.252625  0.672494 0.685680 -0.278558  0.812500 1.000000 1 1 1.000000
no_material
0  -0.258998 -0.020959 -0.252625  0.672481 -0.685696 -0.278550  0.812500 0.500000 1 1 1.000000
0  -0.258998 0.016564 -0.252625  0.672494 0.685680 -0.278558  0.812500 1.000000 1 1 1.000000
0  -0.244247 0.016564 -0.203998  0.713902 0.685696 -0.142005  0.781250 1.000000 1 1 1.000000
no_material
0  -0.244247 -0.020959 -0.203998  0.713922 -0.685674 -0.142007  0.781250 0.500000 1 1 1.000000
0  -0.244247 0.016564 -0.203998  0.713902 0.685696 -0.142005  0.781250 1.000000 1 1 1.000000
0  -0.239266 0.016564 -0.153427  0.727895 0.685689 -0.000001  0.750000 1.000000 1 1 1.000000
no_material
0  -0.239266 -0.020959 -0.153427  0.727888 -0.685696 0.000001  0.750000 0.500000 1 1 1.000000
0  -0.239266 0.016564 -0.153427  0.727895 0.685689 -0.000001  0.750000 1.000000 1 1 1.000000
0  -0.244247 0.016564 -0.102857  0.713902 0.685696 0.142003  0.718750 1.000000 1 1 1.000000
no_material
0  -0.244247 -0.020959 -0.102857  0.713904 -0.685693 0.142006  0.718750 0.500000 1 1 1.000000
0  -0.244247 0.016564 -0.102857  0.713902 0.685696 0.142003  0.718750 1.000000 1 1 1.000000
0  -0.258998 0.016564 -0.054229  0.672489 0.685688 0.278553  0.687500 1.000000 1 1 1.000000
no_material
0  -0.258998 -0.020959 -0.054229  0.672486 -0.685690 0.278554  0.687500 0.500000 1 1 1.000000
0  -0.258998 0.016564 -0.054229  0.672489 0.685688 0.278553  0.687500 1.000000 1 1 1.000000
0  -0.282952 0.016564 -0.009414  0.605217 0.685696 0.404392  0.656250 1.000000 1 1 1.000000
no_material
0  -0.282952 -0.020959 -0.009414  0.605233 -0.685674 0.404405  0.656250 0.500000 1 1 1.000000
0  -0.282952 0.016564 -0.009414  0.605217 0.685696 0.404392  0.656250 1.000000 1 1 1.000000
0  -0.315189 0.016564 0.029867  0.514709 0.685675 0.514708  0.625000 1.000000 1 1 1.000000
no_material
0  -0.315189 -0.020959 0.029867  0.514698 -0.685690 0.514699  0.625000 0.500000 1 1 1.000000
0  -0.315189 0.016564 0.029867  0.514709 0.685675 0.514708  0.625000 1.000000 1 1 1.000000
0  -0.354470 0.016564 0.062103  0.404394 0.685696 0.605216  0.593750 1.000000 1 1 1.000000
no_material
0  -0.354470 -0.020959 0.062103  0.404393 -0.685693 0.605219  0.593750 0.500000 1 1 1.000000
0  -0.354470 0.016564 0.062103  0.404394 0.685696 0.605216  0.593750 1.000000 1 1 1.000000
0  -0.399285 0.016564 0.086058  0.278558 0.685677 0.672497  0.562500 1.000000 1 1 1.000000
no_material
0  -0.399285 -0.020959 0.086058  0.278550 -0.685696 0.672481  0.562500 0.500000 1 1 1.000000
0  -0.399285 0.016564 0.086058  0.278558 0.685677 0.672497  0.562500 1.000000 1 1 1.000000
0  -0.447912 0.016564 0.100809  0.142005 0.685696 0.713901  0.531250 1.000000 1 1 1.000000
no_material
0  -0.447912 -0.020959 0.100809  0.142010 -0.685656 0.713939  0.531250 0.500000 1 1 1.000000
0  -0.447912 0.016564 0.100809  0.142005 0.685696 0.713901  0.531250 1.000000 1 1 1.000000
0  -0.498483 0.016564 0.105789  0.000001 0.685689 0.727895  0.500000 1.000000 1 1 1.000000
no_material
0  -0.498483 -0.020959 0.105789  -0.000001 -0.685696 0.727888  0.500000 0.500000 1 1 1.000000
0  -0.498483 0.016564 0.105789  0.000001 0.685689 0.727895  0.500000 1.000000 1 1 1.000000
0  -0.549053 0.016564 0.100809  -0.142003 0.685696 0.713902  0.468750 1.000000 1 1 1.000000
no_material
0  -0.549053 -0.020959 0.100809  -0.142005 -0.685693 0.713904  0.468750 0.500000 1 1 1.000000
0  -0.549053 0.016564 0.100809  -0.142003 0.685696 0.713902  0.468750 1.000000 1 1 1.000000
0  -0.597681 0.016564 0.086058  -0.278566 0.685650 0.672521  0.437500 1.000000 1 1 1.000000
no_material
0  -0.597681 -0.020959 0.086058  -0.278554 -0.685690 0.672486  0.437500 0.500000 1 1 1.000000
0  -0.597681 0.016564 0.086058  -0.278566 0.685650 0.672521  0.437500 1.000000 1 1 1.000000
0  -0.642496 0.016564 0.062103  -0.404392 0.685696 0.605217  0.406250 1.000000 1 1 1.000000
no_material
0  -0.642496 -0.020959 0.062103  -0.404402 -0.685680 0.605229  0.406250 0.500000 1 1 1.000000
0  -0.642496 0.016564 0.062103  -0.404392 0.685696 0.605217  0.406250 1.000000 1 1 1.000000
0  -0.681777 0.016564 0.029867  -0.514696 0.685693 0.514697  0.375000 1.000000 1 1 1.000000
no_material
0  -0.681777 -0.020959 0.029867  -0.514696 -0.685696 0.514693  0.375000 0.500000 1 1 1.000000
0  -0.681777 0.016564 0.029867  -0.514696 0.685693 0.514697  0.375000 1.000000 1 1 1.000000
0  -0.714014 0.016564 -0.009414  -0.605221 0.685690 0.404397  0.343750 1.000000 1 1 1.000000
no_material
0  -0.714014 -0.020959 -0.009414  -0.605234 -0.685676 0.404403  0.343750 0.500000 1 1 1.000000
0  -0.714014 0.016564 -0.009414  -0.605221 0.685690 0.404397  0.343750 1.000000 1 1 1.000000
0  -0.737968 0.016564 -0.054229  -0.672492 0.685683 0.278557  0.312500 1.000000 1 1 1.000000
no_material
0  -0.737968 -0.020959 -0.054229  -0.672481 -0.685696 0.278550  0.312500 0.500000 1 1 1.000000
0  -0.737968 0.016564 -0.054229  -0.672492 0.685683 0.278557  0.312500 1.000000 1 1 1.000000
0  -0.752719 0.016564 -0.102857  -0.713902 0.685696 0.142005  0.281250 1.000000 1 1 1.000000
no_material
0  -0.752719 -0.020959 -0.102857  -0.713916 -0.685681 0.142006  0.281250 0.500000 1 1 1.000000
0  -0.752719 0.016564 -0.102857  -0.713902 0.685696 0.142005  0.281250 1.000000 1 1 1.000000
0  -0.757699 0.016564 -0.153427  -0.727895 0.685689 0.000001  0.250000 1.000000 1 1 1.000000
no_material
0  -0.757699 -0.020959 -0.153427  -0.727894 -0.685690 -0.000001  0.250000 0.500000 1 1 1.000000
0  -0.757699 0.016564 -0.153427  -0.727895 0.685689 0.000001  0.250000 1.000000 1 1 1.000000
0  -0.752719 0.016564 -0.203998  -0.713902 0.685696 -0.142003  0.218750 1.000000 1 1 1.000000
no_material
0  -0.752719 -0.020959 -0.203998  -0.713904 -0.685693 -0.142005  0.218750 0.500000 1 1 1.000000
0  -0.752719 0.016564 -0.203998  -0.713902 0.685696 -0.142003  0.218750 1.000000 1 1 1.000000
0  -0.737968 0.016564 -0.252625  -0.672499 0.685676 -0.278557  0.187500 1.000000 1 1 1.000000
no_material
0  -0.737968 -0.020959 -0.252625  -0.672480 -0.685696 -0.278552  0.187500 0.500000 1 1 1.000000
0  -0.737968 0.016564 -0.252625  -0.672499 0.685676 -0.278557  0.187500 1.000000 1 1 1.000000
0  -0.714014 0.016564 -0.297441  -0.605217 0.685696 -0.404392  0.156250 1.000000 1 1 1.000000
no_material
0  -0.714014 -0.020959 -0.297441  -0.605239 -0.685667 -0.404409  0.156250 0.500000 1 1 1.000000
0  -0.714014 0.016564 -0.297441  -0.605217 0.685696 -0.404392  0.156250 1.000000 1 1 1.000000
0  -0.681777 0.016564 -0.336721  -0.514700 0.685689 -0.514699  0.125000 1.000000 1 1 1.000000
no_material
0  -0.681777 -0.020959 -0.336721  -0.514694 -0.685696 -0.514695  0.125000 0.500000 1 1 1.000000
0  -0.681777 0.016564 -0.336721  -0.514700 0.685689 -0.514699  0.125000 1.000000 1 1 1.000000
0  -0.642496 0.016564 -0.368958  -0.404394 0.685696 -0.605216  0.093750 1.000000 1 1 1.000000
no_material
0  -0.642496 -0.020959 -0.368958  -0.404394 -0.685693 -0.605220  0.093750 0.500000 1 1 1.000000
0  -0.642496 0.016564 -0.368958  -0.404394 0.685696 -0.605216  0.093750 1.000000 1 1 1.000000
0  -0.597681 0.016564 -0.392913  -0.278561 0.685669 -0.672504  0.062500 1.000000 1 1 1.000000
no_material
0  -0.399285 0.016564 -0.392913  0.278563 0.685657 -0.672515  0.341844 0.471731 1 1 1.000000
0  -0.447912 0.016564 -0.407664  0.142003 0.685696 -0.713902  0.296822 0.485388 1 1 1.000000
0  -0.498483 0.016564 -0.412644  -0.000002 0.685689 -0.727895  0.250000 0.490000 1 1 1.000000
no_material
0  -0.498483 0.016564 -0.412644  -0.000002 0.685689 -0.727895  0.250000 0.490000 1 1 1.000000
0  -0.549053 0.016564 -0.407664  -0.142005 0.685696 -0.713902  0.203178 0.485388 1 1 1.000000
0  -0.597681 0.016564 -0.392913  -0.278561 0.685669 -0.672504  0.158156 0.471731 1 1 1.000000
no_material
0  -0.597681 0.016564 -0.392913  -0.278561 0.685669 -0.672504  0.158156 0.471731 1 1 1.000000
0  -0.642496 0.016564 -0.368958  -0.404394 0.685696 -0.605216  0.116663 0.449553 1 1 1.000000
0  -0.681777 0.016564 -0.336721  -0.514700 0.685689 -0.514699  0.080294 0.419706 1 1 1.000000
no_material
0  -0.681777 0.016564 -0.336721  -0.514700 0.685689 -0.514699  0.080294 0.419706 1 1 1.000000
0  -0.714014 0.016564 -0.297441  -0.605217 0.685696 -0.404392  0.050447 0.383337 1 1 1.000000
0  -0.737968 0.016564 -0.252625  -0.672499 0.685676 -0.278557  0.028269 0.341844 1 1 1.000000
no_material
0  -0.737968 0.016564 -0.252625  -0.672499 0.685676 -0.278557  0.028269 0.341844 1 1 1.000000
0  -0.752719 0.016564 -0.203998  -0.713902 0.685696 -0.142003  0.014612 0.296822 1 1 1.000000
0  -0.757699 0.016564 -0.153427  -0.727895 0.685689 0.000001  0.010000 0.250000 1 1 1.000000
no_material
0  -0.757699 0.016564 -0.153427  -0.727895 0.685689 0.000001  0.010000 0.250000 1 1 1.000000
0  -0.752719 0.016564 -0.102857  -0.713902 0.685696 0.142005  0.014612 0.203178 1 1 1.000000
0  -0.737968 0.016564 -0.054229  -0.672492 0.685683 0.278557  0.028269 0.158156 1 1 1.000000
no_material
0  -0.737968 0.016564 -0.054229  -0.672492 0.685683 0.278557  0.028269 0.158156 1 1 1.000000
0  -0.714014 0.016564 -0.009414  -0.605221 0.685690 0.404397  0.050447 0.116663 1 1 1.000000
0  -0.597681 0.016564 0.086058  -0.278566 0.685650 0.672521  0.158156 0.028269 1 1 1.000000
no_material
0  -0.714014 0.016564 -0.009414  -0.605221 0.685690 0.404397  0.050447 0.116663 1 1 1.000000
0  -0.681777 0.016564 0.029867  -0.514696 0.685693 0.514697  0.080294 0.080294 1 1 1.000000
0  -0.597681 0.016564 0.086058  -0.278566 0.685650 0.672521  0.158156 0.028269 1 1 1.000000
no_material
0  -0.681777 0.016564 0.029867  -0.514696 0.685693 0.514697  0.080294 0.080294 1 1 1.000000
0  -0.642496 0.016564 0.062103  -0.404392 0.685696 0.605217  0.116663 0.050447 1 1 1.000000
0  -0.597681 0.016564 0.086058  -0.278566 0.685650 0.672521  0.158156 0.028269 1 1 1.000000
no_material
0  -0.597681 0.016564 0.086058  -0.278566 0.685650 0.672521  0.158156 0.028269 1 1 1.000000
0  -0.549053 0.016564 0.100809  -0.142003 0.685696 0.713902  0.203178 0.014612 1 1 1.000000
0  -0.498483 0.016564 0.105789  0.000001 0.685689 0.727895  0.250000 0.010000 1 1 1.000000
no_material
0  -0.498483 0.016564 0.105789  0.000001 0.685689 0.727895  0.250000 0.010000 1 1 1.000000
0  -0.447912 0.016564 0.100809  0.142005 0.685696 0.713901  0.296822 0.014612 1 1 1.000000
0  -0.399285 0.016564 0.086058  0.278558 0.685677 0.672497  0.341844 0.028269 1 1 1.000000
no_material
0  -0.399285 0.016564 0.086058  0.278558 0.685677 0.672497  0.341844 0.028269 1 1 1.000000
0  -0.354470 0.016564 0.062103  0.404394 0.685696 0.605216  0.383337 0.050447 1 1 1.000000
0  -0.315189 0.016564 0.029867  0.514709 0.685675 0.514708  0.419706 0.080294 1 1 1.000000
no_material
0  -0.315189 0.016564 0.029867  0.514709 0.685675 0.514708  0.419706 0.080294 1 1 1.000000
0  -0.282952 0.016564 -0.009414  0.605217 0.685696 0.404392  0.449553 0.116663 1 1 1.000000
0  -0.258998 0.016564 -0.054229  0.672489 0.685688 0.278553  0.471731 0.158156 1 1 1.000000
no_material
0  -0.258998 0.016564 -0.054229  0.672489 0.685688 0.278553  0.471731 0.158156 1 1 1.000000
0  -0.244247 0.016564 -0.102857  0.713902 0.685696 0.142003  0.485388 0.203178 1 1 1.000000
0  -0.239266 0.016564 -0.153427  0.727895 0.685689 -0.000001  0.490000 0.250000 1 1 1.000000
no_material
0  -0.239266 0.016564 -0.153427  0.727895 0.685689 -0.000001  0.490000 0.250000 1 1 1.000000
0  -0.244247 0.016564 -0.203998  0.713902 0.685696 -0.142005  0.485388 0.296822 1 1 1.000000
0  -0.258998 0.016564 -0.252625  0.672494 0.685680 -0.278558  0.471731 0.341844 1 1 1.000000
no_material
0  -0.258998 0.016564 -0.252625  0.672494 0.685680 -0.278558  0.471731 0.341844 1 1 1.000000
0  -0.282952 0.016564 -0.297441  0.605216 0.685696 -0.404394  0.449553 0.383337 1 1 1.000000
0  -0.315189 0.016564 -0.336721  0.514699 0.685689 -0.514700  0.419706 0.419706 1 1 1.000000
no_material
0  -0.315189 0.016564 -0.336721  0.514699 0.685689 -0.514700  0.419706 0.419706 1 1 1.000000
0  -0.354470 0.016564 -0.368958  0.404392 0.685696 -0.605217  0.383337 0.449553 1 1 1.000000
0  -0.399285 0.016564 -0.392913  0.278563 0.685657 -0.672515  0.341844 0.471731 1 1 1.000000
no_material
0  -0.399285 0.016564 -0.392913  0.278563 0.685657 -0.672515  0.341844 0.471731 1 1 1.000000
0  -0.498483 0.016564 -0.412644  -0.000002 0.685689 -0.727895  0.250000 0.490000 1 1 1.000000
0  -0.597681 0.016564 -0.392913  -0.278561 0.685669 -0.672504  0.158156 0.471731 1 1 1.000000
no_material
0  -0.597681 0.016564 -0.392913  -0.278561 0.685669 -0.672504  0.158156 0.471731 1 1 1.000000
0  -0.681777 0.016564 -0.336721  -0.514700 0.685689 -0.514699  0.080294 0.419706 1 1 1.000000
0  -0.737968 0.016564 -0.252625  -0.672499 0.685676 -0.278557  0.028269 0.341844 1 1 1.000000
no_material
0  -0.737968 0.016564 -0.252625  -0.672499 0.685676 -0.278557  0.028269 0.341844 1 1 1.000000
0  -0.757699 0.016564 -0.153427  -0.727895 0.685689 0.000001  0.010000 0.250000 1 1 1.000000
0  -0.737968 0.016564 -0.054229  -0.672492 0.685683 0.278557  0.028269 0.158156 1 1 1.000000
no_material
0  -0.597681 0.016564 0.086058  -0.278566 0.685650 0.672521  0.158156 0.028269 1 1 1.000000
0  -0.498483 0.016564 0.105789  0.000001 0.685689 0.727895  0.250000 0.010000 1 1 1.000000
0  -0.399285 0.016564 0.086058  0.278558 0.685677 0.672497  0.341844 0.028269 1 1 1.000000
no_material
0  -0.399285 0.016564 0.086058  0.278558 0.685677 0.672497  0.341844 0.028269 1 1 1.000000
0  -0.315189 0.016564 0.029867  0.514709 0.685675 0.514708  0.419706 0.080294 1 1 1.000000
0  -0.597681 0.016564 0.086058  -0.278566 0.685650 0.672521  0.158156 0.028269 1 1 1.000000
no_material
0  -0.315189 0.016564 0.029867  0.514709 0.685675 0.514708  0.419706 0.080294 1 1 1.000000
0  -0.258998 0.016564 -0.054229  0.672489 0.685688 0.278553  0.471731 0.158156 1 1 1.000000
0  -0.597681 0.016564 0.086058  -0.278566 0.685650 0.672521  0.158156 0.028269 1 1 1.000000
no_material
0  -0.258998 0.016564 -0.054229  0.672489 0.685688 0.278553  0.471731 0.158156 1 1 1.000000
0  -0.239266 0.016564 -0.153427  0.727895 0.685689 -0.000001  0.490000 0.250000 1 1 1.000000
0  -0.258998 0.016564 -0.252625  0.672494 0.685680 -0.278558  0.471731 0.341844 1 1 1.000000
no_material
0  -0.258998 0.016564 -0.252625  0.672494 0.685680 -0.278558  0.471731 0.341844 1 1 1.000000
0  -0.315189 0.016564 -0.336721  0.514699 0.685689 -0.514700  0.419706 0.419706 1 1 1.000000
0  -0.399285 0.016564 -0.392913  0.278563 0.685657 -0.672515  0.341844 0.471731 1 1 1.000000
no_material
0  -0.399285 0.016564 -0.392913  0.278563 0.685657 -0.672515  0.341844 0.471731 1 1 1.000000
0  -0.597681 0.016564 -0.392913  -0.278561 0.685669 -0.672504  0.158156 0.471731 1 1 1.000000
0  -0.737968 0.016564 -0.252625  -0.672499 0.685676 -0.278557  0.028269 0.341844 1 1 1.000000
no_material
0  -0.737968 0.016564 -0.252625  -0.672499 0.685676 -0.278557  0.028269 0.341844 1 1 1.000000
0  -0.737968 0.016564 -0.054229  -0.672492 0.685683 0.278557  0.028269 0.158156 1 1 1.000000
0  -0.399285 0.016564 -0.392913  0.278563 0.685657 -0.672515  0.341844 0.471731 1 1 1.000000
no_material
0  -0.737968 0.016564 -0.054229  -0.672492 0.685683 0.278557  0.028269 0.158156 1 1 1.000000
0  -0.597681 0.016564 0.086058  -0.278566 0.685650 0.672521  0.158156 0.028269 1 1 1.000000
0  -0.399285 0.016564 -0.392913  0.278563 0.685657 -0.672515  0.341844 0.471731 1 1 1.000000
no_material
0  -0.258998 0.016564 -0.054229  0.672489 0.685688 0.278553  0.471731 0.158156 1 1 1.000000
0  -0.258998 0.016564 -0.252625  0.672494 0.685680 -0.278558  0.471731 0.341844 1 1 1.000000
0  -0.597681 0.016564 0.086058  -0.278566 0.685650 0.672521  0.158156 0.028269 1 1 1.000000
no_material
0  -0.597681 -0.020959 -0.392913  -0.278552 -0.685690 -0.672487  0.062500 0.500000 1 1 1.000000
0  -0.597681 0.016564 -0.392913  -0.278561 0.685669 -0.672504  0.062500 1.000000 1 1 1.000000
0  -0.549053 0.016564 -0.407664  -0.142005 0.685696 -0.713902  0.031250 1.000000 1 1 1.000000
no_material
0  -0.549053 -0.020959 -0.407664  -0.142007 -0.685672 -0.713924  0.031250 0.500000 1 1 1.000000
0  -0.549053 0.016564 -0.407664  -0.142005 0.685696 -0.713902  0.031250 1.000000 1 1 1.000000
0  -0.498483 0.016564 -0.412644  -0.000002 0.685689 -0.727895  0.000000 1.000000 1 1 1.000000
no_material
0  -0.549053 -0.020959 -0.407664  -0.142007 -0.685672 -0.713924  0.703178 0.485388 1 1 1.000000
0  -0.498483 -0.020959 -0.412644  0.000001 -0.685696 -0.727888  0.750000 0.490000 1 1 1.000000
0  -0.447912 -0.020959 -0.407664  0.142006 -0.685693 -0.713904  0.796822 0.485388 1 1 1.000000
no_material
0  -0.447912 -0.020959 -0.407664  0.142006 -0.685693 -0.713904  0.796822 0.485388 1 1 1.000000
0  -0.399285 -0.020959 -0.392913  0.278554 -0.685690 -0.672486  0.841844 0.471731 1 1 1.000000
0  -0.549053 -0.020959 -0.407664  -0.142007 -0.685672 -0.713924  0.703178 0.485388 1 1 1.000000
no_material
0  -0.399285 -0.020959 -0.392913  0.278554 -0.685690 -0.672486  0.841844 0.471731 1 1 1.000000
0  -0.354470 -0.020959 -0.368958  0.404400 -0.685685 -0.605224  0.883337 0.449553 1 1 1.000000
0  -0.549053 -0.020959 -0.407664  -0.142007 -0.685672 -0.713924  0.703178 0.485388 1 1 1.000000
no_material
0  -0.354470 -0.020959 -0.368958  0.404400 -0.685685 -0.605224  0.883337 0.449553 1 1 1.000000
0  -0.315189 -0.020959 -0.336721  0.514699 -0.685690 -0.514698  0.919706 0.419706 1 1 1.000000
0  -0.244247 -0.020959 -0.203998  0.713922 -0.685674 -0.142007  0.985388 0.296822 1 1 1.000000
no_material
0  -0.315189 -0.020959 -0.336721  0.514699 -0.685690 -0.514698  0.919706 0.419706 1 1 1.000000
0  -0.282952 -0.020959 -0.297441  0.605220 -0.685693 -0.404393  0.949553 0.383337 1 1 1.000000
0  -0.244247 -0.020959 -0.203998  0.713922 -0.685674 -0.142007  0.985388 0.296822 1 1 1.000000
no_material
0  -0.282952 -0.020959 -0.297441  0.605220 -0.685693 -0.404393  0.949553 0.383337 1 1 1.000000
0  -0.258998 -0.020959 -0.252625  0.672481 -0.685696 -0.278550  0.971731 0.341844 1 1 1.000000
0  -0.244247 -0.020959 -0.203998  0.713922 -0.685674 -0.142007  0.985388 0.296822 1 1 1.000000
no_material
0  -0.244247 -0.020959 -0.203998  0.713922 -0.685674 -0.142007  0.985388 0.296822 1 1 1.000000
0  -0.239266 -0.020959 -0.153427  0.727888 -0.685696 0.000001  0.990000 0.250000 1 1 1.000000
0  -0.244247 -0.020959 -0.102857  0.713904 -0.685693 0.142006  0.985388 0.203178 1 1 1.000000
no_material
0  -0.244247 -0.020959 -0.102857  0.713904 -0.685693 0.142006  0.985388 0.203178 1 1 1.000000
0  -0.258998 -0.020959 -0.054229  0.672486 -0.685690 0.278554  0.971731 0.158156 1 1 1.000000
0  -0.244247 -0.020959 -0.203998  0.713922 -0.685674 -0.142007  0.985388 0.296822 1 1 1.000000
no_material
0  -0.258998 -0.020959 -0.054229  0.672486 -0.685690 0.278554  0.971731 0.158156 1 1 1.000000
0  -0.282952 -0.020959 -0.009414  0.605233 -0.685674 0.404405  0.949553 0.116663 1 1 1.000000
0  -0.244247 -0.020959 -0.203998  0.713922 -0.685674 -0.142007  0.985388 0.296822 1 1 1.000000
no_material
0  -0.282952 -0.020959 -0.009414  0.605233 -0.685674 0.404405  0.949553 0.116663 1 1 1.000000
0  -0.315189 -0.020959 0.029867  0.514698 -0.685690 0.514699  0.919706 0.080294 1 1 1.000000
0  -0.447912 -0.020959 0.100809  0.142010 -0.685656 0.713939  0.796822 0.014612 1 1 1.000000
no_material
0  -0.315189 -0.020959 0.029867  0.514698 -0.685690 0.514699  0.919706 0.080294 1 1 1.000000
0  -0.354470 -0.020959 0.062103  0.404393 -0.685693 0.605219  0.883337 0.050447 1 1 1.000000
0  -0.447912 -0.020959 0.100809  0.142010 -0.685656 0.713939  0.796822 0.014612 1 1 1.000000
no_material
0  -0.354470 -0.020959 0.062103  0.404393 -0.685693 0.605219  0.883337 0.050447 1 1 1.000000
0  -0.399285 -0.020959 0.086058  0.278550 -0.685696 0.672481  0.841844 0.028269 1 1 1.000000
0  -0.447912 -0.020959 0.100809  0.142010 -0.685656 0.713939  0.796822 0.014612 1 1 1.000000
no_material
0  -0.447912 -0.020959 0.100809  0.142010 -0.685656 0.713939  0.796822 0.014612 1 1 1.000000
0  -0.498483 -0.020959 0.105789  -0.000001 -0.685696 0.727888  0.750000 0.010000 1 1 1.000000
0  -0.549053 -0.020959 0.100809  -0.142005 -0.685693 0.713904  0.703178 0.014612 1 1 1.000000
no_material
0  -0.549053 -0.020959 0.100809  -0.142005 -0.685693 0.713904  0.703178 0.014612 1 1 1.000000
0  -0.597681 -0.020959 0.086058  -0.278554 -0.685690 0.672486  0.658156 0.028269 1 1 1.000000
0  -0.447912 -0.020959 0.100809  0.142010 -0.685656 0.713939  0.796822 0.014612 1 1 1.000000
no_material
0  -0.597681 -0.020959 0.086058  -0.278554 -0.685690 0.672486  0.658156 0.028269 1 1 1.000000
0  -0.642496 -0.020959 0.062103  -0.404402 -0.685680 0.605229  0.616663 0.050447 1 1 1.000000
0  -0.447912 -0.020959 0.100809  0.142010 -0.685656 0.713939  0.796822 0.014612 1 1 1.000000
no_material
0  -0.642496 -0.020959 0.062103  -0.404402 -0.685680 0.605229  0.616663 0.050447 1 1 1.000000
0  -0.681777 -0.020959 0.029867  -0.514696 -0.685696 0.514693  0.580294 0.080294 1 1 1.000000
0  -0.714014 -0.020959 -0.009414  -0.605234 -0.685676 0.404403  0.550447 0.116663 1 1 1.000000
no_material
0  -0.714014 -0.020959 -0.009414  -0.605234 -0.685676 0.404403  0.550447 0.116663 1 1 1.000000
0  -0.737968 -0.020959 -0.054229  -0.672481 -0.685696 0.278550  0.528269 0.158156 1 1 1.000000
0  -0.752719 -0.020959 -0.102857  -0.713916 -0.685681 0.142006  0.514612 0.203178 1 1 1.000000
no_material
0  -0.752719 -0.020959 -0.102857  -0.713916 -0.685681 0.142006  0.514612 0.203178 1 1 1.000000
0  -0.757699 -0.020959 -0.153427  -0.727894 -0.685690 -0.000001  0.510000 0.250000 1 1 1.000000
0  -0.714014 -0.020959 -0.297441  -0.605239 -0.685667 -0.404409  0.550447 0.383337 1 1 1.000000
no_material
0  -0.757699 -0.020959 -0.153427  -0.727894 -0.685690 -0.000001  0.510000 0.250000 1 1 1.000000
0  -0.752719 -0.020959 -0.203998  -0.713904 -0.685693 -0.142005  0.514612 0.296822 1 1 1.000000
0  -0.714014 -0.020959 -0.297441  -0.605239 -0.685667 -0.404409  0.550447 0.383337 1 1 1.000000
no_material
0  -0.752719 -0.020959 -0.203998  -0.713904 -0.685693 -0.142005  0.514612 0.296822 1 1 1.000000
0  -0.737968 -0.020959 -0.252625  -0.672480 -0.685696 -0.278552  0.528269 0.341844 1 1 1.000000
0  -0.714014 -0.020959 -0.297441  -0.605239 -0.685667 -0.404409  0.550447 0.383337 1 1 1.000000
no_material
0  -0.714014 -0.020959 -0.297441  -0.605239 -0.685667 -0.404409  0.550447 0.383337 1 1 1.000000
0  -0.681777 -0.020959 -0.336721  -0.514694 -0.685696 -0.514695  0.580294 0.419706 1 1 1.000000
0  -0.642496 -0.020959 -0.368958  -0.404394 -0.685693 -0.605220  0.616663 0.449553 1 1 1.000000
no_material
0  -0.642496 -0.020959 -0.368958  -0.404394 -0.685693 -0.605220  0.616663 0.449553 1 1 1.000000
0  -0.597681 -0.020959 -0.392913  -0.278552 -0.685690 -0.672487  0.658156 0.471731 1 1 1.000000
0  -0.714014 -0.020959 -0.297441  -0.605239 -0.685667 -0.404409  0.550447 0.383337 1 1 1.000000
no_material
0  -0.597681 -0.020959 -0.392913  -0.278552 -0.685690 -0.672487  0.658156 0.471731 1 1 1.000000
0  -0.549053 -0.020959 -0.407664  -0.142007 -0.685672 -0.713924  0.703178 0.485388 1 1 1.000000
0  -0.714014 -0.020959 -0.297441  -0.605239 -0.685667 -0.404409  0.550447 0.383337 1 1 1.000000
no_material
0  -0.642496 -0.020959 0.062103  -0.404402 -0.685680 0.605229  0.616663 0.050447 1 1 1.000000
0  -0.714014 -0.020959 -0.009414  -0.605234 -0.685676 0.404403  0.550447 0.116663 1 1 1.000000
0  -0.447912 -0.020959 0.100809  0.142010 -0.685656 0.713939  0.796822 0.014612 1 1 1.000000
no_material
0  -0.714014 -0.020959 -0.009414  -0.605234 -0.685676 0.404403  0.550447 0.116663 1 1 1.000000
0  -0.752719 -0.020959 -0.102857  -0.713916 -0.685681 0.142006  0.514612 0.203178 1 1 1.000000
0  -0.447912 -0.020959 0.100809  0.142010 -0.685656 0.713939  0.796822 0.014612 1 1 1.000000
no_material
0  -0.549053 -0.020959 -0.407664  -0.142007 -0.685672 -0.713924  0.703178 0.485388 1 1 1.000000
0  -0.354470 -0.020959 -0.368958  0.404400 -0.685685 -0.605224  0.883337 0.449553 1 1 1.000000
0  -0.447912 -0.020959 0.100809  0.142010 -0.685656 0.713939  0.796822 0.014612 1 1 1.000000
no_material
0  -0.354470 -0.020959 -0.368958  0.404400 -0.685685 -0.605224  0.883337 0.449553 1 1 1.000000
0  -0.244247 -0.020959 -0.203998  0.713922 -0.685674 -0.142007  0.985388 0.296822 1 1 1.000000
0  -0.447912 -0.020959 0.100809  0.142010 -0.685656 0.713939  0.796822 0.014612 1 1 1.000000
no_material
0  -0.244247 -0.020959 -0.203998  0.713922 -0.685674 -0.142007  0.985388 0.296822 1 1 1.000000
0  -0.282952 -0.020959 -0.009414  0.605233 -0.685674 0.404405  0.949553 0.116663 1 1 1.000000
0  -0.447912 -0.020959 0.100809  0.142010 -0.685656 0.713939  0.796822 0.014612 1 1 1.000000
no_material
0  -0.752719 -0.020959 -0.102857  -0.713916 -0.685681 0.142006  0.514612 0.203178 1 1 1.000000
0  -0.714014 -0.020959 -0.297441  -0.605239 -0.685667 -0.404409  0.550447 0.383337 1 1 1.000000
0  -0.549053 -0.020959 -0.407664  -0.142007 -0.685672 -0.713924  0.703178 0.485388 1 1 1.000000
no_material
0  -0.571038 -0.034780 -0.206141  -0.658863 -0.564154 -0.497623  0.375000 0.000000 1 1 1.000000
0  -0.423733 -0.034780 0.311867  -0.485140 -0.593330 0.642338  0.625000 0.000000 1 1 1.000000
0  -0.423733 0.034780 0.311867  -0.485139 0.593341 0.642329  0.625000 0.250000 1 1 1.000000
no_material
0  -0.571038 0.034780 -0.206141  -0.658845 0.564176 -0.497623  0.375000 0.250000 1 1 1.000000
0  -0.423733 0.034780 0.311867  -0.485139 0.593341 0.642329  0.625000 0.250000 1 1 1.000000
0  0.274132 0.034780 0.311867  0.446720 0.600373 0.663320  0.625000 0.500000 1 1 1.000000
no_material
0  0.484284 0.034780 -0.206141  0.687336 0.559730 -0.462895  0.375000 0.500000 1 1 1.000000
0  0.274132 0.034780 0.311867  0.446720 0.600373 0.663320  0.625000 0.500000 1 1 1.000000
0  0.274132 -0.034780 0.311867  0.446722 -0.600378 0.663314  0.625000 0.750000 1 1 1.000000
no_material
0  0.484284 -0.034780 -0.206141  0.687315 -0.559754 -0.462897  0.375000 0.750000 1 1 1.000000
0  0.274132 -0.034780 0.311867  0.446722 -0.600378 0.663314  0.625000 0.750000 1 1 1.000000
0  -0.423733 -0.034780 0.311867  -0.485140 -0.593330 0.642338  0.625000 1.000000 1 1 1.000000
no_material
0  -0.571038 0.034780 -0.206141  -0.658845 0.564176 -0.497623  0.125000 0.500000 1 1 1.000000
0  0.484284 0.034780 -0.206141  0.687336 0.559730 -0.462895  0.375000 0.500000 1 1 1.000000
0  0.484284 -0.034780 -0.206141  0.687315 -0.559754 -0.462897  0.375000 0.750000 1 1 1.000000
no_material
0  0.274132 0.034780 0.311867  0.446720 0.600373 0.663320  0.625000 0.500000 1 1 1.000000
0  -0.423733 0.034780 0.311867  -0.485139 0.593341 0.642329  0.875000 0.500000 1 1 1.000000
0  -0.423733 -0.034780 0.311867  -0.485140 -0.593330 0.642338  0.875000 0.750000 1 1 1.000000
no_material
0  0.439646 -0.016454 -0.412636  0.000000 -0.685693 -0.727891  1.000000 0.500000 1 1 1.000000
0  0.439646 0.016958 -0.412636  -0.000001 0.685697 -0.727887  1.000000 1.000000 1 1 1.000000
0  0.490216 0.016958 -0.407655  0.142002 0.685699 -0.713899  0.968750 1.000000 1 1 1.000000
no_material
0  0.490216 -0.016454 -0.407655  0.142004 -0.685697 -0.713901  0.968750 0.500000 1 1 1.000000
0  0.490216 0.016958 -0.407655  0.142002 0.685699 -0.713899  0.968750 1.000000 1 1 1.000000
0  0.538844 0.016958 -0.392905  0.278560 0.685671 -0.672503  0.937500 1.000000 1 1 1.000000
no_material
0  0.538844 -0.016454 -0.392905  0.278550 -0.685700 -0.672477  0.937500 0.500000 1 1 1.000000
0  0.538844 0.016958 -0.392905  0.278560 0.685671 -0.672503  0.937500 1.000000 1 1 1.000000
0  0.583659 0.016958 -0.368950  0.404391 0.685700 -0.605214  0.906250 1.000000 1 1 1.000000
no_material
0  0.583659 -0.016454 -0.368950  0.404402 -0.685679 -0.605229  0.906250 0.500000 1 1 1.000000
0  0.583659 0.016958 -0.368950  0.404391 0.685700 -0.605214  0.906250 1.000000 1 1 1.000000
0  0.622940 0.016958 -0.336713  0.514706 0.685679 -0.514706  0.875000 1.000000 1 1 1.000000
no_material
0  0.622940 -0.016454 -0.336713  0.514693 -0.685700 -0.514691  0.875000 0.500000 1 1 1.000000
0  0.622940 0.016958 -0.336713  0.514706 0.685679 -0.514706  0.875000 1.000000 1 1 1.000000
0  0.655177 0.016958 -0.297433  0.605214 0.685700 -0.404392  0.843750 1.000000 1 1 1.000000
no_material
0  0.655177 -0.016454 -0.297433  0.605230 -0.685679 -0.404402  0.843750 0.500000 1 1 1.000000
0  0.655177 0.016958 -0.297433  0.605214 0.685700 -0.404392  0.843750 1.000000 1 1 1.000000
0  0.679131 0.016958 -0.252617  0.672495 0.685680 -0.278557  0.812500 1.000000 1 1 1.000000
no_material
0  0.679131 -0.016454 -0.252617  0.672478 -0.685699 -0.278550  0.812500 0.500000 1 1 1.000000
0  0.679131 0.016958 -0.252617  0.672495 0.685680 -0.278557  0.812500 1.000000 1 1 1.000000
0  0.693882 0.016958 -0.203990  0.713899 0.685699 -0.142004  0.781250 1.000000 1 1 1.000000
no_material
0  0.693882 -0.016454 -0.203990  0.713906 -0.685691 -0.142005  0.781250 0.500000 1 1 1.000000
0  0.693882 0.016958 -0.203990  0.713899 0.685699 -0.142004  0.781250 1.000000 1 1 1.000000
0  0.698863 0.016958 -0.153419  0.727887 0.685697 -0.000000  0.750000 1.000000 1 1 1.000000
no_material
0  0.698863 -0.016454 -0.153419  0.727885 -0.685699 0.000000  0.750000 0.500000 1 1 1.000000
0  0.698863 0.016958 -0.153419  0.727887 0.685697 -0.000000  0.750000 1.000000 1 1 1.000000
0  0.693882 0.016958 -0.102849  0.713905 0.685693 0.142004  0.718750 1.000000 1 1 1.000000
no_material
0  0.693882 -0.016454 -0.102849  0.713905 -0.685692 0.142005  0.718750 0.500000 1 1 1.000000
0  0.693882 0.016958 -0.102849  0.713905 0.685693 0.142004  0.718750 1.000000 1 1 1.000000
0  0.679131 0.016958 -0.054221  0.672496 0.685679 0.278557  0.687500 1.000000 1 1 1.000000
no_material
0  0.679131 -0.016454 -0.054221  0.672478 -0.685699 0.278550  0.687500 0.500000 1 1 1.000000
0  0.679131 0.016958 -0.054221  0.672496 0.685679 0.278557  0.687500 1.000000 1 1 1.000000
0  0.655177 0.016958 -0.009406  0.605219 0.685693 0.404394  0.656250 1.000000 1 1 1.000000
no_material
0  0.655177 -0.016454 -0.009406  0.605224 -0.685686 0.404399  0.656250 0.500000 1 1 1.000000
0  0.655177 0.016958 -0.009406  0.605219 0.685693 0.404394  0.656250 1.000000 1 1 1.000000
0  0.622940 0.016958 0.029875  0.514695 0.685697 0.514693  0.625000 1.000000 1 1 1.000000
no_material
0  0.622940 -0.016454 0.029875  0.514696 -0.685693 0.514696  0.625000 0.500000 1 1 1.000000
0  0.622940 0.016958 0.029875  0.514695 0.685697 0.514693  0.625000 1.000000 1 1 1.000000
0  0.583659 0.016958 0.062112  0.404391 0.685699 0.605214  0.593750 1.000000 1 1 1.000000
no_material
0  0.583659 -0.016454 0.062112  0.404392 -0.685697 0.605216  0.593750 0.500000 1 1 1.000000
0  0.583659 0.016958 0.062112  0.404391 0.685699 0.605214  0.593750 1.000000 1 1 1.000000
0  0.538844 0.016958 0.086066  0.278556 0.685682 0.672493  0.562500 1.000000 1 1 1.000000
no_material
0  0.538844 -0.016454 0.086066  0.278549 -0.685700 0.672478  0.562500 0.500000 1 1 1.000000
0  0.538844 0.016958 0.086066  0.278556 0.685682 0.672493  0.562500 1.000000 1 1 1.000000
0  0.490216 0.016958 0.100817  0.142004 0.685700 0.713898  0.531250 1.000000 1 1 1.000000
no_material
0  0.490216 -0.016454 0.100817  0.142009 -0.685667 0.713929  0.531250 0.500000 1 1 1.000000
0  0.490216 0.016958 0.100817  0.142004 0.685700 0.713898  0.531250 1.000000 1 1 1.000000
0  0.439646 0.016958 0.105797  0.000000 0.685697 0.727887  0.500000 1.000000 1 1 1.000000
no_material
0  0.439646 -0.016454 0.105797  -0.000000 -0.685699 0.727885  0.500000 0.500000 1 1 1.000000
0  0.439646 0.016958 0.105797  0.000000 0.685697 0.727887  0.500000 1.000000 1 1 1.000000
0  0.389075 0.016958 0.100817  -0.142004 0.685693 0.713904  0.468750 1.000000 1 1 1.000000
no_material
0  0.389075 -0.016454 0.100817  -0.142005 -0.685692 0.713905  0.468750 0.500000 1 1 1.000000
0  0.389075 0.016958 0.100817  -0.142004 0.685693 0.713904  0.468750 1.000000 1 1 1.000000
0  0.340448 0.016958 0.086066  -0.278563 0.685663 0.672510  0.437500 1.000000 1 1 1.000000
no_material
0  0.340448 -0.016454 0.086066  -0.278550 -0.685700 0.672478  0.437500 0.500000 1 1 1.000000
0  0.340448 0.016958 0.086066  -0.278563 0.685663 0.672510  0.437500 1.000000 1 1 1.000000
0  0.295633 0.016958 0.062112  -0.404391 0.685699 0.605215  0.406250 1.000000 1 1 1.000000
no_material
0  0.295633 -0.016454 0.062112  -0.404401 -0.685681 0.605228  0.406250 0.500000 1 1 1.000000
0  0.295633 0.016958 0.062112  -0.404391 0.685699 0.605215  0.406250 1.000000 1 1 1.000000
0  0.256352 0.016958 0.029875  -0.514694 0.685697 0.514694  0.375000 1.000000 1 1 1.000000
no_material
0  0.256352 -0.016454 0.029875  -0.514693 -0.685699 0.514692  0.375000 0.500000 1 1 1.000000
0  0.256352 0.016958 0.029875  -0.514694 0.685697 0.514694  0.375000 1.000000 1 1 1.000000
0  0.224115 0.016958 -0.009406  -0.605218 0.685693 0.404395  0.343750 1.000000 1 1 1.000000
no_material
0  0.224115 -0.016454 -0.009406  -0.605230 -0.685679 0.404401  0.343750 0.500000 1 1 1.000000
0  0.224115 0.016958 -0.009406  -0.605218 0.685693 0.404395  0.343750 1.000000 1 1 1.000000
0  0.200161 0.016958 -0.054221  -0.672496 0.685678 0.278558  0.312500 1.000000 1 1 1.000000
no_material
0  0.200161 -0.016454 -0.054221  -0.672478 -0.685699 0.278549  0.312500 0.500000 1 1 1.000000
0  0.200161 0.016958 -0.054221  -0.672496 0.685678 0.278558  0.312500 1.000000 1 1 1.000000
0  0.185410 0.016958 -0.102849  -0.713904 0.685693 0.142005  0.281250 1.000000 1 1 1.000000
no_material
0  0.185410 -0.016454 -0.102849  -0.713915 -0.685682 0.142006  0.281250 0.500000 1 1 1.000000
0  0.185410 0.016958 -0.102849  -0.713904 0.685693 0.142005  0.281250 1.000000 1 1 1.000000
0  0.180429 0.016958 -0.153419  -0.727887 0.685697 0.000000  0.250000 1.000000 1 1 1.000000
no_material
0  0.180429 -0.016454 -0.153419  -0.727885 -0.685699 -0.000000  0.250000 0.500000 1 1 1.000000
0  0.180429 0.016958 -0.153419  -0.727887 0.685697 0.000000  0.250000 1.000000 1 1 1.000000
0  0.185410 0.016958 -0.203990  -0.713899 0.685700 -0.142003  0.218750 1.000000 1 1 1.000000
no_material
0  0.185410 -0.016454 -0.203990  -0.713905 -0.685692 -0.142005  0.218750 0.500000 1 1 1.000000
0  0.185410 0.016958 -0.203990  -0.713899 0.685700 -0.142003  0.218750 1.000000 1 1 1.000000
0  0.200161 0.016958 -0.252617  -0.672494 0.685681 -0.278556  0.187500 1.000000 1 1 1.000000
no_material
0  0.200161 -0.016454 -0.252617  -0.672478 -0.685699 -0.278550  0.187500 0.500000 1 1 1.000000
0  0.200161 0.016958 -0.252617  -0.672494 0.685681 -0.278556  0.187500 1.000000 1 1 1.000000
0  0.224115 0.016958 -0.297433  -0.605219 0.685694 -0.404394  0.156250 1.000000 1 1 1.000000
no_material
0  0.224115 -0.016454 -0.297433  -0.605235 -0.685673 -0.404405  0.156250 0.500000 1 1 1.000000
0  0.224115 0.016958 -0.297433  -0.605219 0.685694 -0.404394  0.156250 1.000000 1 1 1.000000
0  0.256352 0.016958 -0.336713  -0.514694 0.685696 -0.514694  0.125000 1.000000 1 1 1.000000
no_material
0  0.256352 -0.016454 -0.336713  -0.514692 -0.685699 -0.514693  0.125000 0.500000 1 1 1.000000
0  0.256352 0.016958 -0.336713  -0.514694 0.685696 -0.514694  0.125000 1.000000 1 1 1.000000
0  0.295633 0.016958 -0.368950  -0.404391 0.685700 -0.605214  0.093750 1.000000 1 1 1.000000
no_material
0  0.295633 -0.016454 -0.368950  -0.404395 -0.685692 -0.605220  0.093750 0.500000 1 1 1.000000
0  0.295633 0.016958 -0.368950  -0.404391 0.685700 -0.605214  0.093750 1.000000 1 1 1.000000
0  0.340448 0.016958 -0.392905  -0.278556 0.685685 -0.672490  0.062500 1.000000 1 1 1.000000
no_material
0  0.538844 0.016958 -0.392905  0.278560 0.685671 -0.672503  0.341844 0.471731 1 1 1.000000
0  0.490216 0.016958 -0.407655  0.142002 0.685699 -0.713899  0.296822 0.485388 1 1 1.000000
0  0.439646 0.016958 -0.412636  -0.000001 0.685697 -0.727887  0.250000 0.490000 1 1 1.000000
no_material
0  0.439646 0.016958 -0.412636  -0.000001 0.685697 -0.727887  0.250000 0.490000 1 1 1.000000
0  0.389075 0.016958 -0.407655  -0.142004 0.685693 -0.713904  0.203178 0.485388 1 1 1.000000
0  0.538844 0.016958 -0.392905  0.278560 0.685671 -0.672503  0.341844 0.471731 1 1 1.000000
no_material
0  0.389075 0.016958 -0.407655  -0.142004 0.685693 -0.713904  0.203178 0.485388 1 1 1.000000
0  0.340448 0.016958 -0.392905  -0.278556 0.685685 -0.672490  0.158156 0.471731 1 1 1.000000
0  0.538844 0.016958 -0.392905  0.278560 0.685671 -0.672503  0.341844 0.471731 1 1 1.000000
no_material
0  0.340448 0.016958 -0.392905  -0.278556 0.685685 -0.672490  0.158156 0.471731 1 1 1.000000
0  0.295633 0.016958 -0.368950  -0.404391 0.685700 -0.605214  0.116663 0.449553 1 1 1.000000
0  0.256352 0.016958 -0.336713  -0.514694 0.685696 -0.514694  0.080294 0.419706 1 1 1.000000
no_material
0  0.256352 0.016958 -0.336713  -0.514694 0.685696 -0.514694  0.080294 0.419706 1 1 1.000000
0  0.224115 0.016958 -0.297433  -0.605219 0.685694 -0.404394  0.050447 0.383337 1 1 1.000000
0  0.340448 0.016958 -0.392905  -0.278556 0.685685 -0.672490  0.158156 0.471731 1 1 1.000000
no_material
0  0.224115 0.016958 -0.297433  -0.605219 0.685694 -0.404394  0.050447 0.383337 1 1 1.000000
0  0.200161 0.016958 -0.252617  -0.672494 0.685681 -0.278556  0.028269 0.341844 1 1 1.000000
0  0.340448 0.016958 -0.392905  -0.278556 0.685685 -0.672490  0.158156 0.471731 1 1 1.000000
no_material
0  0.200161 0.016958 -0.252617  -0.672494 0.685681 -0.278556  0.028269 0.341844 1 1 1.000000
0  0.185410 0.016958 -0.203990  -0.713899 0.685700 -0.142003  0.014612 0.296822 1 1 1.000000
0  0.180429 0.016958 -0.153419  -0.727887 0.685697 0.000000  0.010000 0.250000 1 1 1.000000
no_material
0  0.180429 0.016958 -0.153419  -0.727887 0.685697 0.000000  0.010000 0.250000 1 1 1.000000
0  0.185410 0.016958 -0.102849  -0.713904 0.685693 0.142005  0.014612 0.203178 1 1 1.000000
0  0.200161 0.016958 -0.252617  -0.672494 0.685681 -0.278556  0.028269 0.341844 1 1 1.000000
no_material
0  0.185410 0.016958 -0.102849  -0.713904 0.685693 0.142005  0.014612 0.203178 1 1 1.000000
0  0.200161 0.016958 -0.054221  -0.672496 0.685678 0.278558  0.028269 0.158156 1 1 1.000000
0  0.200161 0.016958 -0.252617  -0.672494 0.685681 -0.278556  0.028269 0.341844 1 1 1.000000
no_material
0  0.200161 0.016958 -0.054221  -0.672496 0.685678 0.278558  0.028269 0.158156 1 1 1.000000
0  0.224115 0.016958 -0.009406  -0.605218 0.685693 0.404395  0.050447 0.116663 1 1 1.000000
0  0.340448 0.016958 0.086066  -0.278563 0.685663 0.672510  0.158156 0.028269 1 1 1.000000
no_material
0  0.224115 0.016958 -0.009406  -0.605218 0.685693 0.404395  0.050447 0.116663 1 1 1.000000
0  0.256352 0.016958 0.029875  -0.514694 0.685697 0.514694  0.080294 0.080294 1 1 1.000000
0  0.340448 0.016958 0.086066  -0.278563 0.685663 0.672510  0.158156 0.028269 1 1 1.000000
no_material
0  0.256352 0.016958 0.029875  -0.514694 0.685697 0.514694  0.080294 0.080294 1 1 1.000000
0  0.295633 0.016958 0.062112  -0.404391 0.685699 0.605215  0.116663 0.050447 1 1 1.000000
0  0.340448 0.016958 0.086066  -0.278563 0.685663 0.672510  0.158156 0.028269 1 1 1.000000
no_material
0  0.340448 0.016958 0.086066  -0.278563 0.685663 0.672510  0.158156 0.028269 1 1 1.000000
0  0.389075 0.016958 0.100817  -0.142004 0.685693 0.713904  0.203178 0.014612 1 1 1.000000
0  0.538844 0.016958 0.086066  0.278556 0.685682 0.672493  0.341844 0.028269 1 1 1.000000
no_material
0  0.389075 0.016958 0.100817  -0.142004 0.685693 0.713904  0.203178 0.014612 1 1 1.000000
0  0.439646 0.016958 0.105797  0.000000 0.685697 0.727887  0.250000 0.010000 1 1 1.000000
0  0.538844 0.016958 0.086066  0.278556 0.685682 0.672493  0.341844 0.028269 1 1 1.000000
no_material
0  0.439646 0.016958 0.105797  0.000000 0.685697 0.727887  0.250000 0.010000 1 1 1.000000
0  0.490216 0.016958 0.100817  0.142004 0.685700 0.713898  0.296822 0.014612 1 1 1.000000
0  0.538844 0.016958 0.086066  0.278556 0.685682 0.672493  0.341844 0.028269 1 1 1.000000
no_material
0  0.538844 0.016958 0.086066  0.278556 0.685682 0.672493  0.341844 0.028269 1 1 1.000000
0  0.583659 0.016958 0.062112  0.404391 0.685699 0.605214  0.383337 0.050447 1 1 1.000000
0  0.622940 0.016958 0.029875  0.514695 0.685697 0.514693  0.419706 0.080294 1 1 1.000000
no_material
0  0.622940 0.016958 0.029875  0.514695 0.685697 0.514693  0.419706 0.080294 1 1 1.000000
0  0.655177 0.016958 -0.009406  0.605219 0.685693 0.404394  0.449553 0.116663 1 1 1.000000
0  0.538844 0.016958 0.086066  0.278556 0.685682 0.672493  0.341844 0.028269 1 1 1.000000
no_material
0  0.655177 0.016958 -0.009406  0.605219 0.685693 0.404394  0.449553 0.116663 1 1 1.000000
0  0.679131 0.016958 -0.054221  0.672496 0.685679 0.278557  0.471731 0.158156 1 1 1.000000
0  0.538844 0.016958 0.086066  0.278556 0.685682 0.672493  0.341844 0.028269 1 1 1.000000
no_material
0  0.679131 0.016958 -0.054221  0.672496 0.685679 0.278557  0.471731 0.158156 1 1 1.000000
0  0.693882 0.016958 -0.102849  0.713905 0.685693 0.142004  0.485388 0.203178 1 1 1.000000
0  0.679131 0.016958 -0.252617  0.672495 0.685680 -0.278557  0.471731 0.341844 1 1 1.000000
no_material
0  0.693882 0.016958 -0.102849  0.713905 0.685693 0.142004  0.485388 0.203178 1 1 1.000000
0  0.698863 0.016958 -0.153419  0.727887 0.685697 -0.000000  0.490000 0.250000 1 1 1.000000
0  0.679131 0.016958 -0.252617  0.672495 0.685680 -0.278557  0.471731 0.341844 1 1 1.000000
no_material
0  0.698863 0.016958 -0.153419  0.727887 0.685697 -0.000000  0.490000 0.250000 1 1 1.000000
0  0.693882 0.016958 -0.203990  0.713899 0.685699 -0.142004  0.485388 0.296822 1 1 1.000000
0  0.679131 0.016958 -0.252617  0.672495 0.685680 -0.278557  0.471731 0.341844 1 1 1.000000
no_material
0  0.679131 0.016958 -0.252617  0.672495 0.685680 -0.278557  0.471731 0.341844 1 1 1.000000
0  0.655177 0.016958 -0.297433  0.605214 0.685700 -0.404392  0.449553 0.383337 1 1 1.000000
0  0.622940 0.016958 -0.336713  0.514706 0.685679 -0.514706  0.419706 0.419706 1 1 1.000000
no_material
0  0.622940 0.016958 -0.336713  0.514706 0.685679 -0.514706  0.419706 0.419706 1 1 1.000000
0  0.583659 0.016958 -0.368950  0.404391 0.685700 -0.605214  0.383337 0.449553 1 1 1.000000
0  0.538844 0.016958 -0.392905  0.278560 0.685671 -0.672503  0.341844 0.471731 1 1 1.000000
no_material
0  0.679131 0.016958 -0.252617  0.672495 0.685680 -0.278557  0.471731 0.341844 1 1 1.000000
0  0.622940 0.016958 -0.336713  0.514706 0.685679 -0.514706  0.419706 0.419706 1 1 1.000000
0  0.679131 0.016958 -0.054221  0.672496 0.685679 0.278557  0.471731 0.158156 1 1 1.000000
no_material
0  0.622940 0.016958 -0.336713  0.514706 0.685679 -0.514706  0.419706 0.419706 1 1 1.000000
0  0.538844 0.016958 -0.392905  0.278560 0.685671 -0.672503  0.341844 0.471731 1 1 1.000000
0  0.679131 0.016958 -0.054221  0.672496 0.685679 0.278557  0.471731 0.158156 1 1 1.000000
no_material
0  0.538844 0.016958 -0.392905  0.278560 0.685671 -0.672503  0.341844 0.471731 1 1 1.000000
0  0.340448 0.016958 -0.392905  -0.278556 0.685685 -0.672490  0.158156 0.471731 1 1 1.000000
0  0.340448 0.016958 0.086066  -0.278563 0.685663 0.672510  0.158156 0.028269 1 1 1.000000
no_material
0  0.340448 0.016958 -0.392905  -0.278556 0.685685 -0.672490  0.158156 0.471731 1 1 1.000000
0  0.200161 0.016958 -0.252617  -0.672494 0.685681 -0.278556  0.028269 0.341844 1 1 1.000000
0  0.340448 0.016958 0.086066  -0.278563 0.685663 0.672510  0.158156 0.028269 1 1 1.000000
no_material
0  0.200161 0.016958 -0.252617  -0.672494 0.685681 -0.278556  0.028269 0.341844 1 1 1.000000
0  0.200161 0.016958 -0.054221  -0.672496 0.685678 0.278558  0.028269 0.158156 1 1 1.000000
0  0.340448 0.016958 0.086066  -0.278563 0.685663 0.672510  0.158156 0.028269 1 1 1.000000
no_material
0  0.340448 0.016958 0.086066  -0.278563 0.685663 0.672510  0.158156 0.028269 1 1 1.000000
0  0.538844 0.016958 0.086066  0.278556 0.685682 0.672493  0.341844 0.028269 1 1 1.000000
0  0.538844 0.016958 -0.392905  0.278560 0.685671 -0.672503  0.341844 0.471731 1 1 1.000000
no_material
0  0.340448 -0.016454 -0.392905  -0.278550 -0.685699 -0.672478  0.062500 0.500000 1 1 1.000000
0  0.340448 0.016958 -0.392905  -0.278556 0.685685 -0.672490  0.062500 1.000000 1 1 1.000000
0  0.389075 0.016958 -0.407655  -0.142004 0.685693 -0.713904  0.031250 1.000000 1 1 1.000000
no_material
0  0.389075 -0.016454 -0.407655  -0.142009 -0.685664 -0.713932  0.031250 0.500000 1 1 1.000000
0  0.389075 0.016958 -0.407655  -0.142004 0.685693 -0.713904  0.031250 1.000000 1 1 1.000000
0  0.439646 0.016958 -0.412636  -0.000001 0.685697 -0.727887  0.000000 1.000000 1 1 1.000000
no_material
0  0.389075 -0.016454 -0.407655  -0.142009 -0.685664 -0.713932  0.703178 0.485388 1 1 1.000000
0  0.439646 -0.016454 -0.412636  0.000000 -0.685693 -0.727891  0.750000 0.490000 1 1 1.000000
0  0.583659 -0.016454 -0.368950  0.404402 -0.685679 -0.605229  0.883337 0.449553 1 1 1.000000
no_material
0  0.439646 -0.016454 -0.412636  0.000000 -0.685693 -0.727891  0.750000 0.490000 1 1 1.000000
0  0.490216 -0.016454 -0.407655  0.142004 -0.685697 -0.713901  0.796822 0.485388 1 1 1.000000
0  0.583659 -0.016454 -0.368950  0.404402 -0.685679 -0.605229  0.883337 0.449553 1 1 1.000000
no_material
0  0.490216 -0.016454 -0.407655  0.142004 -0.685697 -0.713901  0.796822 0.485388 1 1 1.000000
0  0.538844 -0.016454 -0.392905  0.278550 -0.685700 -0.672477  0.841844 0.471731 1 1 1.000000
0  0.583659 -0.016454 -0.368950  0.404402 -0.685679 -0.605229  0.883337 0.449553 1 1 1.000000
no_material
0  0.583659 -0.016454 -0.368950  0.404402 -0.685679 -0.605229  0.883337 0.449553 1 1 1.000000
0  0.622940 -0.016454 -0.336713  0.514693 -0.685700 -0.514691  0.919706 0.419706 1 1 1.000000
0  0.655177 -0.016454 -0.297433  0.605230 -0.685679 -0.404402  0.949553 0.383337 1 1 1.000000
no_material
0  0.655177 -0.016454 -0.297433  0.605230 -0.685679 -0.404402  0.949553 0.383337 1 1 1.000000
0  0.679131 -0.016454 -0.252617  0.672478 -0.685699 -0.278550  0.971731 0.341844 1 1 1.000000
0  0.693882 -0.016454 -0.203990  0.713906 -0.685691 -0.142005  0.985388 0.296822 1 1 1.000000
no_material
0  0.693882 -0.016454 -0.203990  0.713906 -0.685691 -0.142005  0.985388 0.296822 1 1 1.000000
0  0.698863 -0.016454 -0.153419  0.727885 -0.685699 0.000000  0.990000 0.250000 1 1 1.000000
0  0.693882 -0.016454 -0.102849  0.713905 -0.685692 0.142005  0.985388 0.203178 1 1 1.000000
no_material
0  0.693882 -0.016454 -0.102849  0.713905 -0.685692 0.142005  0.985388 0.203178 1 1 1.000000
0  0.679131 -0.016454 -0.054221  0.672478 -0.685699 0.278550  0.971731 0.158156 1 1 1.000000
0  0.655177 -0.016454 -0.009406  0.605224 -0.685686 0.404399  0.949553 0.116663 1 1 1.000000
no_material
0  0.655177 -0.016454 -0.009406  0.605224 -0.685686 0.404399  0.949553 0.116663 1 1 1.000000
0  0.622940 -0.016454 0.029875  0.514696 -0.685693 0.514696  0.919706 0.080294 1 1 1.000000
0  0.490216 -0.016454 0.100817  0.142009 -0.685667 0.713929  0.796822 0.014612 1 1 1.000000
no_material
0  0.622940 -0.016454 0.029875  0.514696 -0.685693 0.514696  0.919706 0.080294 1 1 1.000000
0  0.583659 -0.016454 0.062112  0.404392 -0.685697 0.605216  0.883337 0.050447 1 1 1.000000
0  0.490216 -0.016454 0.100817  0.142009 -0.685667 0.713929  0.796822 0.014612 1 1 1.000000
no_material
0  0.583659 -0.016454 0.062112  0.404392 -0.685697 0.605216  0.883337 0.050447 1 1 1.000000
0  0.538844 -0.016454 0.086066  0.278549 -0.685700 0.672478  0.841844 0.028269 1 1 1.000000
0  0.490216 -0.016454 0.100817  0.142009 -0.685667 0.713929  0.796822 0.014612 1 1 1.000000
no_material
0  0.490216 -0.016454 0.100817  0.142009 -0.685667 0.713929  0.796822 0.014612 1 1 1.000000
0  0.439646 -0.016454 0.105797  -0.000000 -0.685699 0.727885  0.750000 0.010000 1 1 1.000000
0  0.389075 -0.016454 0.100817  -0.142005 -0.685692 0.713905  0.703178 0.014612 1 1 1.000000
no_material
0  0.389075 -0.016454 0.100817  -0.142005 -0.685692 0.713905  0.703178 0.014612 1 1 1.000000
0  0.340448 -0.016454 0.086066  -0.278550 -0.685700 0.672478  0.658156 0.028269 1 1 1.000000
0  0.295633 -0.016454 0.062112  -0.404401 -0.685681 0.605228  0.616663 0.050447 1 1 1.000000
no_material
0  0.295633 -0.016454 0.062112  -0.404401 -0.685681 0.605228  0.616663 0.050447 1 1 1.000000
0  0.256352 -0.016454 0.029875  -0.514693 -0.685699 0.514692  0.580294 0.080294 1 1 1.000000
0  0.224115 -0.016454 -0.009406  -0.605230 -0.685679 0.404401  0.550447 0.116663 1 1 1.000000
no_material
0  0.224115 -0.016454 -0.009406  -0.605230 -0.685679 0.404401  0.550447 0.116663 1 1 1.000000
0  0.200161 -0.016454 -0.054221  -0.672478 -0.685699 0.278549  0.528269 0.158156 1 1 1.000000
0  0.185410 -0.016454 -0.102849  -0.713915 -0.685682 0.142006  0.514612 0.203178 1 1 1.000000
no_material
0  0.185410 -0.016454 -0.102849  -0.713915 -0.685682 0.142006  0.514612 0.203178 1 1 1.000000
0  0.180429 -0.016454 -0.153419  -0.727885 -0.685699 -0.000000  0.510000 0.250000 1 1 1.000000
0  0.185410 -0.016454 -0.203990  -0.713905 -0.685692 -0.142005  0.514612 0.296822 1 1 1.000000
no_material
0  0.185410 -0.016454 -0.203990  -0.713905 -0.685692 -0.142005  0.514612 0.296822 1 1 1.000000
0  0.200161 -0.016454 -0.252617  -0.672478 -0.685699 -0.278550  0.528269 0.341844 1 1 1.000000
0  0.224115 -0.016454 -0.297433  -0.605235 -0.685673 -0.404405  0.550447 0.383337 1 1 1.000000
no_material
0  0.224115 -0.016454 -0.297433  -0.605235 -0.685673 -0.404405  0.550447 0.383337 1 1 1.000000
0  0.256352 -0.016454 -0.336713  -0.514692 -0.685699 -0.514693  0.580294 0.419706 1 1 1.000000
0  0.295633 -0.016454 -0.368950  -0.404395 -0.685692 -0.605220  0.616663 0.449553 1 1 1.000000
no_material
0  0.295633 -0.016454 -0.368950  -0.404395 -0.685692 -0.605220  0.616663 0.449553 1 1 1.000000
0  0.340448 -0.016454 -0.392905  -0.278550 -0.685699 -0.672478  0.658156 0.471731 1 1 1.000000
0  0.389075 -0.016454 -0.407655  -0.142009 -0.685664 -0.713932  0.703178 0.485388 1 1 1.000000
no_material
0  0.583659 -0.016454 -0.368950  0.404402 -0.685679 -0.605229  0.883337 0.449553 1 1 1.000000
0  0.655177 -0.016454 -0.297433  0.605230 -0.685679 -0.404402  0.949553 0.383337 1 1 1.000000
0  0.389075 -0.016454 -0.407655  -0.142009 -0.685664 -0.713932  0.703178 0.485388 1 1 1.000000
no_material
0  0.655177 -0.016454 -0.297433  0.605230 -0.685679 -0.404402  0.949553 0.383337 1 1 1.000000
0  0.693882 -0.016454 -0.203990  0.713906 -0.685691 -0.142005  0.985388 0.296822 1 1 1.000000
0  0.389075 -0.016454 -0.407655  -0.142009 -0.685664 -0.713932  0.703178 0.485388 1 1 1.000000
no_material
0  0.693882 -0.016454 -0.203990  0.713906 -0.685691 -0.142005  0.985388 0.296822 1 1 1.000000
0  0.693882 -0.016454 -0.102849  0.713905 -0.685692 0.142005  0.985388 0.203178 1 1 1.000000
0  0.655177 -0.016454 -0.009406  0.605224 -0.685686 0.404399  0.949553 0.116663 1 1 1.000000
no_material
0  0.490216 -0.016454 0.100817  0.142009 -0.685667 0.713929  0.796822 0.014612 1 1 1.000000
0  0.389075 -0.016454 0.100817  -0.142005 -0.685692 0.713905  0.703178 0.014612 1 1 1.000000
0  0.295633 -0.016454 0.062112  -0.404401 -0.685681 0.605228  0.616663 0.050447 1 1 1.000000
no_material
0  0.295633 -0.016454 0.062112  -0.404401 -0.685681 0.605228  0.616663 0.050447 1 1 1.000000
0  0.224115 -0.016454 -0.009406  -0.605230 -0.685679 0.404401  0.550447 0.116663 1 1 1.000000
0  0.490216 -0.016454 0.100817  0.142009 -0.685667 0.713929  0.796822 0.014612 1 1 1.000000
no_material
0  0.224115 -0.016454 -0.009406  -0.605230 -0.685679 0.404401  0.550447 0.116663 1 1 1.000000
0  0.185410 -0.016454 -0.102849  -0.713915 -0.685682 0.142006  0.514612 0.203178 1 1 1.000000
0  0.490216 -0.016454 0.100817  0.142009 -0.685667 0.713929  0.796822 0.014612 1 1 1.000000
no_material
0  0.185410 -0.016454 -0.102849  -0.713915 -0.685682 0.142006  0.514612 0.203178 1 1 1.000000
0  0.185410 -0.016454 -0.203990  -0.713905 -0.685692 -0.142005  0.514612 0.296822 1 1 1.000000
0  0.224115 -0.016454 -0.297433  -0.605235 -0.685673 -0.404405  0.550447 0.383337 1 1 1.000000
no_material
0  0.224115 -0.016454 -0.297433  -0.605235 -0.685673 -0.404405  0.550447 0.383337 1 1 1.000000
0  0.295633 -0.016454 -0.368950  -0.404395 -0.685692 -0.605220  0.616663 0.449553 1 1 1.000000
0  0.389075 -0.016454 -0.407655  -0.142009 -0.685664 -0.713932  0.703178 0.485388 1 1 1.000000
no_material
0  0.693882 -0.016454 -0.203990  0.713906 -0.685691 -0.142005  0.985388 0.296822 1 1 1.000000
0  0.655177 -0.016454 -0.009406  0.605224 -0.685686 0.404399  0.949553 0.116663 1 1 1.000000
0  0.389075 -0.016454 -0.407655  -0.142009 -0.685664 -0.713932  0.703178 0.485388 1 1 1.000000
no_material
0  0.655177 -0.016454 -0.009406  0.605224 -0.685686 0.404399  0.949553 0.116663 1 1 1.000000
0  0.490216 -0.016454 0.100817  0.142009 -0.685667 0.713929  0.796822 0.014612 1 1 1.000000
0  0.389075 -0.016454 -0.407655  -0.142009 -0.685664 -0.713932  0.703178 0.485388 1 1 1.000000
no_material
0  0.185410 -0.016454 -0.102849  -0.713915 -0.685682 0.142006  0.514612 0.203178 1 1 1.000000
0  0.224115 -0.016454 -0.297433  -0.605235 -0.685673 -0.404405  0.550447 0.383337 1 1 1.000000
0  0.389075 -0.016454 -0.407655  -0.142009 -0.685664 -0.713932  0.703178 0.485388 1 1 1.000000
no_material
0  0.218533 -0.262870 0.333180  -0.507810 -0.589295 -0.628379  0.375000 0.000000 1 1 1.000000
0  0.160579 -0.262870 0.603199  -0.640654 -0.567018 0.517738  0.625000 0.000000 1 1 1.000000
0  0.160579 0.262870 0.603199  -0.640631 0.567044 0.517738  0.625000 0.250000 1 1 1.000000
no_material
0  0.218533 0.262870 0.333180  -0.507819 0.589291 -0.628376  0.375000 0.250000 1 1 1.000000
0  0.160579 0.262870 0.603199  -0.640631 0.567044 0.517738  0.625000 0.250000 1 1 1.000000
0  0.237445 0.262870 0.603199  0.507819 0.589291 0.628375  0.625000 0.500000 1 1 1.000000
no_material
0  0.295399 0.262870 0.333180  0.640631 0.567044 -0.517738  0.375000 0.500000 1 1 1.000000
0  0.237445 0.262870 0.603199  0.507819 0.589291 0.628375  0.625000 0.500000 1 1 1.000000
0  0.237445 -0.262870 0.603199  0.507810 -0.589296 0.628379  0.625000 0.750000 1 1 1.000000
no_material
0  0.295399 -0.262870 0.333180  0.640654 -0.567018 -0.517738  0.375000 0.750000 1 1 1.000000
0  0.237445 -0.262870 0.603199  0.507810 -0.589296 0.628379  0.625000 0.750000 1 1 1.000000
0  0.160579 -0.262870 0.603199  -0.640654 -0.567018 0.517738  0.625000 1.000000 1 1 1.000000
no_material
0  0.218533 0.262870 0.333180  -0.507819 0.589291 -0.628376  0.125000 0.500000 1 1 1.000000
0  0.295399 0.262870 0.333180  0.640631 0.567044 -0.517738  0.375000 0.500000 1 1 1.000000
0  0.295399 -0.262870 0.333180  0.640654 -0.567018 -0.517738  0.375000 0.750000 1 1 1.000000
no_material
0  0.237445 0.262870 0.603199  0.507819 0.589291 0.628375  0.625000 0.500000 1 1 1.000000
0  0.160579 0.262870 0.603199  -0.640631 0.567044 0.517738  0.875000 0.500000 1 1 1.000000
0  0.160579 -0.262870 0.603199  -0.640654 -0.567018 0.517738  0.875000 0.750000 1 1 1.000000
end
